<svg width="86" height="92" viewBox="0 0 86 92" fill="none" xmlns="http://www.w3.org/2000/svg">
<rect x="1" y="11" width="84" height="80" rx="7" fill="#333333"/>
<rect x="1" y="11" width="84" height="80" rx="7" stroke="#FDB623" stroke-width="2"/>
<rect x="12.5" width="61" height="22" rx="4" fill="#FDB623"/>
<path d="M22.3686 7.38C22.5206 7.38 22.6566 7.42 22.7766 7.5C22.9046 7.58 22.9806 7.72 23.0046 7.92C23.1006 8.552 23.1606 9.184 23.1846 9.816C23.2166 10.44 23.2326 11.148 23.2326 11.94C23.2326 12.276 23.2046 12.888 23.1486 13.776C23.5006 13.808 23.7726 13.824 23.9646 13.824C24.1006 13.824 24.4086 13.804 24.8886 13.764C25.1686 13.724 25.4126 13.704 25.6206 13.704C25.8126 13.704 25.9886 13.724 26.1486 13.764C26.3086 13.796 26.4726 13.852 26.6406 13.932C26.8086 14.028 26.8926 14.176 26.8926 14.376C26.8926 14.536 26.8406 14.68 26.7366 14.808C26.6406 14.936 26.5246 15 26.3886 15C26.2926 15 26.1406 14.984 25.9326 14.952C25.5566 14.896 25.1966 14.868 24.8526 14.868C24.7406 14.868 24.6126 14.876 24.4686 14.892C24.3326 14.9 24.2326 14.904 24.1686 14.904C23.9766 14.928 23.7846 14.94 23.5926 14.94C23.2006 14.94 22.8486 14.92 22.5366 14.88C22.3766 14.864 22.2166 14.804 22.0566 14.7C21.8966 14.588 21.8166 14.428 21.8166 14.22C21.8166 14.1 21.8326 13.792 21.8646 13.296C21.9206 12.472 21.9486 11.844 21.9486 11.412C21.9486 11.076 21.9326 10.724 21.9006 10.356C21.8686 9.988 21.8486 9.756 21.8406 9.66C21.7686 8.98 21.7326 8.42 21.7326 7.98C21.7326 7.772 21.7806 7.62 21.8766 7.524C21.9806 7.428 22.1446 7.38 22.3686 7.38ZM32.3392 11.148C32.4032 11.26 32.4552 11.424 32.4952 11.64C32.5352 11.848 32.5552 12.036 32.5552 12.204C32.5552 12.516 32.4872 12.96 32.3512 13.536C31.7992 14.544 30.9832 15.048 29.9032 15.048C29.5032 15.048 29.0952 14.916 28.6792 14.652C28.2632 14.388 27.9752 14.084 27.8152 13.74C27.5992 13.052 27.4912 12.616 27.4912 12.432C27.4912 12.112 27.5592 11.772 27.6952 11.412C27.8392 11.052 28.0192 10.74 28.2352 10.476C28.3712 10.292 28.6152 10.136 28.9672 10.008C29.3192 9.872 29.6392 9.804 29.9272 9.804C30.4872 9.804 30.9632 9.912 31.3552 10.128C31.7472 10.336 32.0752 10.676 32.3392 11.148ZM31.2952 13.08C31.3352 12.976 31.3552 12.708 31.3552 12.276C31.3552 12.044 31.3112 11.816 31.2232 11.592C31.1432 11.368 31.0232 11.176 30.8632 11.016C30.8472 11 30.8032 10.976 30.7312 10.944C30.6592 10.904 30.5592 10.868 30.4312 10.836C30.3112 10.796 30.1712 10.776 30.0112 10.776C29.5632 10.776 29.2352 10.956 29.0272 11.316C28.8192 11.676 28.7152 12.084 28.7152 12.54C28.7152 12.62 28.7352 12.772 28.7752 12.996C28.8232 13.22 28.8632 13.36 28.8952 13.416C28.9192 13.472 28.9792 13.552 29.0752 13.656C29.1792 13.752 29.3032 13.84 29.4472 13.92C29.5992 13.992 29.7552 14.028 29.9152 14.028C30.2752 14.028 30.5632 13.944 30.7792 13.776C30.9952 13.6 31.1672 13.368 31.2952 13.08ZM37.9878 10.992C37.9878 11.344 37.8078 11.52 37.4478 11.52C37.3278 11.52 37.2278 11.492 37.1478 11.436C37.0678 11.38 36.9798 11.296 36.8838 11.184C36.6438 10.92 36.4358 10.788 36.2598 10.788C36.0278 10.788 35.7998 10.856 35.5758 10.992C35.3598 11.128 35.1838 11.32 35.0478 11.568C34.9118 11.816 34.8438 12.092 34.8438 12.396C34.8438 12.732 34.9078 13.012 35.0358 13.236C35.1718 13.46 35.3798 13.652 35.6598 13.812C35.7638 13.868 35.8838 13.912 36.0198 13.944C36.1638 13.976 36.2878 13.992 36.3918 13.992C36.6238 13.992 36.9158 13.9 37.2678 13.716C37.3958 13.652 37.5038 13.604 37.5918 13.572C37.6798 13.54 37.7718 13.524 37.8678 13.524C37.9558 13.524 38.0558 13.564 38.1678 13.644C38.2798 13.724 38.3358 13.824 38.3358 13.944C38.3358 14.184 38.2238 14.388 37.9998 14.556C37.7758 14.716 37.4998 14.84 37.1718 14.928C36.8518 15.008 36.5438 15.048 36.2478 15.048C35.7758 15.048 35.3358 14.94 34.9278 14.724C34.5278 14.508 34.2078 14.212 33.9678 13.836C33.7278 13.452 33.6078 13.02 33.6078 12.54C33.6078 12.028 33.7238 11.56 33.9558 11.136C34.1878 10.712 34.4998 10.38 34.8918 10.14C35.2838 9.9 35.7118 9.78 36.1758 9.78C36.4398 9.78 36.7118 9.828 36.9918 9.924C37.2718 10.02 37.5078 10.16 37.6998 10.344C37.8918 10.528 37.9878 10.744 37.9878 10.992ZM43.9128 15.048C43.6408 15.048 43.4328 15.008 43.2888 14.928C43.1448 14.84 42.9888 14.68 42.8208 14.448C42.6128 14.632 42.3008 14.78 41.8848 14.892C41.4768 15.004 41.1248 15.06 40.8288 15.06C40.3408 15.06 39.9448 14.928 39.6408 14.664C39.3448 14.392 39.1968 13.996 39.1968 13.476C39.1968 13.252 39.2568 13.048 39.3768 12.864C39.5048 12.672 39.6688 12.504 39.8688 12.36C40.0928 12.208 40.3568 12.088 40.6608 12C40.9728 11.912 41.2568 11.868 41.5128 11.868C41.9448 11.868 42.3288 11.908 42.6648 11.988V11.976C42.6648 11.544 42.5568 11.248 42.3408 11.088C42.1328 10.92 41.7968 10.836 41.3328 10.836C41.0368 10.836 40.7808 10.968 40.5648 11.232C40.4848 11.336 40.3168 11.388 40.0608 11.388C39.9328 11.388 39.8368 11.336 39.7728 11.232C39.7168 11.12 39.6888 11.008 39.6888 10.896C39.6888 10.664 39.7848 10.464 39.9768 10.296C40.1768 10.128 40.4168 10.004 40.6968 9.924C40.9768 9.836 41.2368 9.792 41.4768 9.792C41.7088 9.792 41.9848 9.84 42.3048 9.936C42.6248 10.032 42.8848 10.16 43.0848 10.32C43.3248 10.528 43.5088 10.772 43.6368 11.052C43.7728 11.324 43.8408 11.624 43.8408 11.952C43.8408 12.056 43.8328 12.212 43.8168 12.42C43.8008 12.66 43.7928 12.856 43.7928 13.008C43.7928 13.08 43.7848 13.172 43.7688 13.284C43.7528 13.428 43.7448 13.548 43.7448 13.644C43.7448 13.748 43.7768 13.848 43.8408 13.944C43.9048 14.04 43.9928 14.12 44.1048 14.184C44.2088 14.24 44.2768 14.3 44.3088 14.364C44.3408 14.428 44.3568 14.5 44.3568 14.58C44.3568 14.66 44.3048 14.76 44.2008 14.88C44.1048 14.992 44.0088 15.048 43.9128 15.048ZM41.5128 12.756C41.2008 12.756 40.9248 12.816 40.6848 12.936C40.4448 13.056 40.3248 13.268 40.3248 13.572C40.3248 13.724 40.3768 13.852 40.4808 13.956C40.5928 14.06 40.7128 14.112 40.8408 14.112C41.1848 14.112 41.4728 14.076 41.7048 14.004C41.9368 13.932 42.2168 13.8 42.5448 13.608C42.5848 13.48 42.6088 13.3 42.6168 13.068C42.6168 12.98 42.6208 12.912 42.6288 12.864C42.1968 12.792 41.8248 12.756 41.5128 12.756ZM45.259 10.824C45.147 10.808 45.055 10.764 44.983 10.692C44.919 10.612 44.887 10.516 44.887 10.404C44.887 10.26 44.943 10.14 45.055 10.044C45.079 10.02 45.119 10 45.175 9.984C45.231 9.96 45.275 9.94 45.307 9.924C45.483 9.868 45.595 9.824 45.643 9.792C45.827 9.68 45.951 9.496 46.015 9.24C46.079 8.936 46.119 8.728 46.135 8.616C46.151 8.44 46.207 8.308 46.303 8.22C46.407 8.124 46.535 8.076 46.687 8.076C46.887 8.076 47.027 8.128 47.107 8.232C47.187 8.336 47.227 8.528 47.227 8.808C47.227 9.176 47.139 9.524 46.963 9.852C47.075 9.852 47.259 9.844 47.515 9.828C47.899 9.812 48.167 9.804 48.319 9.804C48.455 9.804 48.571 9.84 48.667 9.912C48.771 9.976 48.823 10.072 48.823 10.2C48.823 10.504 48.683 10.684 48.403 10.74C48.147 10.812 47.683 10.856 47.011 10.872C46.955 11.656 46.927 12.276 46.927 12.732C46.927 13.012 46.939 13.212 46.963 13.332C47.011 13.58 47.091 13.764 47.203 13.884C47.323 13.996 47.499 14.052 47.731 14.052C47.843 14.052 48.011 14.024 48.235 13.968C48.371 13.928 48.479 13.908 48.559 13.908C48.663 13.908 48.743 13.944 48.799 14.016C48.855 14.088 48.883 14.184 48.883 14.304C48.883 14.52 48.743 14.7 48.463 14.844C48.183 14.98 47.851 15.048 47.467 15.048C47.227 15.048 46.991 14.992 46.759 14.88C46.527 14.76 46.331 14.616 46.171 14.448C46.139 14.432 46.091 14.344 46.027 14.184C45.971 14.024 45.915 13.848 45.859 13.656C45.835 13.56 45.823 13.328 45.823 12.96C45.823 12.608 45.847 12 45.895 11.136L45.907 10.872C45.851 10.872 45.747 10.868 45.595 10.86C45.443 10.844 45.331 10.832 45.259 10.824ZM50.3353 7.296C50.6153 7.32 50.8553 7.396 51.0553 7.524C51.2633 7.644 51.3673 7.828 51.3673 8.076C51.3673 8.26 51.2833 8.408 51.1153 8.52C50.9473 8.624 50.7393 8.676 50.4913 8.676C50.2593 8.676 50.0993 8.616 50.0113 8.496C49.9233 8.376 49.8793 8.252 49.8793 8.124C49.8793 7.892 49.9073 7.696 49.9633 7.536C50.0193 7.368 50.1433 7.288 50.3353 7.296ZM50.0953 12.252V11.904C50.0953 11.504 50.0753 11.14 50.0353 10.812C50.0033 10.476 49.9833 10.268 49.9753 10.188C49.9833 10.1 50.0433 10.016 50.1553 9.936C50.2673 9.856 50.3673 9.816 50.4553 9.816C50.6073 9.816 50.7593 9.848 50.9113 9.912C51.0713 9.968 51.1713 10.04 51.2113 10.128C51.2513 10.424 51.2713 10.652 51.2713 10.812C51.2713 11.164 51.2873 11.74 51.3193 12.54L51.3313 13.008L51.3553 13.464C51.3633 13.592 51.3713 13.744 51.3793 13.92C51.3873 14.096 51.3913 14.296 51.3913 14.52C51.3913 14.672 51.3153 14.8 51.1633 14.904C51.0193 15.008 50.8673 15.06 50.7073 15.06C50.4753 15.06 50.3113 15.008 50.2153 14.904C50.1273 14.8 50.0833 14.636 50.0833 14.412L50.0953 12.252ZM57.5462 11.148C57.6102 11.26 57.6622 11.424 57.7022 11.64C57.7422 11.848 57.7622 12.036 57.7622 12.204C57.7622 12.516 57.6942 12.96 57.5582 13.536C57.0062 14.544 56.1902 15.048 55.1102 15.048C54.7102 15.048 54.3022 14.916 53.8862 14.652C53.4702 14.388 53.1822 14.084 53.0222 13.74C52.8062 13.052 52.6982 12.616 52.6982 12.432C52.6982 12.112 52.7662 11.772 52.9022 11.412C53.0462 11.052 53.2262 10.74 53.4422 10.476C53.5782 10.292 53.8222 10.136 54.1742 10.008C54.5262 9.872 54.8462 9.804 55.1342 9.804C55.6942 9.804 56.1702 9.912 56.5622 10.128C56.9542 10.336 57.2822 10.676 57.5462 11.148ZM56.5022 13.08C56.5422 12.976 56.5622 12.708 56.5622 12.276C56.5622 12.044 56.5182 11.816 56.4302 11.592C56.3502 11.368 56.2302 11.176 56.0702 11.016C56.0542 11 56.0102 10.976 55.9382 10.944C55.8662 10.904 55.7662 10.868 55.6382 10.836C55.5182 10.796 55.3782 10.776 55.2182 10.776C54.7702 10.776 54.4422 10.956 54.2342 11.316C54.0262 11.676 53.9222 12.084 53.9222 12.54C53.9222 12.62 53.9422 12.772 53.9822 12.996C54.0302 13.22 54.0702 13.36 54.1022 13.416C54.1262 13.472 54.1862 13.552 54.2822 13.656C54.3862 13.752 54.5102 13.84 54.6542 13.92C54.8062 13.992 54.9622 14.028 55.1222 14.028C55.4822 14.028 55.7702 13.944 55.9862 13.776C56.2022 13.6 56.3742 13.368 56.5022 13.08ZM64.4068 14.076C64.4468 14.092 64.5108 14.112 64.5988 14.136C64.6868 14.16 64.7508 14.184 64.7908 14.208C64.8308 14.232 64.8508 14.268 64.8508 14.316C64.8588 14.508 64.7868 14.668 64.6348 14.796C64.4908 14.916 64.3188 14.976 64.1188 14.976C63.8068 14.976 63.5628 14.892 63.3868 14.724C63.2108 14.556 63.0828 14.3 63.0028 13.956C62.9708 13.82 62.9548 13.632 62.9548 13.392C62.9548 13.256 62.9628 13.036 62.9788 12.732C62.9948 12.412 63.0028 12.156 63.0028 11.964C63.0028 11.62 62.9668 11.36 62.8948 11.184C62.8228 11 62.6508 10.908 62.3788 10.908C62.0988 10.908 61.8468 11.02 61.6228 11.244C61.4068 11.468 61.2228 11.804 61.0708 12.252C60.8628 12.876 60.7468 13.704 60.7228 14.736C60.7228 14.792 60.6628 14.86 60.5428 14.94C60.4308 15.012 60.2948 15.048 60.1348 15.048C59.8388 15.048 59.6548 14.892 59.5828 14.58L59.5708 14.376C59.5708 14.304 59.5788 14.22 59.5948 14.124C59.6908 13.564 59.7388 13.076 59.7388 12.66C59.7388 12.476 59.7348 12.332 59.7268 12.228L59.7148 11.664C59.7148 11.472 59.6668 11.288 59.5708 11.112C59.4748 10.928 59.3628 10.836 59.2348 10.836C59.1948 10.836 59.1388 10.852 59.0668 10.884C58.9948 10.908 58.9348 10.92 58.8868 10.92C58.8068 10.92 58.7188 10.88 58.6228 10.8C58.5348 10.72 58.4908 10.636 58.4908 10.548C58.4908 10.38 58.5468 10.244 58.6588 10.14C58.7788 10.044 58.8948 9.968 59.0068 9.912C59.1268 9.856 59.2628 9.828 59.4148 9.828C59.5428 9.828 59.6468 9.84 59.7268 9.864C59.8068 9.888 59.9148 9.94 60.0508 10.02C60.1308 10.06 60.2228 10.172 60.3268 10.356C60.4308 10.54 60.5108 10.8 60.5668 11.136C60.7268 10.84 60.9948 10.528 61.3708 10.2C61.6508 9.944 62.0548 9.816 62.5828 9.816C63.0628 9.816 63.4428 9.992 63.7228 10.344C64.0028 10.688 64.1428 11.164 64.1428 11.772C64.1428 11.892 64.1348 12.088 64.1188 12.36C64.0948 12.576 64.0828 12.804 64.0828 13.044C64.0828 13.604 64.1908 13.948 64.4068 14.076Z" fill="#2D3047"/>
<path d="M47.125 67.6264C46.625 67.7375 46.1878 67.6331 45.8133 67.3131C45.4378 66.9942 45.25 66.557 45.25 66.0014C45.25 65.6125 45.3822 65.2586 45.6467 64.9397C45.91 64.6197 46.2361 64.4042 46.625 64.2931C47.3194 64.1264 47.9933 63.9108 48.6467 63.6464C49.2989 63.3831 49.9306 63.057 50.5417 62.6681C50.9028 62.4458 51.2989 62.3558 51.73 62.3981C52.16 62.4392 52.5139 62.5986 52.7917 62.8764C53.1806 63.2653 53.3544 63.7097 53.3133 64.2097C53.2711 64.7097 53.0278 65.0986 52.5833 65.3764C51.7222 65.932 50.8406 66.3903 49.9383 66.7514C49.035 67.1125 48.0972 67.4042 47.125 67.6264ZM55.1667 60.5014C54.8889 60.2236 54.7289 59.8764 54.6867 59.4597C54.6456 59.0431 54.7361 58.6681 54.9583 58.3347C55.3194 57.7236 55.6389 57.0986 55.9167 56.4597C56.1944 55.8208 56.4167 55.1403 56.5833 54.4181C56.6944 54.0292 56.9167 53.6958 57.25 53.4181C57.5833 53.1403 57.9444 53.0014 58.3333 53.0014C58.8889 53.0014 59.3267 53.1958 59.6467 53.5847C59.9656 53.9736 60.0556 54.4181 59.9167 54.9181C59.6944 55.9181 59.3956 56.8697 59.02 57.7731C58.6456 58.6753 58.1806 59.5292 57.625 60.3347C57.3472 60.7514 56.9656 60.9803 56.48 61.0214C55.9933 61.0636 55.5556 60.8903 55.1667 60.5014ZM58.2917 49.6681C57.9028 49.6681 57.5489 49.5292 57.23 49.2514C56.91 48.9736 56.6944 48.6403 56.5833 48.2514C56.4167 47.5292 56.1944 46.8414 55.9167 46.1881C55.6389 45.5358 55.3194 44.9181 54.9583 44.3347C54.7361 44.0014 54.6456 43.6264 54.6867 43.2097C54.7289 42.7931 54.8889 42.4458 55.1667 42.1681C55.5556 41.7792 55.9933 41.5986 56.48 41.6264C56.9656 41.6542 57.3472 41.8764 57.625 42.2931C58.1806 43.0986 58.6528 43.9664 59.0417 44.8964C59.4306 45.8275 59.7361 46.7792 59.9583 47.7514C60.0694 48.2514 59.9583 48.6958 59.625 49.0847C59.2917 49.4736 58.8472 49.6681 58.2917 49.6681ZM40.0833 67.5847C36.2778 66.6958 33.1456 64.7514 30.6867 61.7514C28.2289 58.7514 27 55.2792 27 51.3347C27 47.3625 28.2222 43.8625 30.6667 40.8347C33.1111 37.807 36.2361 35.8764 40.0417 35.0431C40.5417 34.932 40.9794 35.0358 41.355 35.3547C41.7294 35.6747 41.9167 36.0986 41.9167 36.6264C41.9167 37.0153 41.7844 37.3692 41.52 37.6881C41.2567 38.0081 40.9306 38.2236 40.5417 38.3347C37.5694 39.057 35.125 40.6264 33.2083 43.0431C31.2917 45.4597 30.3333 48.2236 30.3333 51.3347C30.3333 54.4458 31.2917 57.1892 33.2083 59.5647C35.125 61.9392 37.5694 63.5153 40.5417 64.2931C40.9306 64.4042 41.2567 64.6264 41.52 64.9597C41.7844 65.2931 41.9167 65.6542 41.9167 66.0431C41.9167 66.5708 41.7361 66.9875 41.375 67.2931C41.0139 67.5986 40.5833 67.6958 40.0833 67.5847ZM50.6667 40.0431C50.0278 39.6542 49.375 39.3136 48.7083 39.0214C48.0417 38.7303 47.3611 38.5014 46.6667 38.3347C46.2778 38.2236 45.9444 38.0081 45.6667 37.6881C45.3889 37.3692 45.25 37.0153 45.25 36.6264C45.25 36.0986 45.4378 35.6747 45.8133 35.3547C46.1878 35.0358 46.625 34.932 47.125 35.0431C48.0972 35.2653 49.0417 35.557 49.9583 35.9181C50.875 36.2792 51.7639 36.7375 52.625 37.2931C53.0694 37.5708 53.3128 37.9597 53.355 38.4597C53.3961 38.9597 53.2222 39.4042 52.8333 39.7931C52.5556 40.0708 52.2156 40.2375 51.8133 40.2931C51.41 40.3486 51.0278 40.2653 50.6667 40.0431ZM43.625 59.0847C43.4028 59.0847 43.1944 59.0497 43 58.9797C42.8056 58.9108 42.625 58.807 42.4583 58.6681C40.625 56.9736 39.25 55.3903 38.3333 53.9181C37.4167 52.4458 36.9583 51.0847 36.9583 49.8347C36.9583 47.7514 37.6322 46.092 38.98 44.8564C40.3267 43.6197 41.875 43.0014 43.625 43.0014C45.375 43.0014 46.9239 43.6197 48.2717 44.8564C49.6183 46.092 50.2917 47.7514 50.2917 49.8347C50.2917 51.0847 49.8333 52.4458 48.9167 53.9181C48 55.3903 46.625 56.9736 44.7917 58.6681C44.625 58.807 44.4444 58.9108 44.25 58.9797C44.0556 59.0497 43.8472 59.0847 43.625 59.0847ZM43.625 51.3347C44.125 51.3347 44.5489 51.1614 44.8967 50.8147C45.2433 50.467 45.4167 50.0431 45.4167 49.5431C45.4167 49.0708 45.2433 48.6542 44.8967 48.2931C44.5489 47.932 44.125 47.7514 43.625 47.7514C43.125 47.7514 42.7011 47.932 42.3533 48.2931C42.0067 48.6542 41.8333 49.0708 41.8333 49.5431C41.8333 50.0431 42.0067 50.467 42.3533 50.8147C42.7011 51.1614 43.125 51.3347 43.625 51.3347Z" fill="#FDB623"/>
</svg>
