<svg width="86" height="92" viewBox="0 0 86 92" fill="none" xmlns="http://www.w3.org/2000/svg">
<rect x="1" y="11" width="84" height="80" rx="7" fill="#333333"/>
<rect x="1" y="11" width="84" height="80" rx="7" stroke="#FDB623" stroke-width="2"/>
<rect x="24" width="38" height="22" rx="4" fill="#FDB623"/>
<path d="M32.2863 8.004C32.2863 7.66 32.5383 7.488 33.0423 7.488C33.2583 7.488 33.6703 7.496 34.2783 7.512C34.9503 7.544 35.4583 7.56 35.8023 7.56C36.0823 7.56 36.4223 7.544 36.8223 7.512C37.0943 7.496 37.2663 7.488 37.3383 7.488C37.7783 7.504 38.1503 7.584 38.4543 7.728C38.5423 7.768 38.6143 7.816 38.6703 7.872C38.7263 7.928 38.7543 8.02 38.7543 8.148C38.7543 8.324 38.6983 8.476 38.5863 8.604C38.4743 8.724 38.3383 8.784 38.1783 8.784C38.0023 8.784 37.7463 8.76 37.4103 8.712C37.1143 8.656 36.8543 8.628 36.6303 8.628C36.4143 8.628 36.2503 8.632 36.1383 8.64C36.1143 8.904 36.1023 9.536 36.1023 10.536C36.1023 11.728 36.1383 12.936 36.2103 14.16L36.2343 14.508C36.2343 14.836 36.0463 15 35.6703 15C35.3743 15 35.1743 14.932 35.0703 14.796C34.9663 14.652 34.9143 14.436 34.9143 14.148C34.9143 13.58 34.8983 12.872 34.8663 12.024C34.8343 11.32 34.8183 10.82 34.8183 10.524C34.8183 10.324 34.8423 9.712 34.8903 8.688L33.4863 8.7C33.0383 8.7 32.7263 8.66 32.5503 8.58C32.3743 8.492 32.2863 8.3 32.2863 8.004ZM38.2373 12.456C38.2373 12.152 38.2933 11.848 38.4053 11.544C38.5173 11.232 38.6653 10.948 38.8493 10.692C39.0333 10.436 39.3253 10.228 39.7253 10.068C40.1253 9.9 40.4813 9.816 40.7933 9.816C41.1133 9.816 41.4373 9.86 41.7653 9.948C42.1013 10.036 42.3333 10.172 42.4613 10.356C42.7573 10.772 42.9053 11.18 42.9053 11.58C42.9053 11.796 42.8573 11.98 42.7613 12.132C42.6733 12.284 42.5453 12.448 42.3773 12.624C42.2413 12.768 42.0253 12.864 41.7293 12.912C41.4413 12.96 41.1533 12.984 40.8653 12.984C40.6813 12.984 40.4573 12.968 40.1933 12.936C39.9293 12.896 39.6733 12.848 39.4253 12.792C39.4413 12.952 39.4813 13.108 39.5453 13.26C39.6093 13.412 39.6853 13.528 39.7733 13.608C39.9333 13.76 40.0973 13.856 40.2653 13.896C40.4413 13.936 40.6653 13.956 40.9373 13.956C41.2253 13.956 41.4933 13.908 41.7413 13.812C41.9413 13.74 42.1053 13.704 42.2333 13.704C42.3853 13.704 42.5013 13.752 42.5813 13.848C42.6613 13.936 42.7013 14.052 42.7013 14.196C42.7013 14.396 42.5853 14.56 42.3533 14.688C42.1213 14.816 41.8533 14.912 41.5493 14.976C41.2533 15.032 41.0133 15.06 40.8293 15.06C40.4533 15.06 40.0893 14.992 39.7373 14.856C39.3853 14.72 39.0933 14.528 38.8613 14.28C38.6693 14.056 38.5173 13.788 38.4053 13.476C38.2933 13.156 38.2373 12.816 38.2373 12.456ZM40.8533 10.836C40.6773 10.836 40.5013 10.872 40.3253 10.944C40.1493 11.008 40.0053 11.1 39.8933 11.22C39.7493 11.372 39.6493 11.496 39.5933 11.592C39.5453 11.68 39.5133 11.804 39.4973 11.964C39.6973 12.028 40.1133 12.06 40.7453 12.06C41.0893 12.06 41.3533 12.008 41.5373 11.904C41.7293 11.8 41.8253 11.664 41.8253 11.496C41.8253 11.328 41.7213 11.176 41.5133 11.04C41.3053 10.904 41.0853 10.836 40.8533 10.836ZM48.108 9.708C48.268 9.708 48.392 9.748 48.48 9.828C48.576 9.9 48.624 9.992 48.624 10.104C48.624 10.184 48.608 10.268 48.576 10.356C48.552 10.436 48.524 10.52 48.492 10.608C48.308 11.04 47.92 11.644 47.328 12.42C47.936 13.204 48.428 13.708 48.804 13.932C48.836 13.948 48.896 13.976 48.984 14.016C49.072 14.056 49.14 14.104 49.188 14.16C49.244 14.216 49.272 14.28 49.272 14.352C49.272 14.528 49.204 14.672 49.068 14.784C48.94 14.888 48.784 14.94 48.6 14.94C48.288 14.94 47.948 14.768 47.58 14.424C47.212 14.072 46.9 13.704 46.644 13.32C46.46 13.6 46.248 13.88 46.008 14.16C45.776 14.432 45.56 14.664 45.36 14.856C45.28 14.944 45.184 15.012 45.072 15.06C44.968 15.108 44.864 15.132 44.76 15.132C44.616 15.132 44.488 15.1 44.376 15.036C44.264 14.972 44.208 14.86 44.208 14.7C44.208 14.66 44.236 14.596 44.292 14.508C44.348 14.412 44.38 14.356 44.388 14.34C44.484 14.172 44.612 14 44.772 13.824C44.932 13.64 45.032 13.524 45.072 13.476C45.168 13.356 45.272 13.24 45.384 13.128C45.448 13.056 45.544 12.944 45.672 12.792C45.8 12.64 45.888 12.52 45.936 12.432L45.516 11.856C45.316 11.624 45.144 11.44 45 11.304C44.856 11.16 44.74 11.088 44.652 11.088C44.524 11.088 44.404 11.124 44.292 11.196C44.196 11.26 44.1 11.292 44.004 11.292C43.9 11.292 43.82 11.268 43.764 11.22C43.708 11.164 43.68 11.104 43.68 11.04C43.68 10.768 43.788 10.536 44.004 10.344C44.22 10.144 44.492 10.044 44.82 10.044C45.132 10.044 45.408 10.152 45.648 10.368C45.896 10.576 46.14 10.856 46.38 11.208C46.412 11.24 46.448 11.292 46.488 11.364C46.528 11.436 46.568 11.496 46.608 11.544C46.696 11.416 46.856 11.168 47.088 10.8C47.336 10.36 47.484 10.108 47.532 10.044C47.7 9.82 47.892 9.708 48.108 9.708ZM49.9934 10.824C49.8814 10.808 49.7894 10.764 49.7174 10.692C49.6534 10.612 49.6214 10.516 49.6214 10.404C49.6214 10.26 49.6774 10.14 49.7894 10.044C49.8134 10.02 49.8534 10 49.9094 9.984C49.9654 9.96 50.0094 9.94 50.0414 9.924C50.2174 9.868 50.3294 9.824 50.3774 9.792C50.5614 9.68 50.6854 9.496 50.7494 9.24C50.8134 8.936 50.8534 8.728 50.8694 8.616C50.8854 8.44 50.9414 8.308 51.0374 8.22C51.1414 8.124 51.2694 8.076 51.4214 8.076C51.6214 8.076 51.7614 8.128 51.8414 8.232C51.9214 8.336 51.9614 8.528 51.9614 8.808C51.9614 9.176 51.8734 9.524 51.6974 9.852C51.8094 9.852 51.9934 9.844 52.2494 9.828C52.6334 9.812 52.9014 9.804 53.0534 9.804C53.1894 9.804 53.3054 9.84 53.4014 9.912C53.5054 9.976 53.5574 10.072 53.5574 10.2C53.5574 10.504 53.4174 10.684 53.1374 10.74C52.8814 10.812 52.4174 10.856 51.7454 10.872C51.6894 11.656 51.6614 12.276 51.6614 12.732C51.6614 13.012 51.6734 13.212 51.6974 13.332C51.7454 13.58 51.8254 13.764 51.9374 13.884C52.0574 13.996 52.2334 14.052 52.4654 14.052C52.5774 14.052 52.7454 14.024 52.9694 13.968C53.1054 13.928 53.2134 13.908 53.2934 13.908C53.3974 13.908 53.4774 13.944 53.5334 14.016C53.5894 14.088 53.6174 14.184 53.6174 14.304C53.6174 14.52 53.4774 14.7 53.1974 14.844C52.9174 14.98 52.5854 15.048 52.2014 15.048C51.9614 15.048 51.7254 14.992 51.4934 14.88C51.2614 14.76 51.0654 14.616 50.9054 14.448C50.8734 14.432 50.8254 14.344 50.7614 14.184C50.7054 14.024 50.6494 13.848 50.5934 13.656C50.5694 13.56 50.5574 13.328 50.5574 12.96C50.5574 12.608 50.5814 12 50.6294 11.136L50.6414 10.872C50.5854 10.872 50.4814 10.868 50.3294 10.86C50.1774 10.844 50.0654 10.832 49.9934 10.824Z" fill="#2D3047"/>
<path d="M41.6667 58V48H36.6667V44.6667H50V48H45V58H41.6667ZM25 69.6667V59.6667H28.3333V43H25V33H35V36.3333H51.6667V33H61.6667V43H58.3333V59.6667H61.6667V69.6667H51.6667V66.3333H35V69.6667H25ZM35 63H51.6667V59.6667H55V43H51.6667V39.6667H35V43H31.6667V59.6667H35V63ZM28.3333 39.6667H31.6667V36.3333H28.3333V39.6667ZM55 39.6667H58.3333V36.3333H55V39.6667ZM55 66.3333H58.3333V63H55V66.3333ZM28.3333 66.3333H31.6667V63H28.3333V66.3333Z" fill="#FDB623"/>
</svg>
