<svg width="86" height="92" viewBox="0 0 86 92" fill="none" xmlns="http://www.w3.org/2000/svg">
<rect x="1" y="11" width="84" height="80" rx="7" fill="#333333"/>
<rect x="1" y="11" width="84" height="80" rx="7" stroke="#FDB623" stroke-width="2"/>
<rect x="17" width="52" height="22" rx="4" fill="#FDB623"/>
<path d="M25.3371 8.004C25.3371 7.66 25.5891 7.488 26.0931 7.488C26.3091 7.488 26.7211 7.496 27.3291 7.512C28.0011 7.544 28.5091 7.56 28.8531 7.56C29.1331 7.56 29.4731 7.544 29.8731 7.512C30.1451 7.496 30.3171 7.488 30.3891 7.488C30.8291 7.504 31.2011 7.584 31.5051 7.728C31.5931 7.768 31.6651 7.816 31.7211 7.872C31.7771 7.928 31.8051 8.02 31.8051 8.148C31.8051 8.324 31.7491 8.476 31.6371 8.604C31.5251 8.724 31.3891 8.784 31.2291 8.784C31.0531 8.784 30.7971 8.76 30.4611 8.712C30.1651 8.656 29.9051 8.628 29.6811 8.628C29.4651 8.628 29.3011 8.632 29.1891 8.64C29.1651 8.904 29.1531 9.536 29.1531 10.536C29.1531 11.728 29.1891 12.936 29.2611 14.16L29.2851 14.508C29.2851 14.836 29.0971 15 28.7211 15C28.4251 15 28.2251 14.932 28.1211 14.796C28.0171 14.652 27.9651 14.436 27.9651 14.148C27.9651 13.58 27.9491 12.872 27.9171 12.024C27.8851 11.32 27.8691 10.82 27.8691 10.524C27.8691 10.324 27.8931 9.712 27.9411 8.688L26.5371 8.7C26.0891 8.7 25.7771 8.66 25.6011 8.58C25.4251 8.492 25.3371 8.3 25.3371 8.004ZM36.9749 12.144C37.0229 11.968 37.0749 11.728 37.1309 11.424C37.2109 11.064 37.2749 10.792 37.3229 10.608C37.3709 10.424 37.4349 10.268 37.5149 10.14C37.6029 9.996 37.6789 9.9 37.7429 9.852C37.8149 9.804 37.8909 9.78 37.9709 9.78C38.3869 9.78 38.5949 9.94 38.5949 10.26C38.5949 10.42 38.5309 10.72 38.4029 11.16C37.9789 12.44 37.6749 13.432 37.4909 14.136C37.4109 14.432 37.2909 14.66 37.1309 14.82C36.9709 14.972 36.7549 15.048 36.4829 15.048C36.3469 15.048 36.2069 14.984 36.0629 14.856C35.9269 14.72 35.8149 14.556 35.7269 14.364L35.5949 14.04C35.3709 13.472 35.2029 13.036 35.0909 12.732C34.9869 12.42 34.9189 12.14 34.8869 11.892L34.7789 12.276C34.5869 12.964 34.3869 13.604 34.1789 14.196C34.0749 14.5 33.9469 14.72 33.7949 14.856C33.6429 14.984 33.4469 15.048 33.2069 15.048C33.0629 15.048 32.9349 15.016 32.8229 14.952C32.7189 14.888 32.6189 14.78 32.5229 14.628C32.3949 14.42 32.2709 14.14 32.1509 13.788C32.0389 13.436 31.8749 12.888 31.6589 12.144C31.5549 11.824 31.4589 11.488 31.3709 11.136C31.2829 10.776 31.2389 10.524 31.2389 10.38C31.2389 10.212 31.2829 10.08 31.3709 9.984C31.4589 9.888 31.5869 9.84 31.7549 9.84C31.9709 9.84 32.1229 9.884 32.2109 9.972C32.2989 10.052 32.3789 10.176 32.4509 10.344C32.4909 10.632 32.5789 11.04 32.7149 11.568L32.9789 12.696C32.9949 12.784 33.0429 12.968 33.1229 13.248L33.2189 13.596C33.3949 13.22 33.5429 12.86 33.6629 12.516C33.7829 12.172 33.9149 11.748 34.0589 11.244C34.0669 11.212 34.1469 10.936 34.2989 10.416C34.4029 10.248 34.4949 10.124 34.5749 10.044C34.6549 9.956 34.7349 9.912 34.8149 9.912C34.9749 9.912 35.1109 9.964 35.2229 10.068C35.3429 10.164 35.4309 10.284 35.4869 10.428C35.5829 10.74 35.6669 11.024 35.7389 11.28C35.7709 11.384 35.8429 11.636 35.9549 12.036C36.0749 12.428 36.1829 12.76 36.2789 13.032C36.3749 13.304 36.4549 13.496 36.5189 13.608L36.9749 12.144ZM40.2109 7.296C40.4909 7.32 40.7349 7.396 40.9429 7.524C41.1509 7.644 41.2549 7.828 41.2549 8.076C41.2549 8.26 41.1669 8.408 40.9909 8.52C40.8229 8.624 40.6189 8.676 40.3789 8.676C40.1469 8.676 39.9869 8.616 39.8989 8.496C39.8109 8.376 39.7669 8.252 39.7669 8.124C39.7669 7.884 39.7909 7.684 39.8389 7.524C39.8949 7.364 40.0189 7.288 40.2109 7.296ZM41.1709 12.612V12.96C41.1709 13.272 41.1789 13.568 41.1949 13.848C41.2189 14.12 41.2469 14.396 41.2789 14.676C41.2709 14.756 41.2109 14.84 41.0989 14.928C40.9869 15.008 40.8869 15.048 40.7989 15.048C40.6469 15.048 40.4909 15.02 40.3309 14.964C40.1789 14.9 40.0869 14.824 40.0549 14.736C40.0069 14.48 39.9829 14.252 39.9829 14.052C39.9829 13.396 39.9629 12.66 39.9229 11.844C39.8909 11.124 39.8749 10.62 39.8749 10.332C39.8749 10.188 39.9469 10.064 40.0909 9.96C40.2349 9.856 40.3869 9.804 40.5469 9.804C40.7789 9.804 40.9389 9.856 41.0269 9.96C41.1229 10.064 41.1709 10.228 41.1709 10.452V12.612ZM48.5372 8.652C48.5372 8.964 48.5092 9.36 48.4532 9.84L49.6892 9.828C49.8252 9.828 49.9412 9.864 50.0372 9.936C50.1412 10 50.1932 10.092 50.1932 10.212C50.1932 10.524 50.0532 10.708 49.7732 10.764C49.6692 10.788 49.1892 10.812 48.3332 10.836C48.3012 11.284 48.2852 11.644 48.2852 11.916C48.2852 12.492 48.3212 12.964 48.3932 13.332C48.4412 13.588 48.5212 13.776 48.6332 13.896C48.7532 14.008 48.9292 14.064 49.1612 14.064C49.2972 14.064 49.4372 14.028 49.5812 13.956C49.6772 13.9 49.7652 13.872 49.8452 13.872C49.9572 13.872 50.0372 13.908 50.0852 13.98C50.1412 14.052 50.1692 14.148 50.1692 14.268C50.1692 14.492 50.0492 14.68 49.8092 14.832C49.5692 14.976 49.2612 15.048 48.8852 15.048C48.6532 15.048 48.4172 14.992 48.1772 14.88C47.9452 14.768 47.7492 14.628 47.5892 14.46C47.5652 14.436 47.5212 14.344 47.4572 14.184C47.3932 14.024 47.3372 13.852 47.2892 13.668C47.2092 13.292 47.1692 12.764 47.1692 12.084C47.1692 11.708 47.1892 11.292 47.2292 10.836L44.3492 10.884C44.3252 11.196 44.3132 11.54 44.3132 11.916C44.3132 12.492 44.3492 12.964 44.4212 13.332C44.4692 13.588 44.5492 13.776 44.6612 13.896C44.7812 14.008 44.9572 14.064 45.1892 14.064C45.3252 14.064 45.4652 14.028 45.6092 13.956C45.7052 13.9 45.7932 13.872 45.8732 13.872C45.9852 13.872 46.0652 13.908 46.1132 13.98C46.1692 14.052 46.1972 14.148 46.1972 14.268C46.1972 14.492 46.0772 14.68 45.8372 14.832C45.5972 14.976 45.2892 15.048 44.9132 15.048C44.6812 15.048 44.4452 14.992 44.2052 14.88C43.9732 14.768 43.7772 14.628 43.6172 14.46C43.5932 14.436 43.5492 14.344 43.4852 14.184C43.4212 14.024 43.3652 13.852 43.3172 13.668C43.2372 13.292 43.1972 12.764 43.1972 12.084C43.1972 11.788 43.2132 11.392 43.2452 10.896L42.6692 10.848C42.5572 10.832 42.4652 10.784 42.3932 10.704C42.3292 10.624 42.2972 10.528 42.2972 10.416C42.2972 10.36 42.3092 10.3 42.3332 10.236C42.3652 10.172 42.4092 10.116 42.4652 10.068C42.5692 9.964 42.8492 9.912 43.3052 9.912C43.3692 9.6 43.4012 9.284 43.4012 8.964C43.4012 8.844 43.3972 8.74 43.3892 8.652C43.3812 8.564 43.3772 8.496 43.3772 8.448C43.3772 8.272 43.4412 8.14 43.5692 8.052C43.7052 7.964 43.8572 7.92 44.0252 7.92C44.2332 7.92 44.3732 7.972 44.4452 8.076C44.5252 8.18 44.5652 8.372 44.5652 8.652C44.5652 9.084 44.5292 9.5 44.4572 9.9L44.9612 9.888C46.1132 9.864 46.9052 9.848 47.3372 9.84C47.3612 9.552 47.3732 9.26 47.3732 8.964C47.3732 8.844 47.3692 8.74 47.3612 8.652C47.3532 8.564 47.3492 8.496 47.3492 8.448C47.3492 8.272 47.4132 8.14 47.5412 8.052C47.6772 7.964 47.8292 7.92 47.9972 7.92C48.2052 7.92 48.3452 7.972 48.4172 8.076C48.4972 8.18 48.5372 8.372 48.5372 8.652ZM51.0922 12.252C51.0922 11.764 51.2002 11.36 51.4162 11.04C51.6322 10.712 51.9322 10.404 52.3162 10.116C52.4282 10.036 52.6162 9.968 52.8802 9.912C53.1442 9.848 53.3762 9.816 53.5762 9.816C53.8162 9.816 54.0682 9.868 54.3322 9.972C54.6042 10.068 54.8242 10.18 54.9922 10.308C55.2882 10.524 55.4922 10.776 55.6042 11.064C55.7162 11.344 55.7722 11.68 55.7722 12.072C55.7722 12.24 55.6762 12.404 55.4842 12.564C55.3002 12.716 55.1002 12.792 54.8842 12.792L54.4282 12.78C54.1962 12.78 53.8642 12.788 53.4322 12.804L53.1802 12.816C53.0042 12.832 52.8722 12.84 52.7842 12.84C52.6562 12.84 52.4802 12.824 52.2562 12.792C52.2882 13.168 52.4282 13.464 52.6762 13.68C52.9242 13.888 53.1922 13.992 53.4802 13.992C53.9842 13.992 54.3362 13.892 54.5362 13.692C54.7042 13.572 54.8162 13.496 54.8722 13.464C54.9282 13.432 55.0162 13.416 55.1362 13.416C55.2642 13.416 55.3762 13.476 55.4722 13.596C55.5682 13.716 55.6162 13.836 55.6162 13.956C55.6162 14.092 55.5322 14.232 55.3642 14.376C55.2042 14.512 54.9842 14.656 54.7042 14.808C54.5522 14.872 54.3442 14.928 54.0802 14.976C53.8162 15.024 53.5962 15.048 53.4202 15.048C53.1402 15.048 52.8282 14.968 52.4842 14.808C52.1402 14.64 51.8842 14.456 51.7162 14.256C51.5482 14.056 51.4002 13.772 51.2722 13.404C51.1522 13.036 51.0922 12.652 51.0922 12.252ZM53.4802 11.928C54.0482 11.928 54.4642 11.908 54.7282 11.868C54.7122 11.636 54.6402 11.448 54.5122 11.304C54.3842 11.152 54.2082 11.024 53.9842 10.92C53.9122 10.888 53.8482 10.864 53.7922 10.848C53.7362 10.832 53.6722 10.824 53.6002 10.824C53.2322 10.824 52.9202 10.924 52.6642 11.124C52.4162 11.324 52.2682 11.58 52.2202 11.892C52.6202 11.916 53.0402 11.928 53.4802 11.928ZM56.9555 10.788C56.7475 10.644 56.6435 10.492 56.6435 10.332C56.6435 10.22 56.6915 10.116 56.7875 10.02C56.8835 9.924 57.0275 9.876 57.2195 9.876C57.4435 9.876 57.6435 9.936 57.8195 10.056C58.0035 10.168 58.1315 10.332 58.2035 10.548C58.3875 10.332 58.5955 10.16 58.8275 10.032C59.0675 9.904 59.3115 9.84 59.5595 9.84C59.8555 9.84 60.1235 9.92 60.3635 10.08C60.6035 10.24 60.7235 10.456 60.7235 10.728C60.7235 10.88 60.6555 11.036 60.5195 11.196C60.3915 11.356 60.2595 11.436 60.1235 11.436C60.0515 11.436 59.9875 11.42 59.9315 11.388C59.8835 11.348 59.8235 11.292 59.7515 11.22C59.6715 11.14 59.6035 11.084 59.5475 11.052C59.4915 11.012 59.4275 10.992 59.3555 10.992C59.2275 10.992 59.1075 11.012 58.9955 11.052C58.8835 11.092 58.8075 11.14 58.7675 11.196C58.6395 11.396 58.5435 11.576 58.4795 11.736C58.4235 11.896 58.3955 12.068 58.3955 12.252C58.3955 12.388 58.3915 12.496 58.3835 12.576L58.3715 13.26C58.3715 13.364 58.3755 13.48 58.3835 13.608C58.3915 13.736 58.3995 13.832 58.4075 13.896C58.4315 14.112 58.4435 14.32 58.4435 14.52C58.4435 14.656 58.3915 14.776 58.2875 14.88C58.1835 14.984 58.0555 15.036 57.9035 15.036C57.6635 15.036 57.4875 14.992 57.3755 14.904C57.2635 14.808 57.2075 14.636 57.2075 14.388L57.1955 13.62C57.1875 13.468 57.1835 13.252 57.1835 12.972L57.1955 12.18C57.2115 11.796 57.2195 11.484 57.2195 11.244C57.2195 11.156 57.1995 11.076 57.1595 11.004C57.1275 10.932 57.0595 10.86 56.9555 10.788Z" fill="#2D3047"/>
<path d="M60.8667 40.3333C59.5833 40.9167 58.2 41.3 56.7667 41.4833C58.2333 40.6 59.3667 39.2 59.9 37.5167C58.5167 38.35 56.9833 38.9333 55.3667 39.2667C54.05 37.8333 52.2 37 50.1 37C46.1833 37 42.9833 40.2 42.9833 44.15C42.9833 44.7167 43.05 45.2667 43.1667 45.7833C37.2333 45.4833 31.95 42.6333 28.4333 38.3167C27.8167 39.3667 27.4667 40.6 27.4667 41.9C27.4667 44.3833 28.7167 46.5833 30.65 47.8333C29.4667 47.8333 28.3667 47.5 27.4 47V47.05C27.4 50.5167 29.8667 53.4167 33.1333 54.0667C32.0845 54.3537 30.9835 54.3936 29.9167 54.1833C30.3693 55.6041 31.2559 56.8473 32.4517 57.7382C33.6475 58.6291 35.0924 59.1228 36.5833 59.15C34.0561 61.1507 30.9233 62.2322 27.7 62.2167C27.1333 62.2167 26.5667 62.1833 26 62.1167C29.1667 64.15 32.9333 65.3333 36.9667 65.3333C50.1 65.3333 57.3167 54.4333 57.3167 44.9833C57.3167 44.6667 57.3167 44.3667 57.3 44.05C58.7 43.05 59.9 41.7833 60.8667 40.3333Z" fill="#FDB623"/>
</svg>
