<svg width="86" height="92" viewBox="0 0 86 92" fill="none" xmlns="http://www.w3.org/2000/svg">
<rect x="1" y="11" width="84" height="80" rx="7" fill="#333333"/>
<rect x="1" y="11" width="84" height="80" rx="7" stroke="#FDB623" stroke-width="2"/>
<rect x="14.5" width="57" height="22" rx="4" fill="#FDB623"/>
<path d="M31.4263 8.064C31.4743 7.896 31.5463 7.76 31.6423 7.656C31.7383 7.544 31.8423 7.488 31.9543 7.488C32.2263 7.488 32.4223 7.54 32.5423 7.644C32.6623 7.748 32.7223 7.928 32.7223 8.184C32.7223 8.256 32.6663 8.46 32.5543 8.796C32.3063 9.556 32.0343 10.496 31.7383 11.616C31.6663 11.872 31.6063 12.096 31.5583 12.288C31.5183 12.48 31.4823 12.64 31.4503 12.768C31.2583 13.592 31.0903 14.212 30.9463 14.628C30.8983 14.748 30.8143 14.844 30.6943 14.916C30.5743 14.98 30.4463 15.012 30.3103 15.012C30.1743 15.012 30.0383 14.984 29.9023 14.928C29.7743 14.864 29.6823 14.792 29.6263 14.712C29.3783 14.224 29.0703 13.56 28.7023 12.72C28.3423 11.872 28.0623 11.132 27.8623 10.5C27.3663 11.756 26.9223 12.968 26.5303 14.136C26.5063 14.208 26.4783 14.288 26.4463 14.376C26.4223 14.456 26.3943 14.54 26.3623 14.628C26.3063 14.748 26.2263 14.844 26.1223 14.916C26.0183 14.98 25.9023 15.012 25.7743 15.012C25.6303 15.012 25.4903 14.984 25.3543 14.928C25.2183 14.864 25.1263 14.792 25.0783 14.712C24.9743 14.536 24.8623 14.264 24.7423 13.896C24.6303 13.528 24.4783 13.012 24.2863 12.348L23.9863 11.328C23.7783 10.664 23.5983 9.984 23.4463 9.288C23.2943 8.592 23.2183 8.176 23.2183 8.04C23.2183 7.872 23.3023 7.74 23.4703 7.644C23.6383 7.54 23.8063 7.488 23.9743 7.488C24.0703 7.488 24.1703 7.52 24.2743 7.584C24.3783 7.64 24.4463 7.74 24.4783 7.884C24.7583 9.38 25.1703 11.116 25.7143 13.092C25.9223 12.596 26.1503 11.992 26.3983 11.28C26.6543 10.568 26.8983 9.876 27.1303 9.204L27.2503 8.844C27.2823 8.724 27.3623 8.632 27.4903 8.568C27.6263 8.496 27.7623 8.46 27.8983 8.46C28.0743 8.46 28.2183 8.504 28.3303 8.592C28.4423 8.68 28.5143 8.776 28.5463 8.88C28.5543 8.912 28.7143 9.388 29.0263 10.308C29.3383 11.228 29.7103 12.156 30.1423 13.092C30.3023 12.62 30.4943 11.864 30.7183 10.824L30.8983 10.032C31.1143 9.184 31.2903 8.528 31.4263 8.064ZM33.1338 12.456C33.1338 12.152 33.1898 11.848 33.3018 11.544C33.4138 11.232 33.5618 10.948 33.7458 10.692C33.9298 10.436 34.2218 10.228 34.6218 10.068C35.0218 9.9 35.3778 9.816 35.6898 9.816C36.0098 9.816 36.3338 9.86 36.6618 9.948C36.9978 10.036 37.2298 10.172 37.3578 10.356C37.6538 10.772 37.8018 11.18 37.8018 11.58C37.8018 11.796 37.7538 11.98 37.6578 12.132C37.5698 12.284 37.4418 12.448 37.2738 12.624C37.1378 12.768 36.9218 12.864 36.6258 12.912C36.3378 12.96 36.0498 12.984 35.7617 12.984C35.5778 12.984 35.3538 12.968 35.0898 12.936C34.8258 12.896 34.5698 12.848 34.3218 12.792C34.3378 12.952 34.3778 13.108 34.4418 13.26C34.5058 13.412 34.5818 13.528 34.6698 13.608C34.8298 13.76 34.9938 13.856 35.1618 13.896C35.3378 13.936 35.5618 13.956 35.8338 13.956C36.1218 13.956 36.3898 13.908 36.6378 13.812C36.8378 13.74 37.0018 13.704 37.1298 13.704C37.2818 13.704 37.3978 13.752 37.4778 13.848C37.5578 13.936 37.5978 14.052 37.5978 14.196C37.5978 14.396 37.4818 14.56 37.2498 14.688C37.0178 14.816 36.7498 14.912 36.4458 14.976C36.1498 15.032 35.9098 15.06 35.7258 15.06C35.3498 15.06 34.9858 14.992 34.6338 14.856C34.2818 14.72 33.9898 14.528 33.7578 14.28C33.5658 14.056 33.4138 13.788 33.3018 13.476C33.1898 13.156 33.1338 12.816 33.1338 12.456ZM35.7498 10.836C35.5738 10.836 35.3978 10.872 35.2218 10.944C35.0458 11.008 34.9018 11.1 34.7898 11.22C34.6458 11.372 34.5458 11.496 34.4898 11.592C34.4418 11.68 34.4098 11.804 34.3938 11.964C34.5938 12.028 35.0098 12.06 35.6418 12.06C35.9858 12.06 36.2498 12.008 36.4338 11.904C36.6258 11.8 36.7218 11.664 36.7218 11.496C36.7218 11.328 36.6178 11.176 36.4098 11.04C36.2018 10.904 35.9818 10.836 35.7498 10.836ZM39.2365 12.84C39.2365 12.392 39.2405 12.052 39.2485 11.82L39.2605 10.68C39.2605 10.216 39.2485 9.708 39.2245 9.156C39.2165 8.988 39.1885 8.756 39.1405 8.46C39.0765 8.012 39.0445 7.676 39.0445 7.452C39.0445 7.084 39.2285 6.9 39.5965 6.9C39.8285 6.9 39.9925 6.964 40.0885 7.092C40.1925 7.212 40.2645 7.404 40.3045 7.668C40.3845 8.22 40.4245 8.868 40.4245 9.612C40.4245 9.836 40.4165 10.172 40.4005 10.62C40.5525 10.38 40.7485 10.192 40.9885 10.056C41.2365 9.92 41.4805 9.852 41.7205 9.852C42.4165 9.852 43.0165 10.14 43.5205 10.716C43.6565 10.916 43.7765 11.156 43.8805 11.436C43.9925 11.708 44.0485 11.944 44.0485 12.144C44.0485 12.496 44.0085 12.82 43.9285 13.116C43.8565 13.412 43.7245 13.7 43.5325 13.98C43.3405 14.26 43.0965 14.488 42.8005 14.664C42.5125 14.84 42.1765 14.928 41.7925 14.928C41.4565 14.928 41.1525 14.86 40.8805 14.724C40.6165 14.588 40.4045 14.408 40.2445 14.184C40.2045 14.384 40.1165 14.584 39.9805 14.784C39.8445 14.976 39.6885 15.072 39.5125 15.072C39.3685 15.072 39.2485 15.036 39.1525 14.964C39.0565 14.884 39.0085 14.768 39.0085 14.616C39.0085 14.504 39.0325 14.364 39.0805 14.196C39.1285 13.964 39.1645 13.752 39.1885 13.56C39.2205 13.36 39.2365 13.12 39.2365 12.84ZM41.4925 13.932C41.8845 13.932 42.2125 13.796 42.4765 13.524C42.7405 13.244 42.8725 12.868 42.8725 12.396C42.8725 11.964 42.7565 11.592 42.5245 11.28C42.4445 11.176 42.3285 11.092 42.1765 11.028C42.0325 10.964 41.8885 10.932 41.7445 10.932C41.4085 10.932 41.1245 11.032 40.8925 11.232C40.6605 11.424 40.5285 11.692 40.4965 12.036C40.4645 12.5 40.4485 12.9 40.4485 13.236C40.5445 13.42 40.6885 13.584 40.8805 13.728C41.0805 13.864 41.2845 13.932 41.4925 13.932ZM48.5429 12.408C48.6069 12.448 48.7309 12.524 48.9149 12.636C49.1069 12.74 49.2349 12.864 49.2989 13.008C49.3629 13.152 49.3949 13.352 49.3949 13.608C49.3949 13.896 49.3109 14.152 49.1429 14.376C48.9749 14.592 48.7589 14.76 48.4949 14.88C48.3109 14.96 48.1109 15.008 47.8949 15.024C47.6869 15.04 47.4349 15.048 47.1389 15.048C46.9789 15.048 46.7709 15.024 46.5149 14.976C46.2669 14.928 46.0949 14.884 45.9989 14.844C45.7429 14.7 45.5269 14.532 45.3509 14.34C45.1749 14.148 45.0869 13.952 45.0869 13.752C45.0869 13.592 45.1389 13.464 45.2429 13.368C45.3469 13.272 45.4829 13.224 45.6509 13.224C45.7389 13.224 45.8229 13.248 45.9029 13.296C45.9909 13.336 46.0509 13.384 46.0829 13.44C46.1709 13.648 46.3189 13.804 46.5269 13.908C46.7349 14.012 46.9469 14.064 47.1629 14.064C47.9229 14.064 48.3029 13.928 48.3029 13.656C48.3029 13.584 48.2829 13.528 48.2429 13.488C48.2109 13.44 48.1629 13.392 48.0989 13.344C47.9949 13.272 47.8469 13.196 47.6549 13.116C47.4709 13.036 47.3069 12.976 47.1629 12.936C46.8349 12.864 46.5149 12.756 46.2029 12.612C45.9149 12.468 45.6789 12.28 45.4949 12.048C45.3109 11.808 45.2189 11.516 45.2189 11.172C45.2189 10.964 45.2949 10.76 45.4469 10.56C45.6069 10.352 45.7909 10.196 45.9989 10.092C46.1429 10.036 46.3789 9.976 46.7069 9.912C47.0349 9.848 47.2589 9.816 47.3789 9.816C47.5629 9.816 47.7629 9.836 47.9789 9.876C48.1949 9.908 48.3589 9.964 48.4709 10.044C48.6869 10.172 48.8629 10.308 48.9989 10.452C49.1349 10.588 49.2029 10.744 49.2029 10.92C49.2029 11.008 49.1829 11.104 49.1429 11.208C49.1029 11.304 49.0549 11.364 48.9989 11.388C48.8789 11.444 48.7389 11.472 48.5789 11.472C48.5069 11.472 48.4469 11.452 48.3989 11.412C48.3589 11.372 48.3029 11.308 48.2309 11.22C48.1429 11.084 48.0589 11.004 47.9789 10.98C47.8829 10.956 47.7429 10.928 47.5589 10.896C47.3749 10.856 47.2509 10.836 47.1869 10.836C46.9869 10.836 46.7949 10.876 46.6109 10.956C46.4349 11.036 46.3469 11.144 46.3469 11.28C46.3469 11.44 46.4789 11.576 46.7429 11.688C46.9109 11.768 47.0949 11.836 47.2949 11.892C47.5029 11.948 47.6309 11.984 47.6789 12C47.7909 12.024 47.9349 12.08 48.1109 12.168C48.2949 12.256 48.4389 12.336 48.5429 12.408ZM51.1386 7.296C51.4186 7.32 51.6626 7.396 51.8706 7.524C52.0786 7.644 52.1826 7.828 52.1826 8.076C52.1826 8.26 52.0946 8.408 51.9186 8.52C51.7506 8.624 51.5466 8.676 51.3066 8.676C51.0746 8.676 50.9146 8.616 50.8266 8.496C50.7386 8.376 50.6946 8.252 50.6946 8.124C50.6946 7.884 50.7186 7.684 50.7666 7.524C50.8226 7.364 50.9466 7.288 51.1386 7.296ZM52.0986 12.612V12.96C52.0986 13.272 52.1066 13.568 52.1226 13.848C52.1466 14.12 52.1746 14.396 52.2066 14.676C52.2066 14.772 52.1506 14.86 52.0386 14.94C51.9266 15.012 51.8226 15.048 51.7266 15.048C51.5746 15.048 51.4186 15.02 51.2586 14.964C51.1066 14.9 51.0146 14.824 50.9826 14.736C50.9346 14.48 50.9106 14.252 50.9106 14.052C50.9106 13.396 50.8906 12.66 50.8506 11.844C50.8186 11.124 50.8026 10.62 50.8026 10.332C50.8026 10.188 50.8746 10.064 51.0186 9.96C51.1626 9.856 51.3146 9.804 51.4746 9.804C51.7066 9.804 51.8666 9.856 51.9546 9.96C52.0506 10.064 52.0986 10.228 52.0986 10.452V12.612ZM53.6209 10.848C53.5089 10.832 53.4169 10.784 53.3449 10.704C53.2809 10.624 53.2489 10.528 53.2489 10.416C53.2489 10.36 53.2609 10.3 53.2849 10.236C53.3169 10.172 53.3609 10.116 53.4169 10.068C53.5209 9.98 53.6609 9.896 53.8369 9.816C54.0209 9.744 54.1529 9.656 54.2329 9.552C54.3129 9.448 54.3529 9.252 54.3529 8.964C54.3529 8.844 54.3449 8.74 54.3289 8.652C54.3209 8.564 54.3169 8.496 54.3169 8.448C54.3169 8.272 54.3809 8.14 54.5089 8.052C54.6369 7.964 54.7849 7.92 54.9529 7.92C55.1609 7.92 55.3009 7.972 55.3729 8.076C55.4529 8.18 55.4929 8.372 55.4929 8.652C55.4929 8.924 55.4809 9.16 55.4569 9.36C55.4329 9.552 55.3809 9.724 55.3009 9.876C55.4129 9.876 55.5969 9.868 55.8529 9.852C56.2049 9.836 56.4489 9.828 56.5849 9.828C56.7209 9.828 56.8409 9.864 56.9449 9.936C57.0489 10 57.1009 10.092 57.1009 10.212C57.1009 10.38 57.0649 10.504 56.9929 10.584C56.9209 10.664 56.8169 10.716 56.6809 10.74C56.3529 10.828 55.8889 10.88 55.2889 10.896C55.2729 11.208 55.2649 11.548 55.2649 11.916C55.2649 12.532 55.3009 13.004 55.3729 13.332C55.4209 13.588 55.5009 13.776 55.6129 13.896C55.7329 14.008 55.9089 14.064 56.1409 14.064C56.2609 14.064 56.3569 14.048 56.4289 14.016C56.5089 13.984 56.5529 13.964 56.5609 13.956C56.6569 13.9 56.7449 13.872 56.8249 13.872C56.9369 13.872 57.0169 13.908 57.0649 13.98C57.1209 14.052 57.1489 14.148 57.1489 14.268C57.1489 14.492 57.0289 14.68 56.7889 14.832C56.5489 14.976 56.2409 15.048 55.8649 15.048C55.4409 15.048 55.0809 14.924 54.7849 14.676C54.4969 14.42 54.3249 14.084 54.2689 13.668C54.1889 13.292 54.1489 12.764 54.1489 12.084C54.1489 11.788 54.1649 11.392 54.1969 10.896L53.6209 10.848ZM58.0127 12.288C58.0127 12 58.0647 11.732 58.1687 11.484C58.2727 11.228 58.4247 10.964 58.6247 10.692C58.8247 10.42 59.1007 10.208 59.4527 10.056C59.8047 9.896 60.1887 9.816 60.6047 9.816C60.9247 9.816 61.2327 9.884 61.5287 10.02C61.8327 10.148 62.1047 10.308 62.3447 10.5C62.3767 10.556 62.4327 10.66 62.5127 10.812C62.5927 10.956 62.6487 11.088 62.6807 11.208C62.7207 11.328 62.7407 11.452 62.7407 11.58C62.7407 12.116 62.5447 12.476 62.1527 12.66C61.7607 12.836 61.2647 12.924 60.6647 12.924C60.0647 12.924 59.5767 12.884 59.2007 12.804C59.2167 12.956 59.2567 13.108 59.3207 13.26C59.3847 13.412 59.4607 13.528 59.5487 13.608C59.7087 13.76 59.8647 13.86 60.0167 13.908C60.1767 13.948 60.3887 13.968 60.6527 13.968C61.0527 13.968 61.3647 13.892 61.5887 13.74C61.7967 13.604 61.9567 13.536 62.0687 13.536C62.2207 13.536 62.3367 13.584 62.4167 13.68C62.4967 13.768 62.5367 13.884 62.5367 14.028C62.5367 14.332 62.3407 14.58 61.9487 14.772C61.5647 14.964 61.1287 15.06 60.6407 15.06C60.2567 15.06 59.8767 14.992 59.5007 14.856C59.1247 14.72 58.8247 14.528 58.6007 14.28C58.4487 14.024 58.3127 13.712 58.1927 13.344C58.0727 12.976 58.0127 12.624 58.0127 12.288ZM60.6527 10.8C60.4767 10.8 60.2927 10.832 60.1007 10.896C59.9167 10.952 59.7727 11.04 59.6687 11.16C59.5407 11.296 59.4447 11.42 59.3807 11.532C59.3247 11.644 59.2887 11.784 59.2727 11.952C59.3607 11.952 59.4447 11.956 59.5247 11.964C59.6047 11.972 59.6807 11.98 59.7527 11.988C60.1047 12.02 60.3687 12.036 60.5447 12.036C60.8967 12.036 61.1647 11.984 61.3487 11.88C61.5407 11.776 61.6367 11.636 61.6367 11.46C61.6367 11.292 61.5287 11.14 61.3127 11.004C61.1047 10.868 60.8847 10.8 60.6527 10.8Z" fill="#2D3047"/>
<g clip-path="url(#clip0_12_63)">
<path d="M43 31C44.8359 31 46.6068 31.2344 48.3125 31.7031C50.0182 32.1719 51.6133 32.8424 53.0977 33.7148C54.582 34.5872 55.9297 35.6289 57.1406 36.8398C58.3516 38.0508 59.3932 39.4049 60.2656 40.9023C61.138 42.3997 61.8086 43.9948 62.2773 45.6875C62.7461 47.3802 62.987 49.151 63 51C63 52.8359 62.7656 54.6068 62.2969 56.3125C61.8281 58.0182 61.1576 59.6133 60.2852 61.0977C59.4128 62.582 58.3711 63.9297 57.1602 65.1406C55.9492 66.3516 54.5951 67.3932 53.0977 68.2656C51.6003 69.138 50.0052 69.8086 48.3125 70.2773C46.6198 70.7461 44.849 70.987 43 71C41.1641 71 39.3932 70.7656 37.6875 70.2969C35.9818 69.8281 34.3867 69.1576 32.9023 68.2852C31.418 67.4128 30.0703 66.3711 28.8594 65.1602C27.6484 63.9492 26.6068 62.5951 25.7344 61.0977C24.862 59.6003 24.1914 58.0117 23.7227 56.332C23.2539 54.6523 23.013 52.875 23 51C23 49.1641 23.2344 47.3932 23.7031 45.6875C24.1719 43.9818 24.8424 42.3867 25.7148 40.9023C26.5872 39.418 27.6289 38.0703 28.8398 36.8594C30.0508 35.6484 31.4049 34.6068 32.9023 33.7344C34.3997 32.862 35.9883 32.1914 37.668 31.7227C39.3477 31.2539 41.125 31.013 43 31ZM43 68.5C44.6016 68.5 46.1445 68.2917 47.6289 67.875C49.1133 67.4583 50.5065 66.8724 51.8086 66.1172C53.1107 65.362 54.2956 64.444 55.3633 63.3633C56.431 62.2826 57.3424 61.1042 58.0977 59.8281C58.8529 58.5521 59.4453 57.1589 59.875 55.6484C60.3047 54.138 60.513 52.5885 60.5 51C60.5 49.3984 60.2917 47.8555 59.875 46.3711C59.4583 44.8867 58.8724 43.4935 58.1172 42.1914C57.362 40.8893 56.444 39.7044 55.3633 38.6367C54.2826 37.569 53.1042 36.6576 51.8281 35.9023C50.5521 35.1471 49.1589 34.5547 47.6484 34.125C46.138 33.6953 44.5885 33.487 43 33.5C41.3984 33.5 39.8555 33.7083 38.3711 34.125C36.8867 34.5417 35.4935 35.1276 34.1914 35.8828C32.8893 36.638 31.7044 37.556 30.6367 38.6367C29.569 39.7174 28.6576 40.8958 27.9023 42.1719C27.1471 43.4479 26.5547 44.8411 26.125 46.3516C25.6953 47.862 25.487 49.4115 25.5 51C25.5 52.6016 25.7083 54.1445 26.125 55.6289C26.5417 57.1133 27.1276 58.5065 27.8828 59.8086C28.638 61.1107 29.556 62.2956 30.6367 63.3633C31.7174 64.431 32.8958 65.3424 34.1719 66.0977C35.4479 66.8529 36.8411 67.4453 38.3516 67.875C39.862 68.3047 41.4115 68.513 43 68.5ZM54.6602 51.3125L55.5977 48.5H57.0625L55.4023 53.5H53.9375L53 50.6875L52.0625 53.5H50.5977L48.9375 48.5H50.4023L51.3398 51.3125L52.2773 48.5H53.7227L54.6602 51.3125ZM45.5977 48.5H47.0625L45.4023 53.5H43.9375L43 50.6875L42.0625 53.5H40.5977L38.9375 48.5H40.4023L41.3398 51.3125L42.2773 48.5H43.7227L44.6602 51.3125L45.5977 48.5ZM35.5977 48.5H37.0625L35.4023 53.5H33.9375L33 50.6875L32.0625 53.5H30.5977L28.9375 48.5H30.4023L31.3398 51.3125L32.2773 48.5H33.7227L34.6602 51.3125L35.5977 48.5Z" fill="#FDB623"/>
</g>
<defs>
<clipPath id="clip0_12_63">
<rect width="40" height="40" fill="white" transform="translate(23 31)"/>
</clipPath>
</defs>
</svg>
