<svg width="86" height="92" viewBox="0 0 86 92" fill="none" xmlns="http://www.w3.org/2000/svg">
<rect x="1" y="11" width="84" height="80" rx="7" fill="#333333"/>
<rect x="1" y="11" width="84" height="80" rx="7" stroke="#FDB623" stroke-width="2"/>
<rect x="14" width="58" height="22" rx="4" fill="#FDB623"/>
<path d="M29.136 8.34C29.256 8.484 29.34 8.6 29.388 8.688C29.436 8.776 29.46 8.86 29.46 8.94C29.46 9.036 29.396 9.148 29.268 9.276C29.148 9.404 29.028 9.468 28.908 9.468C28.748 9.468 28.62 9.444 28.524 9.396C28.428 9.348 28.348 9.272 28.284 9.168C28.156 8.976 28 8.812 27.816 8.676C27.632 8.532 27.344 8.46 26.952 8.46C26.616 8.46 26.232 8.536 25.8 8.688C25.376 8.84 25.072 9.028 24.888 9.252C24.728 9.452 24.588 9.756 24.468 10.164C24.356 10.572 24.3 10.968 24.3 11.352C24.3 11.816 24.4 12.244 24.6 12.636C24.808 13.02 25.104 13.328 25.488 13.56C25.88 13.792 26.348 13.908 26.892 13.908C27.188 13.908 27.492 13.852 27.804 13.74C28.124 13.62 28.4 13.428 28.632 13.164H28.62C28.764 13.012 28.944 12.936 29.16 12.936C29.288 12.936 29.408 12.992 29.52 13.104C29.64 13.216 29.7 13.328 29.7 13.44C29.7 13.56 29.68 13.668 29.64 13.764C29.608 13.852 29.544 13.952 29.448 14.064C29.12 14.432 28.732 14.684 28.284 14.82C27.836 14.956 27.3 15.024 26.676 15.024C26.124 15.024 25.564 14.892 24.996 14.628C24.436 14.364 24.004 14.044 23.7 13.668C23.54 13.436 23.384 13.104 23.232 12.672C23.088 12.232 23.016 11.876 23.016 11.604C23.016 10.908 23.12 10.248 23.328 9.624C23.544 8.992 23.864 8.488 24.288 8.112C24.568 7.856 24.972 7.664 25.5 7.536C26.028 7.408 26.512 7.344 26.952 7.344C27.488 7.344 27.908 7.42 28.212 7.572C28.524 7.716 28.832 7.972 29.136 8.34ZM35.515 11.148C35.579 11.26 35.631 11.424 35.671 11.64C35.711 11.848 35.731 12.036 35.731 12.204C35.731 12.516 35.663 12.96 35.527 13.536C34.975 14.544 34.159 15.048 33.079 15.048C32.679 15.048 32.271 14.916 31.855 14.652C31.439 14.388 31.151 14.084 30.991 13.74C30.775 13.052 30.667 12.616 30.667 12.432C30.667 12.112 30.735 11.772 30.871 11.412C31.015 11.052 31.195 10.74 31.411 10.476C31.547 10.292 31.791 10.136 32.143 10.008C32.495 9.872 32.815 9.804 33.103 9.804C33.663 9.804 34.139 9.912 34.531 10.128C34.923 10.336 35.251 10.676 35.515 11.148ZM34.471 13.08C34.511 12.976 34.531 12.708 34.531 12.276C34.531 12.044 34.487 11.816 34.399 11.592C34.319 11.368 34.199 11.176 34.039 11.016C34.023 11 33.979 10.976 33.907 10.944C33.835 10.904 33.735 10.868 33.607 10.836C33.487 10.796 33.347 10.776 33.187 10.776C32.739 10.776 32.411 10.956 32.203 11.316C31.995 11.676 31.891 12.084 31.891 12.54C31.891 12.62 31.911 12.772 31.951 12.996C31.999 13.22 32.039 13.36 32.071 13.416C32.095 13.472 32.155 13.552 32.251 13.656C32.355 13.752 32.479 13.84 32.623 13.92C32.775 13.992 32.931 14.028 33.091 14.028C33.451 14.028 33.739 13.944 33.955 13.776C34.171 13.6 34.343 13.368 34.471 13.08ZM42.3756 14.076C42.4156 14.092 42.4796 14.112 42.5676 14.136C42.6556 14.16 42.7196 14.184 42.7596 14.208C42.7996 14.232 42.8196 14.268 42.8196 14.316C42.8276 14.508 42.7556 14.668 42.6036 14.796C42.4596 14.916 42.2876 14.976 42.0876 14.976C41.7756 14.976 41.5316 14.892 41.3556 14.724C41.1796 14.556 41.0516 14.3 40.9716 13.956C40.9396 13.82 40.9236 13.632 40.9236 13.392C40.9236 13.256 40.9316 13.036 40.9476 12.732C40.9636 12.412 40.9716 12.156 40.9716 11.964C40.9716 11.684 40.8916 11.44 40.7316 11.232C40.5796 11.016 40.3636 10.908 40.0836 10.908C39.9156 10.908 39.7396 10.96 39.5556 11.064C39.3716 11.16 39.2436 11.28 39.1716 11.424C39.0516 11.656 38.9676 11.908 38.9196 12.18C38.8316 12.66 38.7876 13.16 38.7876 13.68C38.7876 13.928 38.7916 14.12 38.7996 14.256C38.7996 14.288 38.7996 14.352 38.7996 14.448C38.8076 14.536 38.7996 14.62 38.7756 14.7C38.7596 14.772 38.7276 14.84 38.6796 14.904C38.6396 14.944 38.5756 14.976 38.4876 15C38.4076 15.032 38.3316 15.048 38.2596 15.048C38.1476 15.048 38.0076 15 37.8396 14.904C37.6716 14.808 37.5756 14.7 37.5516 14.58L37.5396 14.376C37.5396 14.304 37.5476 14.22 37.5636 14.124C37.6596 13.564 37.7076 13.076 37.7076 12.66C37.7076 12.476 37.7036 12.332 37.6956 12.228L37.6836 11.664C37.6836 11.472 37.6356 11.288 37.5396 11.112C37.4436 10.928 37.3316 10.836 37.2036 10.836C37.1636 10.836 37.1076 10.852 37.0356 10.884C36.9636 10.908 36.9036 10.92 36.8556 10.92C36.7756 10.92 36.6876 10.88 36.5916 10.8C36.5036 10.72 36.4596 10.636 36.4596 10.548C36.4596 10.38 36.5156 10.244 36.6276 10.14C36.7476 10.044 36.8636 9.968 36.9756 9.912C37.0956 9.856 37.2316 9.828 37.3836 9.828C37.5116 9.828 37.6156 9.84 37.6956 9.864C37.7756 9.888 37.8836 9.94 38.0196 10.02C38.0916 10.06 38.1756 10.148 38.2716 10.284C38.3676 10.42 38.4476 10.612 38.5116 10.86C38.7196 10.476 38.9756 10.208 39.2796 10.056C39.5916 9.896 39.9876 9.816 40.4676 9.816C40.6516 9.816 40.8476 9.876 41.0556 9.996C41.2716 10.116 41.4556 10.256 41.6076 10.416C41.7516 10.592 41.8716 10.812 41.9676 11.076C42.0636 11.332 42.1116 11.564 42.1116 11.772C42.1116 11.892 42.1036 12.088 42.0876 12.36C42.0636 12.576 42.0516 12.804 42.0516 13.044C42.0516 13.604 42.1596 13.948 42.3756 14.076ZM43.6887 10.824C43.5767 10.808 43.4847 10.764 43.4127 10.692C43.3487 10.612 43.3167 10.516 43.3167 10.404C43.3167 10.26 43.3727 10.14 43.4847 10.044C43.5087 10.02 43.5487 10 43.6047 9.984C43.6607 9.96 43.7047 9.94 43.7367 9.924C43.9127 9.868 44.0247 9.824 44.0727 9.792C44.2567 9.68 44.3807 9.496 44.4447 9.24C44.5087 8.936 44.5487 8.728 44.5647 8.616C44.5807 8.44 44.6367 8.308 44.7327 8.22C44.8367 8.124 44.9647 8.076 45.1167 8.076C45.3167 8.076 45.4567 8.128 45.5367 8.232C45.6167 8.336 45.6567 8.528 45.6567 8.808C45.6567 9.176 45.5687 9.524 45.3927 9.852C45.5047 9.852 45.6887 9.844 45.9447 9.828C46.3287 9.812 46.5967 9.804 46.7487 9.804C46.8847 9.804 47.0007 9.84 47.0967 9.912C47.2007 9.976 47.2527 10.072 47.2527 10.2C47.2527 10.504 47.1127 10.684 46.8327 10.74C46.5767 10.812 46.1127 10.856 45.4407 10.872C45.3847 11.656 45.3567 12.276 45.3567 12.732C45.3567 13.012 45.3687 13.212 45.3927 13.332C45.4407 13.58 45.5207 13.764 45.6327 13.884C45.7527 13.996 45.9287 14.052 46.1607 14.052C46.2727 14.052 46.4407 14.024 46.6647 13.968C46.8007 13.928 46.9087 13.908 46.9887 13.908C47.0927 13.908 47.1727 13.944 47.2287 14.016C47.2847 14.088 47.3127 14.184 47.3127 14.304C47.3127 14.52 47.1727 14.7 46.8927 14.844C46.6127 14.98 46.2807 15.048 45.8967 15.048C45.6567 15.048 45.4207 14.992 45.1887 14.88C44.9567 14.76 44.7607 14.616 44.6007 14.448C44.5687 14.432 44.5207 14.344 44.4567 14.184C44.4007 14.024 44.3447 13.848 44.2887 13.656C44.2647 13.56 44.2527 13.328 44.2527 12.96C44.2527 12.608 44.2767 12 44.3247 11.136L44.3367 10.872C44.2807 10.872 44.1767 10.868 44.0247 10.86C43.8727 10.844 43.7607 10.832 43.6887 10.824ZM52.737 15.048C52.465 15.048 52.257 15.008 52.113 14.928C51.969 14.84 51.813 14.68 51.645 14.448C51.437 14.632 51.125 14.78 50.709 14.892C50.301 15.004 49.949 15.06 49.653 15.06C49.165 15.06 48.769 14.928 48.465 14.664C48.169 14.392 48.021 13.996 48.021 13.476C48.021 13.252 48.081 13.048 48.201 12.864C48.329 12.672 48.493 12.504 48.693 12.36C48.917 12.208 49.181 12.088 49.485 12C49.797 11.912 50.081 11.868 50.337 11.868C50.769 11.868 51.153 11.908 51.489 11.988V11.976C51.489 11.544 51.381 11.248 51.165 11.088C50.957 10.92 50.621 10.836 50.157 10.836C49.861 10.836 49.605 10.968 49.389 11.232C49.309 11.336 49.141 11.388 48.885 11.388C48.757 11.388 48.661 11.336 48.597 11.232C48.541 11.12 48.513 11.008 48.513 10.896C48.513 10.664 48.609 10.464 48.801 10.296C49.001 10.128 49.241 10.004 49.521 9.924C49.801 9.836 50.061 9.792 50.301 9.792C50.533 9.792 50.809 9.84 51.129 9.936C51.449 10.032 51.709 10.16 51.909 10.32C52.149 10.528 52.333 10.772 52.461 11.052C52.597 11.324 52.665 11.624 52.665 11.952C52.665 12.056 52.657 12.212 52.641 12.42C52.625 12.66 52.617 12.856 52.617 13.008C52.617 13.08 52.609 13.172 52.593 13.284C52.577 13.428 52.569 13.548 52.569 13.644C52.569 13.748 52.601 13.848 52.665 13.944C52.729 14.04 52.817 14.12 52.929 14.184C53.033 14.24 53.101 14.3 53.133 14.364C53.165 14.428 53.181 14.5 53.181 14.58C53.181 14.66 53.129 14.76 53.025 14.88C52.929 14.992 52.833 15.048 52.737 15.048ZM50.337 12.756C50.025 12.756 49.749 12.816 49.509 12.936C49.269 13.056 49.149 13.268 49.149 13.572C49.149 13.724 49.201 13.852 49.305 13.956C49.417 14.06 49.537 14.112 49.665 14.112C50.009 14.112 50.297 14.076 50.529 14.004C50.761 13.932 51.041 13.8 51.369 13.608C51.409 13.48 51.433 13.3 51.441 13.068C51.441 12.98 51.445 12.912 51.453 12.864C51.021 12.792 50.649 12.756 50.337 12.756ZM58.3913 10.992C58.3913 11.16 58.3553 11.288 58.2833 11.376C58.2193 11.464 58.1113 11.508 57.9593 11.508C57.8473 11.508 57.7513 11.48 57.6713 11.424C57.5993 11.368 57.5033 11.272 57.3833 11.136C57.2873 11.032 57.1753 10.948 57.0473 10.884C56.9273 10.82 56.8193 10.788 56.7233 10.788C56.2353 10.788 55.8833 10.892 55.6673 11.1C55.5313 11.244 55.4193 11.436 55.3313 11.676C55.2433 11.908 55.1993 12.148 55.1993 12.396C55.1993 12.756 55.2513 13.044 55.3553 13.26C55.4593 13.476 55.6433 13.66 55.9073 13.812C56.0033 13.868 56.1393 13.916 56.3153 13.956C56.4913 13.988 56.6353 14.004 56.7473 14.004C56.8993 14.004 57.0593 13.964 57.2273 13.884C57.3953 13.796 57.5393 13.684 57.6593 13.548C57.8113 13.372 57.9953 13.284 58.2113 13.284C58.2993 13.284 58.3993 13.328 58.5113 13.416C58.6313 13.504 58.6913 13.608 58.6913 13.728C58.6913 13.968 58.5753 14.192 58.3433 14.4C58.1193 14.6 57.8433 14.76 57.5153 14.88C57.1873 14.992 56.8833 15.048 56.6033 15.048C56.1313 15.048 55.6913 14.94 55.2833 14.724C54.8833 14.508 54.5633 14.212 54.3233 13.836C54.0833 13.452 53.9633 13.02 53.9633 12.54C53.9633 12.124 54.0393 11.72 54.1913 11.328C54.3513 10.936 54.5633 10.616 54.8273 10.368C55.0433 10.168 55.3113 10.02 55.6313 9.924C55.9513 9.828 56.2873 9.78 56.6393 9.78C56.8873 9.78 57.1433 9.828 57.4073 9.924C57.6713 10.02 57.8833 10.148 58.0433 10.308C58.2753 10.54 58.3913 10.768 58.3913 10.992ZM59.7083 10.848C59.5963 10.832 59.5043 10.784 59.4323 10.704C59.3683 10.624 59.3363 10.528 59.3363 10.416C59.3363 10.36 59.3483 10.3 59.3723 10.236C59.4043 10.172 59.4483 10.116 59.5043 10.068C59.6083 9.964 59.8883 9.912 60.3443 9.912C60.4083 9.6 60.4403 9.284 60.4403 8.964C60.4403 8.844 60.4363 8.74 60.4283 8.652C60.4203 8.564 60.4163 8.496 60.4163 8.448C60.4163 8.272 60.4803 8.14 60.6083 8.052C60.7443 7.964 60.8963 7.92 61.0643 7.92C61.2723 7.92 61.4123 7.972 61.4843 8.076C61.5643 8.18 61.6043 8.372 61.6043 8.652C61.6043 9.068 61.5683 9.476 61.4963 9.876C61.6243 9.876 61.8003 9.868 62.0243 9.852C62.3283 9.836 62.5483 9.828 62.6843 9.828C62.8203 9.828 62.9363 9.864 63.0323 9.936C63.1363 10 63.1883 10.092 63.1883 10.212C63.1883 10.524 63.0483 10.708 62.7683 10.764C62.4723 10.836 62.0123 10.88 61.3883 10.896C61.3643 11.208 61.3523 11.548 61.3523 11.916C61.3523 12.492 61.3883 12.964 61.4603 13.332C61.5083 13.588 61.5883 13.776 61.7003 13.896C61.8203 14.008 61.9963 14.064 62.2283 14.064C62.3643 14.064 62.5043 14.028 62.6483 13.956C62.7443 13.9 62.8323 13.872 62.9123 13.872C63.0243 13.872 63.1043 13.908 63.1523 13.98C63.2083 14.052 63.2363 14.148 63.2363 14.268C63.2363 14.492 63.1163 14.68 62.8763 14.832C62.6363 14.976 62.3283 15.048 61.9523 15.048C61.7203 15.048 61.4843 14.992 61.2443 14.88C61.0123 14.768 60.8163 14.628 60.6563 14.46C60.6323 14.436 60.5883 14.344 60.5243 14.184C60.4603 14.024 60.4043 13.852 60.3563 13.668C60.2763 13.292 60.2363 12.764 60.2363 12.084C60.2363 11.788 60.2523 11.392 60.2843 10.896L59.7083 10.848Z" fill="#2D3047"/>
<path d="M54.6667 37.3333H53V34H49.6667V37.3333H36.3333V34H33V37.3333H31.3333C30.4493 37.3333 29.6014 37.6845 28.9763 38.3096C28.3512 38.9348 28 39.7826 28 40.6667V64C28 64.8841 28.3512 65.7319 28.9763 66.357C29.6014 66.9821 30.4493 67.3333 31.3333 67.3333H54.6667C56.5 67.3333 58 65.8333 58 64V40.6667C58 38.8333 56.5 37.3333 54.6667 37.3333ZM43 42.3333C45.7667 42.3333 48 44.5667 48 47.3333C48 50.1 45.7667 52.3333 43 52.3333C40.2333 52.3333 38 50.1 38 47.3333C38 44.5667 40.2333 42.3333 43 42.3333ZM53 62.3333H33V60.6667C33 57.3333 39.6667 55.5 43 55.5C46.3333 55.5 53 57.3333 53 60.6667V62.3333Z" fill="#FDB623"/>
</svg>
