<svg width="86" height="92" viewBox="0 0 86 92" fill="none" xmlns="http://www.w3.org/2000/svg">
<rect x="1" y="11" width="84" height="80" rx="7" fill="#333333"/>
<rect x="1" y="11" width="84" height="80" rx="7" stroke="#FDB623" stroke-width="2"/>
<rect x="9" width="68" height="22" rx="4" fill="#FDB623"/>
<path d="M17.5031 8.004C17.5031 7.66 17.7551 7.488 18.2591 7.488C18.4751 7.488 18.8871 7.496 19.4951 7.512C20.1671 7.544 20.6751 7.56 21.0191 7.56C21.2991 7.56 21.6391 7.544 22.0391 7.512C22.3111 7.496 22.4831 7.488 22.5551 7.488C22.9951 7.504 23.3671 7.584 23.6711 7.728C23.7591 7.768 23.8311 7.816 23.8871 7.872C23.9431 7.928 23.9711 8.02 23.9711 8.148C23.9711 8.324 23.9151 8.476 23.8031 8.604C23.6911 8.724 23.5551 8.784 23.3951 8.784C23.2191 8.784 22.9631 8.76 22.6271 8.712C22.3311 8.656 22.0711 8.628 21.8471 8.628C21.6311 8.628 21.4671 8.632 21.3551 8.64C21.3311 8.904 21.3191 9.536 21.3191 10.536C21.3191 11.728 21.3551 12.936 21.4271 14.16L21.4511 14.508C21.4511 14.836 21.2631 15 20.8871 15C20.5911 15 20.3911 14.932 20.2871 14.796C20.1831 14.652 20.1311 14.436 20.1311 14.148C20.1311 13.58 20.1151 12.872 20.0831 12.024C20.0511 11.32 20.0351 10.82 20.0351 10.524C20.0351 10.324 20.0591 9.712 20.1071 8.688L18.7031 8.7C18.2551 8.7 17.9431 8.66 17.7671 8.58C17.5911 8.492 17.5031 8.3 17.5031 8.004ZM23.4541 12.456C23.4541 12.152 23.5101 11.848 23.6221 11.544C23.7341 11.232 23.8821 10.948 24.0661 10.692C24.2501 10.436 24.5421 10.228 24.9421 10.068C25.3421 9.9 25.6981 9.816 26.0101 9.816C26.3301 9.816 26.6541 9.86 26.9821 9.948C27.3181 10.036 27.5501 10.172 27.6781 10.356C27.9741 10.772 28.1221 11.18 28.1221 11.58C28.1221 11.796 28.0741 11.98 27.9781 12.132C27.8901 12.284 27.7621 12.448 27.5941 12.624C27.4581 12.768 27.2421 12.864 26.9461 12.912C26.6581 12.96 26.3701 12.984 26.0821 12.984C25.8981 12.984 25.6741 12.968 25.4101 12.936C25.1461 12.896 24.8901 12.848 24.6421 12.792C24.6581 12.952 24.6981 13.108 24.7621 13.26C24.8261 13.412 24.9021 13.528 24.9901 13.608C25.1501 13.76 25.3141 13.856 25.4821 13.896C25.6581 13.936 25.8821 13.956 26.1541 13.956C26.4421 13.956 26.7101 13.908 26.9581 13.812C27.1581 13.74 27.3221 13.704 27.4501 13.704C27.6021 13.704 27.7181 13.752 27.7981 13.848C27.8781 13.936 27.9181 14.052 27.9181 14.196C27.9181 14.396 27.8021 14.56 27.5701 14.688C27.3381 14.816 27.0701 14.912 26.7661 14.976C26.4701 15.032 26.2301 15.06 26.0461 15.06C25.6701 15.06 25.3061 14.992 24.9541 14.856C24.6021 14.72 24.3101 14.528 24.0781 14.28C23.8861 14.056 23.7341 13.788 23.6221 13.476C23.5101 13.156 23.4541 12.816 23.4541 12.456ZM26.0701 10.836C25.8941 10.836 25.7181 10.872 25.5421 10.944C25.3661 11.008 25.2221 11.1 25.1101 11.22C24.9661 11.372 24.8661 11.496 24.8101 11.592C24.7621 11.68 24.7301 11.804 24.7141 11.964C24.9141 12.028 25.3301 12.06 25.9621 12.06C26.3061 12.06 26.5701 12.008 26.7541 11.904C26.9461 11.8 27.0421 11.664 27.0421 11.496C27.0421 11.328 26.9381 11.176 26.7301 11.04C26.5221 10.904 26.3021 10.836 26.0701 10.836ZM30.6128 13.14C30.6128 13.444 30.6568 13.68 30.7448 13.848C30.8408 14.008 30.9608 14.088 31.1048 14.088C31.1848 14.088 31.2608 14.084 31.3328 14.076C31.4048 14.06 31.4768 14.052 31.5488 14.052C31.6288 14.052 31.6968 14.092 31.7528 14.172C31.8168 14.252 31.8488 14.34 31.8488 14.436C31.8488 14.628 31.7568 14.78 31.5728 14.892C31.3968 14.996 31.1568 15.048 30.8528 15.048C30.6368 15.048 30.4168 14.984 30.1928 14.856C29.9768 14.72 29.7968 14.512 29.6528 14.232C29.5088 13.944 29.4368 13.588 29.4368 13.164C29.4368 12.252 29.4528 11.48 29.4848 10.848C29.5248 10.096 29.5448 9.148 29.5448 8.004C29.5448 7.644 29.5648 7.392 29.6048 7.248C29.6528 7.136 29.7288 7.052 29.8328 6.996C29.9448 6.932 30.0608 6.9 30.1808 6.9C30.3008 6.9 30.4048 6.92 30.4928 6.96C30.5888 7 30.6528 7.064 30.6848 7.152C30.7168 7.248 30.7368 7.344 30.7448 7.44C30.7608 7.528 30.7688 7.656 30.7688 7.824C30.7688 8.152 30.7568 8.468 30.7328 8.772C30.7168 9.14 30.7088 9.408 30.7088 9.576C30.6448 10.984 30.6128 12.172 30.6128 13.14ZM32.5473 12.252C32.5473 11.764 32.6553 11.36 32.8713 11.04C33.0873 10.712 33.3873 10.404 33.7713 10.116C33.8833 10.036 34.0713 9.968 34.3353 9.912C34.5993 9.848 34.8313 9.816 35.0312 9.816C35.2713 9.816 35.5233 9.868 35.7873 9.972C36.0593 10.068 36.2793 10.18 36.4473 10.308C36.7433 10.524 36.9473 10.776 37.0593 11.064C37.1713 11.344 37.2273 11.68 37.2273 12.072C37.2273 12.24 37.1313 12.404 36.9393 12.564C36.7553 12.716 36.5553 12.792 36.3393 12.792L35.8833 12.78C35.6513 12.78 35.3193 12.788 34.8873 12.804L34.6353 12.816C34.4593 12.832 34.3273 12.84 34.2393 12.84C34.1113 12.84 33.9353 12.824 33.7113 12.792C33.7433 13.168 33.8833 13.464 34.1313 13.68C34.3793 13.888 34.6473 13.992 34.9353 13.992C35.4393 13.992 35.7913 13.892 35.9913 13.692C36.1593 13.572 36.2713 13.496 36.3273 13.464C36.3833 13.432 36.4713 13.416 36.5913 13.416C36.7193 13.416 36.8313 13.476 36.9273 13.596C37.0233 13.716 37.0713 13.836 37.0713 13.956C37.0713 14.092 36.9873 14.232 36.8193 14.376C36.6593 14.512 36.4393 14.656 36.1593 14.808C36.0073 14.872 35.7993 14.928 35.5353 14.976C35.2713 15.024 35.0513 15.048 34.8753 15.048C34.5953 15.048 34.2833 14.968 33.9393 14.808C33.5953 14.64 33.3393 14.456 33.1713 14.256C33.0033 14.056 32.8553 13.772 32.7273 13.404C32.6073 13.036 32.5473 12.652 32.5473 12.252ZM34.9353 11.928C35.5033 11.928 35.9193 11.908 36.1833 11.868C36.1673 11.636 36.0953 11.448 35.9673 11.304C35.8393 11.152 35.6633 11.024 35.4393 10.92C35.3673 10.888 35.3033 10.864 35.2473 10.848C35.1913 10.832 35.1273 10.824 35.0553 10.824C34.6873 10.824 34.3753 10.924 34.1193 11.124C33.8713 11.324 33.7233 11.58 33.6753 11.892C34.0753 11.916 34.4953 11.928 34.9353 11.928ZM38.2306 10.908C38.1506 10.796 38.0946 10.7 38.0626 10.62C38.0306 10.54 38.0146 10.44 38.0146 10.32C38.0146 10.192 38.0666 10.084 38.1706 9.996C38.2826 9.908 38.4226 9.864 38.5906 9.864C38.7586 9.864 38.9266 9.928 39.0946 10.056C39.2626 10.176 39.3986 10.332 39.5026 10.524C39.6706 10.284 39.8986 10.112 40.1866 10.008C40.4746 9.904 40.7866 9.852 41.1226 9.852C41.4906 9.852 41.8306 9.964 42.1426 10.188C42.4626 10.412 42.7146 10.7 42.8986 11.052C43.0826 11.404 43.1746 11.756 43.1746 12.108C43.1746 12.452 43.1386 12.76 43.0666 13.032C42.9946 13.296 42.8666 13.564 42.6826 13.836C42.4746 14.124 42.1946 14.36 41.8426 14.544C41.4986 14.728 41.0866 14.82 40.6066 14.82C40.4786 14.82 40.3226 14.788 40.1386 14.724C39.9546 14.652 39.8026 14.576 39.6826 14.496C39.6266 15.04 39.5986 15.512 39.5986 15.912C39.5986 16.152 39.6106 16.38 39.6346 16.596C39.6506 16.852 39.6586 17.036 39.6586 17.148C39.6586 17.324 39.5986 17.452 39.4786 17.532C39.3586 17.62 39.2266 17.664 39.0826 17.664C38.7946 17.664 38.6026 17.584 38.5066 17.424C38.4186 17.272 38.3746 17.052 38.3746 16.764C38.4066 16.076 38.4466 15.44 38.4946 14.856C38.5506 14.016 38.5786 12.984 38.5786 11.76C38.5786 11.664 38.5386 11.524 38.4586 11.34C38.3866 11.156 38.3106 11.012 38.2306 10.908ZM39.7306 13.308C39.7706 13.46 39.8826 13.588 40.0666 13.692C40.2586 13.788 40.4306 13.836 40.5826 13.836C41.0386 13.836 41.3786 13.712 41.6026 13.464C41.7706 13.288 41.8786 13.116 41.9266 12.948C41.9826 12.78 42.0106 12.512 42.0106 12.144C42.0106 11.856 41.9546 11.616 41.8426 11.424C41.7306 11.224 41.5946 11.08 41.4346 10.992C41.2746 10.896 41.1226 10.848 40.9786 10.848C40.6506 10.848 40.3826 10.948 40.1746 11.148C39.9746 11.34 39.8466 11.604 39.7906 11.94C39.7506 12.204 39.7306 12.66 39.7306 13.308ZM45.7325 7.392C45.7325 7.6 45.7285 7.844 45.7205 8.124C45.7125 8.396 45.7045 8.604 45.6965 8.748C45.6725 9.156 45.6605 9.564 45.6605 9.972C45.6605 10.508 45.6725 10.94 45.6965 11.268C45.8805 10.812 46.1405 10.468 46.4765 10.236C46.8125 9.996 47.1965 9.876 47.6285 9.876C47.9245 9.876 48.2005 10.008 48.4565 10.272C48.7125 10.536 48.8765 10.844 48.9485 11.196C48.9565 11.236 48.9605 11.296 48.9605 11.376C48.9605 11.472 48.9525 11.624 48.9365 11.832C48.9125 12 48.9005 12.168 48.9005 12.336C48.9005 12.768 48.9165 13.104 48.9485 13.344C48.9805 13.576 49.0485 13.768 49.1525 13.92C49.2565 14.064 49.4205 14.18 49.6445 14.268C49.7325 14.3 49.7925 14.344 49.8245 14.4C49.8645 14.448 49.8845 14.524 49.8845 14.628C49.8845 14.772 49.8085 14.88 49.6565 14.952C49.5125 15.024 49.3725 15.06 49.2365 15.06C48.9565 15.06 48.7045 14.984 48.4805 14.832C48.2565 14.68 48.0885 14.48 47.9765 14.232C47.8965 14.064 47.8445 13.864 47.8205 13.632C47.7965 13.4 47.7845 13.128 47.7845 12.816L47.7965 11.772C47.7965 11.204 47.6125 10.92 47.2445 10.92C46.9805 10.92 46.7245 11.136 46.4765 11.568C46.2285 12 46.0285 12.508 45.8765 13.092C45.7245 13.676 45.6485 14.156 45.6485 14.532C45.6485 14.708 45.5925 14.84 45.4805 14.928C45.3765 15.008 45.2685 15.048 45.1565 15.048C44.9805 15.048 44.8205 14.996 44.6765 14.892C44.5325 14.78 44.4605 14.656 44.4605 14.52C44.5165 13.92 44.5445 12.916 44.5445 11.508C44.5445 11.252 44.5245 10.304 44.4845 8.664L44.4485 7.56C44.4485 7.384 44.5285 7.232 44.6885 7.104C44.8485 6.968 45.0285 6.9 45.2285 6.9C45.4045 6.9 45.5325 6.94 45.6125 7.02C45.6925 7.1 45.7325 7.224 45.7325 7.392ZM55.3953 11.148C55.4593 11.26 55.5113 11.424 55.5513 11.64C55.5913 11.848 55.6113 12.036 55.6113 12.204C55.6113 12.428 55.5753 12.708 55.5033 13.044C55.4313 13.372 55.3713 13.592 55.3233 13.704C54.8913 14.6 54.0593 15.048 52.8273 15.048C52.4353 15.048 52.0513 14.92 51.6753 14.664C51.2993 14.4 51.0313 14.092 50.8713 13.74L50.7873 13.5C50.7793 13.468 50.7353 13.348 50.6553 13.14C50.5833 12.924 50.5473 12.76 50.5473 12.648C50.5473 12.32 50.6273 11.94 50.7873 11.508C50.9473 11.076 51.1313 10.732 51.3393 10.476C51.4753 10.292 51.7353 10.136 52.1193 10.008C52.5033 9.872 52.8433 9.804 53.1393 9.804C53.6913 9.804 54.1353 9.908 54.4713 10.116C54.8153 10.324 55.1233 10.668 55.3953 11.148ZM54.2913 13.08C54.3233 13.024 54.3513 12.924 54.3753 12.78C54.3993 12.636 54.4113 12.468 54.4113 12.276C54.4113 12.044 54.3673 11.816 54.2793 11.592C54.1993 11.368 54.0793 11.176 53.9193 11.016C53.9113 11 53.8833 10.976 53.8353 10.944C53.7873 10.904 53.7113 10.868 53.6073 10.836C53.5033 10.796 53.3713 10.776 53.2113 10.776C52.8993 10.776 52.6353 10.868 52.4193 11.052C52.2033 11.236 52.0393 11.464 51.9273 11.736C51.8233 12.008 51.7713 12.276 51.7713 12.54C51.7713 12.612 51.7953 12.76 51.8433 12.984C51.8913 13.208 51.9273 13.352 51.9513 13.416C52.0153 13.528 52.1393 13.66 52.3233 13.812C52.5073 13.956 52.7153 14.028 52.9473 14.028C53.3073 14.028 53.5873 13.944 53.7873 13.776C53.9953 13.608 54.1633 13.376 54.2913 13.08ZM62.233 14.076C62.273 14.092 62.337 14.112 62.425 14.136C62.513 14.16 62.577 14.184 62.617 14.208C62.657 14.232 62.677 14.268 62.677 14.316C62.685 14.508 62.613 14.668 62.461 14.796C62.317 14.916 62.145 14.976 61.945 14.976C61.633 14.976 61.389 14.892 61.213 14.724C61.037 14.556 60.909 14.3 60.829 13.956C60.797 13.82 60.781 13.632 60.781 13.392C60.781 13.256 60.789 13.036 60.805 12.732C60.821 12.412 60.829 12.156 60.829 11.964C60.829 11.684 60.749 11.44 60.589 11.232C60.437 11.016 60.221 10.908 59.941 10.908C59.773 10.908 59.597 10.96 59.413 11.064C59.229 11.16 59.101 11.28 59.029 11.424C58.909 11.656 58.825 11.908 58.777 12.18C58.689 12.66 58.645 13.16 58.645 13.68C58.645 13.928 58.649 14.12 58.657 14.256C58.657 14.288 58.657 14.352 58.657 14.448C58.665 14.536 58.657 14.62 58.633 14.7C58.617 14.772 58.585 14.84 58.537 14.904C58.497 14.944 58.433 14.976 58.345 15C58.265 15.032 58.189 15.048 58.117 15.048C58.005 15.048 57.865 15 57.697 14.904C57.529 14.808 57.433 14.7 57.409 14.58L57.397 14.376C57.397 14.304 57.405 14.22 57.421 14.124C57.517 13.564 57.565 13.076 57.565 12.66C57.565 12.476 57.561 12.332 57.553 12.228L57.541 11.664C57.541 11.472 57.493 11.288 57.397 11.112C57.301 10.928 57.189 10.836 57.061 10.836C57.021 10.836 56.965 10.852 56.893 10.884C56.821 10.908 56.761 10.92 56.713 10.92C56.633 10.92 56.545 10.88 56.449 10.8C56.361 10.72 56.317 10.636 56.317 10.548C56.317 10.38 56.373 10.244 56.485 10.14C56.605 10.044 56.721 9.968 56.833 9.912C56.953 9.856 57.089 9.828 57.241 9.828C57.369 9.828 57.473 9.84 57.553 9.864C57.633 9.888 57.741 9.94 57.877 10.02C57.949 10.06 58.033 10.148 58.129 10.284C58.225 10.42 58.305 10.612 58.369 10.86C58.577 10.476 58.833 10.208 59.137 10.056C59.449 9.896 59.845 9.816 60.325 9.816C60.509 9.816 60.705 9.876 60.913 9.996C61.129 10.116 61.313 10.256 61.465 10.416C61.609 10.592 61.729 10.812 61.825 11.076C61.921 11.332 61.969 11.564 61.969 11.772C61.969 11.892 61.961 12.088 61.945 12.36C61.921 12.576 61.909 12.804 61.909 13.044C61.909 13.604 62.017 13.948 62.233 14.076ZM63.4502 12.456C63.4502 12.152 63.5062 11.848 63.6182 11.544C63.7302 11.232 63.8782 10.948 64.0622 10.692C64.2462 10.436 64.5382 10.228 64.9382 10.068C65.3382 9.9 65.6942 9.816 66.0062 9.816C66.3262 9.816 66.6502 9.86 66.9782 9.948C67.3142 10.036 67.5462 10.172 67.6742 10.356C67.9702 10.772 68.1182 11.18 68.1182 11.58C68.1182 11.796 68.0702 11.98 67.9742 12.132C67.8862 12.284 67.7582 12.448 67.5902 12.624C67.4542 12.768 67.2382 12.864 66.9422 12.912C66.6542 12.96 66.3662 12.984 66.0782 12.984C65.8942 12.984 65.6702 12.968 65.4062 12.936C65.1422 12.896 64.8862 12.848 64.6382 12.792C64.6542 12.952 64.6942 13.108 64.7582 13.26C64.8222 13.412 64.8982 13.528 64.9862 13.608C65.1462 13.76 65.3102 13.856 65.4782 13.896C65.6542 13.936 65.8782 13.956 66.1502 13.956C66.4382 13.956 66.7062 13.908 66.9542 13.812C67.1542 13.74 67.3182 13.704 67.4462 13.704C67.5982 13.704 67.7142 13.752 67.7942 13.848C67.8742 13.936 67.9142 14.052 67.9142 14.196C67.9142 14.396 67.7982 14.56 67.5662 14.688C67.3342 14.816 67.0662 14.912 66.7622 14.976C66.4662 15.032 66.2262 15.06 66.0422 15.06C65.6662 15.06 65.3022 14.992 64.9502 14.856C64.5982 14.72 64.3062 14.528 64.0742 14.28C63.8822 14.056 63.7302 13.788 63.6182 13.476C63.5062 13.156 63.4502 12.816 63.4502 12.456ZM66.0662 10.836C65.8902 10.836 65.7142 10.872 65.5382 10.944C65.3622 11.008 65.2182 11.1 65.1062 11.22C64.9622 11.372 64.8622 11.496 64.8062 11.592C64.7582 11.68 64.7262 11.804 64.7102 11.964C64.9102 12.028 65.3262 12.06 65.9582 12.06C66.3022 12.06 66.5662 12.008 66.7502 11.904C66.9422 11.8 67.0382 11.664 67.0382 11.496C67.0382 11.328 66.9342 11.176 66.7262 11.04C66.5182 10.904 66.2982 10.836 66.0662 10.836Z" fill="#2D3047"/>
<path d="M29.6667 36C29.2246 36 28.8007 36.1756 28.4882 36.4882C28.1756 36.8007 28 37.2246 28 37.6667C28 45.1811 30.9851 52.3878 36.2986 57.7014C41.6122 63.0149 48.8189 66 56.3333 66C56.7754 66 57.1993 65.8244 57.5118 65.5118C57.8244 65.1993 58 64.7754 58 64.3333V58.5C58 58.058 57.8244 57.634 57.5118 57.3215C57.1993 57.0089 56.7754 56.8333 56.3333 56.8333C54.25 56.8333 52.25 56.5 50.3833 55.8833C50.0903 55.79 49.7774 55.7779 49.478 55.8483C49.1787 55.9188 48.904 56.0691 48.6833 56.2833L45.0167 59.95C40.2853 57.5437 36.4396 53.698 34.0333 48.9667L37.7 45.2833C37.9207 45.0739 38.0772 44.8059 38.151 44.5107C38.2248 44.2155 38.2129 43.9053 38.1167 43.6167C37.4844 41.6968 37.1637 39.688 37.1667 37.6667C37.1667 37.2246 36.9911 36.8007 36.6785 36.4882C36.366 36.1756 35.942 36 35.5 36H29.6667ZM54.6667 49.3333V46.8333H48.8333L58 37.6667L56.3333 36L47.1667 45.1667V39.3333H44.6667V49.3333H54.6667Z" fill="#FDB623"/>
</svg>
