<svg width="86" height="92" viewBox="0 0 86 92" fill="none" xmlns="http://www.w3.org/2000/svg">
<rect x="1" y="11" width="84" height="80" rx="7" fill="#333333"/>
<rect x="1" y="11" width="84" height="80" rx="7" stroke="#FDB623" stroke-width="2"/>
<rect x="12" width="62" height="22" rx="4" fill="#FDB623"/>
<path d="M25.6869 10.944C26.2709 11.016 26.7029 11.204 26.9829 11.508C27.2709 11.804 27.4149 12.172 27.4149 12.612C27.4149 13.052 27.2509 13.468 26.9229 13.86C26.6029 14.252 26.1909 14.556 25.6869 14.772C25.4629 14.86 25.1669 14.924 24.7989 14.964C24.4389 15.004 24.0669 15.024 23.6829 15.024C23.0429 15.024 22.3869 14.964 21.7149 14.844C21.5949 14.82 21.4669 14.76 21.3309 14.664C21.2029 14.568 21.1389 14.428 21.1389 14.244C21.1309 13.508 21.1029 12.484 21.0549 11.172L21.0429 10.512C21.0109 9.488 20.9949 8.684 20.9949 8.1C20.9949 7.996 21.0549 7.876 21.1749 7.74C21.3029 7.596 21.4549 7.516 21.6309 7.5C21.7349 7.5 21.8349 7.496 21.9309 7.488C22.8349 7.4 23.4389 7.356 23.7429 7.356C24.3429 7.356 24.8709 7.416 25.3269 7.536C25.7909 7.648 26.1749 7.856 26.4789 8.16C26.5909 8.288 26.6829 8.452 26.7549 8.652C26.8269 8.844 26.8629 9.032 26.8629 9.216C26.8709 9.608 26.7669 9.968 26.5509 10.296C26.3429 10.624 26.0549 10.84 25.6869 10.944ZM23.8149 8.376C23.5429 8.376 23.2589 8.392 22.9629 8.424C22.6749 8.456 22.4309 8.496 22.2309 8.544L22.3029 10.812L22.7349 10.8C23.4309 10.728 23.9429 10.668 24.2709 10.62C24.4789 10.572 24.6829 10.48 24.8829 10.344C25.0829 10.2 25.2469 10.052 25.3749 9.9C25.5109 9.74 25.5789 9.62 25.5789 9.54C25.5789 9.42 25.5549 9.3 25.5069 9.18C25.4589 9.052 25.4069 8.96 25.3509 8.904C25.1349 8.696 24.9149 8.556 24.6909 8.484C24.4669 8.412 24.1749 8.376 23.8149 8.376ZM22.3389 13.968C22.7469 14.024 23.1349 14.052 23.5029 14.052C24.3109 14.052 24.9469 13.948 25.4109 13.74C25.8829 13.524 26.1189 13.116 26.1189 12.516C26.1189 12.276 25.9389 12.076 25.5789 11.916C25.2189 11.756 24.8309 11.676 24.4149 11.676C24.1349 11.676 23.7789 11.708 23.3469 11.772C23.0029 11.82 22.6669 11.852 22.3389 11.868C22.3549 12.348 22.3629 12.652 22.3629 12.78C22.3629 13.028 22.3589 13.216 22.3509 13.344L22.3389 13.968ZM28.2967 10.956C28.2327 10.956 28.1727 10.932 28.1167 10.884C28.0687 10.828 28.0447 10.764 28.0447 10.692C28.0447 10.508 28.1247 10.336 28.2847 10.176C28.3327 10.152 28.4287 10.112 28.5727 10.056C28.7167 10 28.8447 9.972 28.9567 9.972C29.2607 9.972 29.5087 10.056 29.7007 10.224C29.8927 10.384 29.9887 10.616 29.9887 10.92C29.9887 11.008 29.9727 11.196 29.9407 11.484C29.9087 11.82 29.8927 12.08 29.8927 12.264C29.8927 12.824 29.9687 13.276 30.1207 13.62C30.1767 13.732 30.2647 13.82 30.3847 13.884C30.5047 13.948 30.6127 13.98 30.7087 13.98C30.9407 13.98 31.1287 13.94 31.2727 13.86C31.4167 13.78 31.5727 13.652 31.7407 13.476C31.9087 13.3 32.0167 13.1 32.0647 12.876C32.1207 12.652 32.1607 12.344 32.1847 11.952C32.2007 11.696 32.2167 11.508 32.2327 11.388C32.2727 11.004 32.2927 10.676 32.2927 10.404C32.2927 10.228 32.3407 10.084 32.4367 9.972C32.5327 9.852 32.6647 9.792 32.8327 9.792C32.9287 9.792 33.0367 9.824 33.1567 9.888C33.2847 9.944 33.3687 10.012 33.4087 10.092C33.4567 10.172 33.4807 10.304 33.4807 10.488C33.4807 10.584 33.4687 10.676 33.4447 10.764C33.3887 10.964 33.3607 11.204 33.3607 11.484L33.3727 12.108C33.3727 12.676 33.4127 13.096 33.4927 13.368C33.5327 13.496 33.5887 13.628 33.6607 13.764C33.7327 13.892 33.8007 14 33.8647 14.088C34.0247 14.264 34.1287 14.388 34.1767 14.46C34.2247 14.524 34.2487 14.588 34.2487 14.652C34.2487 14.748 34.2007 14.84 34.1047 14.928C34.0167 15.008 33.9207 15.048 33.8167 15.048C33.5207 15.048 33.2647 14.948 33.0487 14.748C32.8327 14.548 32.6727 14.288 32.5687 13.968C32.2967 14.28 32.0447 14.532 31.8127 14.724C31.6527 14.836 31.4567 14.92 31.2247 14.976C30.9927 15.024 30.7607 15.048 30.5287 15.048C30.2167 15.048 29.9007 14.92 29.5807 14.664C29.2607 14.408 29.0447 14.112 28.9327 13.776C28.9247 13.76 28.9007 13.696 28.8607 13.584C28.8287 13.472 28.8127 13.304 28.8127 13.08C28.8127 12.784 28.8287 12.412 28.8607 11.964C28.8847 11.676 28.8967 11.412 28.8967 11.172C28.8967 11.1 28.8687 11.04 28.8127 10.992C28.7647 10.944 28.7087 10.92 28.6447 10.92C28.5967 10.92 28.5407 10.928 28.4767 10.944C28.4207 10.952 28.3607 10.956 28.2967 10.956ZM38.5175 12.3C38.5815 12.34 38.7055 12.416 38.8895 12.528C39.0815 12.632 39.2095 12.756 39.2735 12.9C39.3375 13.044 39.3695 13.244 39.3695 13.5C39.3695 13.788 39.2855 14.044 39.1175 14.268C38.9495 14.484 38.7335 14.652 38.4695 14.772C38.2775 14.86 38.0415 14.928 37.7615 14.976C37.4895 15.024 37.2735 15.048 37.1135 15.048C36.9535 15.048 36.7455 15.024 36.4895 14.976C36.2415 14.928 36.0695 14.884 35.9735 14.844C35.7255 14.7 35.5095 14.524 35.3255 14.316C35.1495 14.108 35.0615 13.896 35.0615 13.68C35.0615 13.52 35.1135 13.396 35.2175 13.308C35.3215 13.212 35.4575 13.164 35.6255 13.164C35.7055 13.164 35.7895 13.196 35.8775 13.26C35.9655 13.316 36.0255 13.376 36.0575 13.44C36.1455 13.648 36.2935 13.804 36.5015 13.908C36.7095 14.012 36.9215 14.064 37.1375 14.064C37.4175 14.064 37.6775 14.02 37.9175 13.932C38.1575 13.836 38.2775 13.708 38.2775 13.548C38.2775 13.476 38.2575 13.42 38.2175 13.38C38.1855 13.332 38.1375 13.284 38.0735 13.236C37.9615 13.156 37.7935 13.092 37.5695 13.044C37.3455 12.988 37.2015 12.952 37.1375 12.936C36.8095 12.864 36.4895 12.756 36.1775 12.612C35.8655 12.46 35.6175 12.28 35.4335 12.072C35.2495 11.864 35.1575 11.596 35.1575 11.268C35.1575 11.052 35.2375 10.828 35.3975 10.596C35.5575 10.356 35.7375 10.188 35.9375 10.092C36.0815 10.036 36.3215 9.976 36.6575 9.912C37.0015 9.848 37.2335 9.816 37.3535 9.816C37.5375 9.816 37.7375 9.836 37.9535 9.876C38.1695 9.908 38.3335 9.964 38.4455 10.044C38.6615 10.172 38.8375 10.308 38.9735 10.452C39.1095 10.588 39.1775 10.744 39.1775 10.92C39.1775 11.008 39.1575 11.104 39.1175 11.208C39.0775 11.304 39.0295 11.364 38.9735 11.388C38.8535 11.444 38.7135 11.472 38.5535 11.472C38.4815 11.472 38.4215 11.452 38.3735 11.412C38.3335 11.372 38.2775 11.308 38.2055 11.22C38.1175 11.084 38.0335 11.004 37.9535 10.98C37.8575 10.956 37.7175 10.928 37.5335 10.896C37.3495 10.856 37.2255 10.836 37.1615 10.836C36.9775 10.836 36.7855 10.888 36.5855 10.992C36.3935 11.096 36.2975 11.216 36.2975 11.352C36.2975 11.424 36.3255 11.48 36.3815 11.52C36.4455 11.56 36.5095 11.596 36.5735 11.628C36.6455 11.66 36.6935 11.68 36.7175 11.688C36.8855 11.768 37.0695 11.836 37.2695 11.892C37.4775 11.948 37.6055 11.984 37.6535 12C38.0855 12.104 38.3735 12.204 38.5175 12.3ZM41.1132 7.296C41.3932 7.32 41.6372 7.396 41.8452 7.524C42.0532 7.644 42.1572 7.828 42.1572 8.076C42.1572 8.26 42.0692 8.408 41.8932 8.52C41.7252 8.624 41.5212 8.676 41.2812 8.676C41.0492 8.676 40.8892 8.616 40.8012 8.496C40.7132 8.376 40.6692 8.252 40.6692 8.124C40.6692 7.884 40.6932 7.684 40.7412 7.524C40.7972 7.364 40.9212 7.288 41.1132 7.296ZM42.0732 12.612V12.96C42.0732 13.272 42.0812 13.568 42.0972 13.848C42.1212 14.12 42.1492 14.396 42.1812 14.676C42.1812 14.772 42.1252 14.86 42.0132 14.94C41.9012 15.012 41.7972 15.048 41.7012 15.048C41.5492 15.048 41.3932 15.02 41.2332 14.964C41.0812 14.9 40.9892 14.824 40.9572 14.736C40.9092 14.48 40.8852 14.252 40.8852 14.052C40.8852 13.396 40.8652 12.66 40.8252 11.844C40.7932 11.124 40.7772 10.62 40.7772 10.332C40.7772 10.188 40.8492 10.064 40.9932 9.96C41.1372 9.856 41.2892 9.804 41.4492 9.804C41.6812 9.804 41.8412 9.856 41.9292 9.96C42.0252 10.064 42.0732 10.228 42.0732 10.452V12.612ZM43.4755 10.776C43.4115 10.728 43.3595 10.68 43.3195 10.632C43.2795 10.576 43.2595 10.48 43.2595 10.344C43.2595 10.192 43.3115 10.076 43.4155 9.996C43.5275 9.908 43.6555 9.864 43.7995 9.864C44.0795 9.864 44.3195 9.936 44.5195 10.08C44.7275 10.224 44.8795 10.424 44.9755 10.68C45.1515 10.352 45.3755 10.128 45.6475 10.008C45.9195 9.88 46.2955 9.816 46.7755 9.816C46.9675 9.816 47.1635 9.876 47.3635 9.996C47.5715 10.108 47.7595 10.248 47.9275 10.416C48.0635 10.592 48.1795 10.812 48.2755 11.076C48.3715 11.332 48.4195 11.564 48.4195 11.772C48.4195 11.892 48.4115 12.088 48.3955 12.36C48.3795 12.648 48.3715 12.876 48.3715 13.044C48.3715 13.604 48.4795 13.948 48.6955 14.076C48.7275 14.092 48.7875 14.112 48.8755 14.136C48.9635 14.16 49.0275 14.184 49.0675 14.208C49.1155 14.232 49.1395 14.268 49.1395 14.316C49.1475 14.508 49.0755 14.668 48.9235 14.796C48.7795 14.916 48.6035 14.976 48.3955 14.976C48.0835 14.976 47.8395 14.892 47.6635 14.724C47.4875 14.556 47.3635 14.3 47.2915 13.956C47.2515 13.828 47.2315 13.64 47.2315 13.392C47.2315 13.256 47.2395 13.036 47.2555 12.732C47.2795 12.492 47.2915 12.236 47.2915 11.964C47.2915 11.684 47.2115 11.44 47.0515 11.232C46.8915 11.016 46.6715 10.908 46.3915 10.908C46.2235 10.908 46.0475 10.96 45.8635 11.064C45.6795 11.16 45.5515 11.28 45.4795 11.424C45.3595 11.672 45.2795 11.924 45.2395 12.18C45.1435 12.676 45.0955 13.152 45.0955 13.608C45.0955 13.72 45.1035 13.936 45.1195 14.256C45.1195 14.28 45.1195 14.34 45.1195 14.436C45.1195 14.524 45.1075 14.608 45.0835 14.688C45.0675 14.768 45.0355 14.84 44.9875 14.904C44.9555 14.936 44.8955 14.968 44.8075 15C44.7195 15.032 44.6435 15.048 44.5795 15.048C44.4675 15.048 44.3275 15 44.1595 14.904C43.9915 14.808 43.8915 14.7 43.8595 14.58L43.8475 14.412C43.8475 14.348 43.8555 14.252 43.8715 14.124C43.9675 13.564 44.0155 13.076 44.0155 12.66C44.0155 12.476 44.0115 12.336 44.0035 12.24L43.9915 11.688C43.9915 11.52 43.9435 11.36 43.8475 11.208C43.7515 11.048 43.6275 10.904 43.4755 10.776ZM49.874 12.288C49.874 12 49.926 11.732 50.03 11.484C50.134 11.228 50.286 10.964 50.486 10.692C50.686 10.42 50.962 10.208 51.314 10.056C51.666 9.896 52.05 9.816 52.466 9.816C52.786 9.816 53.094 9.884 53.39 10.02C53.694 10.148 53.966 10.308 54.206 10.5C54.238 10.556 54.294 10.66 54.374 10.812C54.454 10.956 54.51 11.088 54.542 11.208C54.582 11.328 54.602 11.452 54.602 11.58C54.602 12.116 54.406 12.476 54.014 12.66C53.622 12.836 53.126 12.924 52.526 12.924C51.926 12.924 51.438 12.884 51.062 12.804C51.078 12.956 51.118 13.108 51.182 13.26C51.246 13.412 51.322 13.528 51.41 13.608C51.57 13.76 51.726 13.86 51.878 13.908C52.038 13.948 52.25 13.968 52.514 13.968C52.914 13.968 53.226 13.892 53.45 13.74C53.658 13.604 53.818 13.536 53.93 13.536C54.082 13.536 54.198 13.584 54.278 13.68C54.358 13.768 54.398 13.884 54.398 14.028C54.398 14.332 54.202 14.58 53.81 14.772C53.426 14.964 52.99 15.06 52.502 15.06C52.118 15.06 51.738 14.992 51.362 14.856C50.986 14.72 50.686 14.528 50.462 14.28C50.31 14.024 50.174 13.712 50.054 13.344C49.934 12.976 49.874 12.624 49.874 12.288ZM52.514 10.8C52.338 10.8 52.154 10.832 51.962 10.896C51.778 10.952 51.634 11.04 51.53 11.16C51.402 11.296 51.306 11.42 51.242 11.532C51.186 11.644 51.15 11.784 51.134 11.952C51.222 11.952 51.306 11.956 51.386 11.964C51.466 11.972 51.542 11.98 51.614 11.988C51.966 12.02 52.23 12.036 52.406 12.036C52.758 12.036 53.026 11.984 53.21 11.88C53.402 11.776 53.498 11.636 53.498 11.46C53.498 11.292 53.39 11.14 53.174 11.004C52.966 10.868 52.746 10.8 52.514 10.8ZM59.167 12.252C59.487 12.436 59.711 12.62 59.839 12.804C59.967 12.98 60.031 13.212 60.031 13.5C60.031 13.788 59.947 14.044 59.779 14.268C59.611 14.484 59.395 14.652 59.131 14.772C58.939 14.86 58.699 14.928 58.411 14.976C58.131 15.024 57.911 15.048 57.751 15.048C57.471 15.048 57.167 14.996 56.839 14.892C56.511 14.788 56.231 14.64 55.999 14.448C55.775 14.256 55.663 14.032 55.663 13.776C55.663 13.616 55.715 13.492 55.819 13.404C55.923 13.308 56.059 13.26 56.227 13.26C56.363 13.26 56.507 13.356 56.659 13.548C56.811 13.716 56.987 13.844 57.187 13.932C57.395 14.02 57.599 14.064 57.799 14.064C58.559 14.064 58.939 13.892 58.939 13.548C58.939 13.476 58.915 13.408 58.867 13.344C58.819 13.272 58.775 13.224 58.735 13.2C58.663 13.144 58.563 13.096 58.435 13.056C58.307 13.016 58.179 12.984 58.051 12.96C57.923 12.928 57.827 12.904 57.763 12.888C57.699 12.872 57.563 12.844 57.355 12.804C57.155 12.764 56.963 12.696 56.779 12.6C56.475 12.456 56.227 12.28 56.035 12.072C55.851 11.864 55.759 11.596 55.759 11.268C55.759 11.084 55.803 10.9 55.891 10.716C55.987 10.524 56.115 10.38 56.275 10.284C56.515 10.132 56.779 10.016 57.067 9.936C57.355 9.856 57.623 9.816 57.871 9.816C58.071 9.816 58.295 9.836 58.543 9.876C58.799 9.916 58.983 9.972 59.095 10.044C59.303 10.156 59.455 10.272 59.551 10.392C59.647 10.512 59.695 10.664 59.695 10.848C59.695 10.936 59.675 11.024 59.635 11.112C59.595 11.192 59.547 11.248 59.491 11.28C59.363 11.328 59.251 11.352 59.155 11.352C59.083 11.352 59.023 11.34 58.975 11.316C58.927 11.284 58.883 11.252 58.843 11.22C58.811 11.188 58.791 11.168 58.783 11.16C58.679 11.048 58.563 10.96 58.435 10.896C58.307 10.832 58.119 10.8 57.871 10.8C57.711 10.8 57.555 10.824 57.403 10.872C57.259 10.912 57.147 10.964 57.067 11.028C57.003 11.076 56.959 11.12 56.935 11.16C56.911 11.192 56.899 11.236 56.899 11.292C56.899 11.516 57.123 11.68 57.571 11.784C58.027 11.888 58.267 11.944 58.291 11.952C58.339 11.968 58.471 12.008 58.687 12.072C58.911 12.136 59.071 12.196 59.167 12.252ZM64.5214 12.3C64.5854 12.34 64.7094 12.416 64.8934 12.528C65.0854 12.632 65.2134 12.756 65.2774 12.9C65.3414 13.044 65.3734 13.244 65.3734 13.5C65.3734 13.788 65.2894 14.044 65.1214 14.268C64.9534 14.484 64.7374 14.652 64.4734 14.772C64.2814 14.86 64.0454 14.928 63.7654 14.976C63.4934 15.024 63.2774 15.048 63.1174 15.048C62.9574 15.048 62.7494 15.024 62.4934 14.976C62.2454 14.928 62.0734 14.884 61.9774 14.844C61.7294 14.7 61.5134 14.524 61.3294 14.316C61.1534 14.108 61.0654 13.896 61.0654 13.68C61.0654 13.52 61.1174 13.396 61.2214 13.308C61.3254 13.212 61.4614 13.164 61.6294 13.164C61.7094 13.164 61.7934 13.196 61.8814 13.26C61.9694 13.316 62.0294 13.376 62.0614 13.44C62.1494 13.648 62.2974 13.804 62.5054 13.908C62.7134 14.012 62.9254 14.064 63.1414 14.064C63.4214 14.064 63.6814 14.02 63.9214 13.932C64.1614 13.836 64.2814 13.708 64.2814 13.548C64.2814 13.476 64.2614 13.42 64.2214 13.38C64.1894 13.332 64.1414 13.284 64.0774 13.236C63.9654 13.156 63.7974 13.092 63.5734 13.044C63.3494 12.988 63.2054 12.952 63.1414 12.936C62.8134 12.864 62.4934 12.756 62.1814 12.612C61.8694 12.46 61.6214 12.28 61.4374 12.072C61.2534 11.864 61.1614 11.596 61.1614 11.268C61.1614 11.052 61.2414 10.828 61.4014 10.596C61.5614 10.356 61.7414 10.188 61.9414 10.092C62.0854 10.036 62.3254 9.976 62.6614 9.912C63.0054 9.848 63.2374 9.816 63.3574 9.816C63.5414 9.816 63.7414 9.836 63.9574 9.876C64.1734 9.908 64.3374 9.964 64.4494 10.044C64.6654 10.172 64.8414 10.308 64.9774 10.452C65.1134 10.588 65.1814 10.744 65.1814 10.92C65.1814 11.008 65.1614 11.104 65.1214 11.208C65.0814 11.304 65.0334 11.364 64.9774 11.388C64.8574 11.444 64.7174 11.472 64.5574 11.472C64.4854 11.472 64.4254 11.452 64.3774 11.412C64.3374 11.372 64.2814 11.308 64.2094 11.22C64.1214 11.084 64.0374 11.004 63.9574 10.98C63.8614 10.956 63.7214 10.928 63.5374 10.896C63.3534 10.856 63.2294 10.836 63.1654 10.836C62.9814 10.836 62.7894 10.888 62.5894 10.992C62.3974 11.096 62.3014 11.216 62.3014 11.352C62.3014 11.424 62.3294 11.48 62.3854 11.52C62.4494 11.56 62.5134 11.596 62.5774 11.628C62.6494 11.66 62.6974 11.68 62.7214 11.688C62.8894 11.768 63.0734 11.836 63.2734 11.892C63.4814 11.948 63.6094 11.984 63.6574 12C64.0894 12.104 64.3774 12.204 64.5214 12.3Z" fill="#2D3047"/>
<path d="M42.6667 42.6667V36H26V66H59.3333V42.6667H42.6667ZM32.6667 62.6667H29.3333V59.3333H32.6667V62.6667ZM32.6667 56H29.3333V52.6667H32.6667V56ZM32.6667 49.3333H29.3333V46H32.6667V49.3333ZM32.6667 42.6667H29.3333V39.3333H32.6667V42.6667ZM39.3333 62.6667H36V59.3333H39.3333V62.6667ZM39.3333 56H36V52.6667H39.3333V56ZM39.3333 49.3333H36V46H39.3333V49.3333ZM39.3333 42.6667H36V39.3333H39.3333V42.6667ZM56 62.6667H42.6667V59.3333H46V56H42.6667V52.6667H46V49.3333H42.6667V46H56V62.6667ZM52.6667 49.3333H49.3333V52.6667H52.6667V49.3333ZM52.6667 56H49.3333V59.3333H52.6667V56Z" fill="#FDB623"/>
</svg>
