<svg width="86" height="92" viewBox="0 0 86 92" fill="none" xmlns="http://www.w3.org/2000/svg">
<rect x="1" y="11" width="84" height="80" rx="7" fill="#333333"/>
<rect x="1" y="11" width="84" height="80" rx="7" stroke="#FDB623" stroke-width="2"/>
<rect x="21" width="44" height="22" rx="4" fill="#FDB623"/>
<path d="M37.9712 8.064C38.0192 7.896 38.0912 7.76 38.1872 7.656C38.2832 7.544 38.3872 7.488 38.4992 7.488C38.7712 7.488 38.9672 7.54 39.0872 7.644C39.2072 7.748 39.2672 7.928 39.2672 8.184C39.2672 8.256 39.2112 8.46 39.0992 8.796C38.8512 9.556 38.5792 10.496 38.2832 11.616C38.2112 11.872 38.1512 12.096 38.1032 12.288C38.0632 12.48 38.0272 12.64 37.9952 12.768C37.8032 13.592 37.6352 14.212 37.4912 14.628C37.4432 14.748 37.3592 14.844 37.2392 14.916C37.1192 14.98 36.9912 15.012 36.8552 15.012C36.7192 15.012 36.5832 14.984 36.4472 14.928C36.3192 14.864 36.2272 14.792 36.1712 14.712C35.9232 14.224 35.6152 13.56 35.2472 12.72C34.8872 11.872 34.6072 11.132 34.4072 10.5C33.9112 11.756 33.4672 12.968 33.0752 14.136C33.0512 14.208 33.0232 14.288 32.9912 14.376C32.9672 14.456 32.9392 14.54 32.9072 14.628C32.8512 14.748 32.7712 14.844 32.6672 14.916C32.5632 14.98 32.4472 15.012 32.3192 15.012C32.1752 15.012 32.0352 14.984 31.8992 14.928C31.7632 14.864 31.6712 14.792 31.6232 14.712C31.5192 14.536 31.4072 14.264 31.2872 13.896C31.1752 13.528 31.0232 13.012 30.8312 12.348L30.5312 11.328C30.3232 10.664 30.1432 9.984 29.9912 9.288C29.8392 8.592 29.7632 8.176 29.7632 8.04C29.7632 7.872 29.8472 7.74 30.0152 7.644C30.1832 7.54 30.3512 7.488 30.5192 7.488C30.6152 7.488 30.7152 7.52 30.8192 7.584C30.9232 7.64 30.9912 7.74 31.0232 7.884C31.3032 9.38 31.7152 11.116 32.2592 13.092C32.4672 12.596 32.6952 11.992 32.9432 11.28C33.1992 10.568 33.4432 9.876 33.6752 9.204L33.7952 8.844C33.8272 8.724 33.9072 8.632 34.0352 8.568C34.1712 8.496 34.3072 8.46 34.4432 8.46C34.6192 8.46 34.7632 8.504 34.8752 8.592C34.9872 8.68 35.0592 8.776 35.0912 8.88C35.0992 8.912 35.2592 9.388 35.5712 10.308C35.8832 11.228 36.2552 12.156 36.6872 13.092C36.8472 12.62 37.0392 11.864 37.2632 10.824L37.4432 10.032C37.6592 9.184 37.8352 8.528 37.9712 8.064ZM40.7968 7.296C41.0768 7.32 41.3208 7.396 41.5288 7.524C41.7368 7.644 41.8408 7.828 41.8408 8.076C41.8408 8.26 41.7528 8.408 41.5768 8.52C41.4088 8.624 41.2048 8.676 40.9648 8.676C40.7328 8.676 40.5728 8.616 40.4848 8.496C40.3968 8.376 40.3528 8.252 40.3528 8.124C40.3528 7.884 40.3768 7.684 40.4248 7.524C40.4808 7.364 40.6048 7.288 40.7968 7.296ZM41.7568 12.612V12.96C41.7568 13.272 41.7648 13.568 41.7808 13.848C41.8048 14.12 41.8328 14.396 41.8648 14.676C41.8568 14.756 41.7968 14.84 41.6848 14.928C41.5728 15.008 41.4728 15.048 41.3848 15.048C41.2328 15.048 41.0768 15.02 40.9168 14.964C40.7648 14.9 40.6728 14.824 40.6408 14.736C40.5928 14.48 40.5688 14.252 40.5688 14.052C40.5688 13.396 40.5488 12.66 40.5088 11.844C40.4768 11.124 40.4608 10.62 40.4608 10.332C40.4608 10.188 40.5328 10.064 40.6768 9.96C40.8208 9.856 40.9728 9.804 41.1328 9.804C41.3648 9.804 41.5248 9.856 41.6128 9.96C41.7088 10.064 41.7568 10.228 41.7568 10.452V12.612ZM46.4471 11.82C46.8151 11.82 46.9991 12.028 46.9991 12.444C46.9991 12.66 46.9231 12.816 46.7711 12.912C46.6271 13.008 46.4471 13.056 46.2311 13.056C46.1671 13.056 46.0991 13.052 46.0271 13.044C45.9551 13.036 45.8791 13.028 45.7991 13.02C45.5591 12.98 45.3431 12.96 45.1511 12.96C45.0151 12.96 44.8111 12.976 44.5391 13.008C44.2511 13.04 44.0311 13.056 43.8791 13.056C43.6631 13.056 43.4711 13.016 43.3031 12.936C43.1351 12.848 43.0511 12.704 43.0511 12.504C43.0511 12.224 43.1551 12.044 43.3631 11.964C43.5711 11.876 43.8631 11.832 44.2391 11.832L44.6351 11.844C44.8271 11.86 44.9751 11.868 45.0791 11.868L45.9551 11.844L46.4471 11.82ZM48.8635 15.036C48.6795 15.036 48.5395 14.988 48.4435 14.892C48.3475 14.788 48.2995 14.684 48.2995 14.58C48.3475 14.292 48.3755 13.984 48.3835 13.656C48.3915 13.328 48.3955 13.132 48.3955 13.068V12.636C48.3955 12.308 48.3915 12.02 48.3835 11.772C48.3755 11.516 48.3675 11.3 48.3595 11.124C48.3275 10.42 48.3115 9.872 48.3115 9.48V9.108C48.3275 8.724 48.3475 8.388 48.3715 8.1C48.3795 7.988 48.4475 7.868 48.5755 7.74C48.7115 7.612 48.8955 7.532 49.1275 7.5C49.8875 7.42 50.8315 7.38 51.9595 7.38H52.3435C52.6235 7.38 52.8995 7.432 53.1715 7.536C53.4515 7.64 53.5915 7.816 53.5915 8.064C53.5915 8.232 53.5515 8.368 53.4715 8.472C53.3915 8.568 53.2355 8.616 53.0035 8.616C52.8995 8.616 52.7795 8.608 52.6435 8.592C52.5075 8.576 52.4115 8.564 52.3555 8.556C52.0515 8.508 51.8155 8.484 51.6475 8.484C50.7195 8.484 50.0155 8.548 49.5355 8.676V9.336V10.716C50.0795 10.716 50.6475 10.692 51.2395 10.644C51.6715 10.612 51.9515 10.596 52.0795 10.596C52.2635 10.596 52.4195 10.64 52.5475 10.728C52.6835 10.808 52.7515 10.932 52.7515 11.1C52.7515 11.516 52.4675 11.724 51.8995 11.724C51.7635 11.724 51.5595 11.74 51.2875 11.772C50.9835 11.804 50.7475 11.82 50.5795 11.82C50.4755 11.82 50.3275 11.812 50.1355 11.796C49.8875 11.78 49.7195 11.776 49.6315 11.784C49.6235 11.992 49.6275 12.316 49.6435 12.756L49.6555 13.56C49.6555 13.832 49.6515 14.036 49.6435 14.172C49.6355 14.3 49.6115 14.44 49.5715 14.592C49.5475 14.72 49.4755 14.828 49.3555 14.916C49.2355 14.996 49.0715 15.036 48.8635 15.036ZM54.8945 7.296C55.1745 7.32 55.4185 7.396 55.6265 7.524C55.8345 7.644 55.9385 7.828 55.9385 8.076C55.9385 8.26 55.8505 8.408 55.6745 8.52C55.5065 8.624 55.3025 8.676 55.0625 8.676C54.8305 8.676 54.6705 8.616 54.5825 8.496C54.4945 8.376 54.4505 8.252 54.4505 8.124C54.4505 7.884 54.4745 7.684 54.5225 7.524C54.5785 7.364 54.7025 7.288 54.8945 7.296ZM55.8545 12.612V12.96C55.8545 13.272 55.8625 13.568 55.8785 13.848C55.9025 14.12 55.9305 14.396 55.9625 14.676C55.9625 14.772 55.9065 14.86 55.7945 14.94C55.6825 15.012 55.5785 15.048 55.4825 15.048C55.3305 15.048 55.1745 15.02 55.0145 14.964C54.8625 14.9 54.7705 14.824 54.7385 14.736C54.6905 14.48 54.6665 14.252 54.6665 14.052C54.6665 13.396 54.6465 12.66 54.6065 11.844C54.5745 11.124 54.5585 10.62 54.5585 10.332C54.5585 10.188 54.6305 10.064 54.7745 9.96C54.9185 9.856 55.0705 9.804 55.2305 9.804C55.4625 9.804 55.6225 9.856 55.7105 9.96C55.8065 10.064 55.8545 10.228 55.8545 10.452V12.612Z" fill="#2D3047"/>
<path d="M33.5833 55.9167L30.0833 52.3333C31.7222 50.6944 33.6461 49.3961 35.855 48.4383C38.0628 47.4794 40.4444 47 43 47C45.5556 47 47.9378 47.4861 50.1467 48.4583C52.3544 49.4306 54.2778 50.75 55.9167 52.4167L52.4167 55.9167C51.1944 54.6944 49.7778 53.7361 48.1667 53.0417C46.5556 52.3472 44.8333 52 43 52C41.1667 52 39.4444 52.3472 37.8333 53.0417C36.2222 53.7361 34.8056 54.6944 33.5833 55.9167ZM26.5 48.8333L23 45.3333C25.5556 42.7222 28.5417 40.6806 31.9583 39.2083C35.375 37.7361 39.0556 37 43 37C46.9444 37 50.625 37.7361 54.0417 39.2083C57.4583 40.6806 60.4444 42.7222 63 45.3333L59.5 48.8333C57.3611 46.6944 54.8822 45.0206 52.0633 43.8117C49.2433 42.6039 46.2222 42 43 42C39.7778 42 36.7567 42.6039 33.9367 43.8117C31.1178 45.0206 28.6389 46.6944 26.5 48.8333ZM43 65.3333L48.875 59.4167C48.125 58.6667 47.25 58.0761 46.25 57.645C45.25 57.215 44.1667 57 43 57C41.8333 57 40.75 57.215 39.75 57.645C38.75 58.0761 37.875 58.6667 37.125 59.4167L43 65.3333Z" fill="#FDB623"/>
</svg>
