<svg width="86" height="92" viewBox="0 0 86 92" fill="none" xmlns="http://www.w3.org/2000/svg">
<rect x="1" y="11" width="84" height="80" rx="7" fill="#333333"/>
<rect x="1" y="11" width="84" height="80" rx="7" stroke="#FDB623" stroke-width="2"/>
<rect x="7.5" width="71" height="22" rx="4" fill="#FDB623"/>
<path d="M18.7667 8.376C18.7427 8.888 18.7307 9.38 18.7307 9.852C18.7307 10.34 18.7627 11.056 18.8267 12C18.8347 12.144 18.8507 12.436 18.8747 12.876C18.8987 13.308 18.9107 13.704 18.9107 14.064C18.9907 14.056 19.0747 14.044 19.1627 14.028C19.2587 14.012 19.3307 14.004 19.3787 14.004C19.5547 14.004 19.6947 14.048 19.7987 14.136C19.9027 14.224 19.9547 14.36 19.9547 14.544C19.9547 14.664 19.9067 14.756 19.8107 14.82C19.7147 14.884 19.5467 14.932 19.3067 14.964C19.0747 14.988 18.7347 15 18.2867 15C17.7907 15 17.4187 14.984 17.1707 14.952C16.9227 14.92 16.7507 14.86 16.6547 14.772C16.5587 14.676 16.5107 14.536 16.5107 14.352C16.5107 14.216 16.5547 14.124 16.6427 14.076C16.7307 14.028 16.8547 14.004 17.0147 14.004L17.2667 14.016L17.6627 14.04L17.6027 12.624C17.5547 11.856 17.5307 11.152 17.5307 10.512C17.5307 10.168 17.5427 9.696 17.5667 9.096L17.5907 8.436C17.3187 8.452 17.1067 8.46 16.9547 8.46C16.7787 8.46 16.6587 8.428 16.5947 8.364C16.5387 8.3 16.5107 8.168 16.5107 7.968C16.5107 7.744 16.6627 7.6 16.9667 7.536C17.2787 7.472 17.7507 7.44 18.3827 7.44C18.8707 7.44 19.2347 7.456 19.4747 7.488C19.7227 7.52 19.8467 7.592 19.8467 7.704C19.8467 7.976 19.7867 8.156 19.6667 8.244C19.5547 8.324 19.3347 8.364 19.0067 8.364L18.7667 8.376ZM26.5553 14.076C26.5953 14.092 26.6593 14.112 26.7473 14.136C26.8353 14.16 26.8993 14.184 26.9393 14.208C26.9793 14.232 26.9993 14.268 26.9993 14.316C27.0073 14.508 26.9353 14.668 26.7833 14.796C26.6393 14.916 26.4673 14.976 26.2673 14.976C25.9553 14.976 25.7113 14.892 25.5353 14.724C25.3593 14.556 25.2313 14.3 25.1513 13.956C25.1193 13.82 25.1033 13.632 25.1033 13.392C25.1033 13.256 25.1113 13.036 25.1273 12.732C25.1433 12.412 25.1513 12.156 25.1513 11.964C25.1513 11.684 25.0713 11.44 24.9113 11.232C24.7593 11.016 24.5433 10.908 24.2633 10.908C24.0953 10.908 23.9193 10.96 23.7353 11.064C23.5513 11.16 23.4233 11.28 23.3513 11.424C23.2313 11.656 23.1473 11.908 23.0993 12.18C23.0113 12.66 22.9673 13.16 22.9673 13.68C22.9673 13.928 22.9713 14.12 22.9793 14.256C22.9793 14.288 22.9793 14.352 22.9793 14.448C22.9873 14.536 22.9793 14.62 22.9553 14.7C22.9393 14.772 22.9073 14.84 22.8593 14.904C22.8193 14.944 22.7553 14.976 22.6673 15C22.5873 15.032 22.5113 15.048 22.4393 15.048C22.3273 15.048 22.1873 15 22.0193 14.904C21.8513 14.808 21.7553 14.7 21.7313 14.58L21.7193 14.376C21.7193 14.304 21.7273 14.22 21.7433 14.124C21.8393 13.564 21.8873 13.076 21.8873 12.66C21.8873 12.476 21.8833 12.332 21.8753 12.228L21.8633 11.664C21.8633 11.472 21.8153 11.288 21.7193 11.112C21.6233 10.928 21.5113 10.836 21.3833 10.836C21.3433 10.836 21.2873 10.852 21.2153 10.884C21.1433 10.908 21.0833 10.92 21.0353 10.92C20.9553 10.92 20.8673 10.88 20.7713 10.8C20.6833 10.72 20.6393 10.636 20.6393 10.548C20.6393 10.38 20.6953 10.244 20.8073 10.14C20.9273 10.044 21.0433 9.968 21.1553 9.912C21.2753 9.856 21.4113 9.828 21.5633 9.828C21.6913 9.828 21.7953 9.84 21.8753 9.864C21.9553 9.888 22.0633 9.94 22.1993 10.02C22.2713 10.06 22.3553 10.148 22.4513 10.284C22.5473 10.42 22.6273 10.612 22.6913 10.86C22.8993 10.476 23.1553 10.208 23.4593 10.056C23.7713 9.896 24.1673 9.816 24.6473 9.816C24.8313 9.816 25.0273 9.876 25.2353 9.996C25.4513 10.116 25.6353 10.256 25.7873 10.416C25.9313 10.592 26.0513 10.812 26.1473 11.076C26.2433 11.332 26.2913 11.564 26.2913 11.772C26.2913 11.892 26.2833 12.088 26.2673 12.36C26.2433 12.576 26.2313 12.804 26.2313 13.044C26.2313 13.604 26.3393 13.948 26.5553 14.076ZM31.2284 12.408C31.2924 12.448 31.4164 12.524 31.6004 12.636C31.7924 12.74 31.9204 12.864 31.9844 13.008C32.0484 13.152 32.0804 13.352 32.0804 13.608C32.0804 13.896 31.9964 14.152 31.8284 14.376C31.6604 14.592 31.4444 14.76 31.1804 14.88C30.9964 14.96 30.7964 15.008 30.5804 15.024C30.3724 15.04 30.1204 15.048 29.8244 15.048C29.6644 15.048 29.4564 15.024 29.2004 14.976C28.9524 14.928 28.7804 14.884 28.6844 14.844C28.4284 14.7 28.2124 14.532 28.0364 14.34C27.8604 14.148 27.7724 13.952 27.7724 13.752C27.7724 13.592 27.8244 13.464 27.9284 13.368C28.0324 13.272 28.1684 13.224 28.3364 13.224C28.4244 13.224 28.5084 13.248 28.5884 13.296C28.6764 13.336 28.7364 13.384 28.7684 13.44C28.8564 13.648 29.0044 13.804 29.2124 13.908C29.4204 14.012 29.6324 14.064 29.8484 14.064C30.6084 14.064 30.9884 13.928 30.9884 13.656C30.9884 13.584 30.9684 13.528 30.9284 13.488C30.8964 13.44 30.8484 13.392 30.7844 13.344C30.6804 13.272 30.5324 13.196 30.3404 13.116C30.1564 13.036 29.9924 12.976 29.8484 12.936C29.5204 12.864 29.2004 12.756 28.8884 12.612C28.6004 12.468 28.3644 12.28 28.1804 12.048C27.9964 11.808 27.9044 11.516 27.9044 11.172C27.9044 10.964 27.9804 10.76 28.1324 10.56C28.2924 10.352 28.4764 10.196 28.6844 10.092C28.8284 10.036 29.0644 9.976 29.3924 9.912C29.7204 9.848 29.9444 9.816 30.0644 9.816C30.2484 9.816 30.4484 9.836 30.6644 9.876C30.8804 9.908 31.0444 9.964 31.1564 10.044C31.3724 10.172 31.5484 10.308 31.6844 10.452C31.8204 10.588 31.8884 10.744 31.8884 10.92C31.8884 11.008 31.8684 11.104 31.8284 11.208C31.7884 11.304 31.7404 11.364 31.6844 11.388C31.5644 11.444 31.4244 11.472 31.2644 11.472C31.1924 11.472 31.1324 11.452 31.0844 11.412C31.0444 11.372 30.9884 11.308 30.9164 11.22C30.8284 11.084 30.7444 11.004 30.6644 10.98C30.5684 10.956 30.4284 10.928 30.2444 10.896C30.0604 10.856 29.9364 10.836 29.8724 10.836C29.6724 10.836 29.4804 10.876 29.2964 10.956C29.1204 11.036 29.0324 11.144 29.0324 11.28C29.0324 11.44 29.1644 11.576 29.4284 11.688C29.5964 11.768 29.7804 11.836 29.9804 11.892C30.1884 11.948 30.3164 11.984 30.3644 12C30.4764 12.024 30.6204 12.08 30.7964 12.168C30.9804 12.256 31.1244 12.336 31.2284 12.408ZM33.2362 10.848C33.1242 10.832 33.0322 10.784 32.9602 10.704C32.8962 10.624 32.8642 10.528 32.8642 10.416C32.8642 10.36 32.8762 10.3 32.9002 10.236C32.9322 10.172 32.9762 10.116 33.0322 10.068C33.1362 9.98 33.2762 9.896 33.4522 9.816C33.6362 9.744 33.7682 9.656 33.8482 9.552C33.9282 9.448 33.9682 9.252 33.9682 8.964C33.9682 8.844 33.9602 8.74 33.9442 8.652C33.9362 8.564 33.9322 8.496 33.9322 8.448C33.9322 8.272 33.9962 8.14 34.1242 8.052C34.2522 7.964 34.4002 7.92 34.5682 7.92C34.7762 7.92 34.9162 7.972 34.9882 8.076C35.0682 8.18 35.1082 8.372 35.1082 8.652C35.1082 8.924 35.0962 9.16 35.0722 9.36C35.0482 9.552 34.9962 9.724 34.9162 9.876C35.0282 9.876 35.2122 9.868 35.4682 9.852C35.8202 9.836 36.0642 9.828 36.2002 9.828C36.3362 9.828 36.4562 9.864 36.5602 9.936C36.6642 10 36.7162 10.092 36.7162 10.212C36.7162 10.38 36.6802 10.504 36.6082 10.584C36.5362 10.664 36.4322 10.716 36.2962 10.74C35.9682 10.828 35.5042 10.88 34.9042 10.896C34.8882 11.208 34.8802 11.548 34.8802 11.916C34.8802 12.532 34.9162 13.004 34.9882 13.332C35.0362 13.588 35.1162 13.776 35.2282 13.896C35.3482 14.008 35.5242 14.064 35.7562 14.064C35.8762 14.064 35.9722 14.048 36.0442 14.016C36.1242 13.984 36.1682 13.964 36.1762 13.956C36.2722 13.9 36.3602 13.872 36.4402 13.872C36.5522 13.872 36.6322 13.908 36.6802 13.98C36.7362 14.052 36.7642 14.148 36.7642 14.268C36.7642 14.492 36.6442 14.68 36.4042 14.832C36.1642 14.976 35.8562 15.048 35.4802 15.048C35.0562 15.048 34.6962 14.924 34.4002 14.676C34.1122 14.42 33.9402 14.084 33.8842 13.668C33.8042 13.292 33.7642 12.764 33.7642 12.084C33.7642 11.788 33.7802 11.392 33.8122 10.896L33.2362 10.848ZM43.1839 14.424C43.1839 14.6 43.0879 14.748 42.8959 14.868C42.7119 14.988 42.5399 15.048 42.3799 15.048C42.0759 15.048 41.8319 15.012 41.6479 14.94C41.4719 14.86 41.3079 14.716 41.1559 14.508C40.9479 14.692 40.6639 14.832 40.3039 14.928C39.9439 15.016 39.6119 15.06 39.3079 15.06C38.8119 15.06 38.4039 14.928 38.0839 14.664C37.7639 14.392 37.6039 13.996 37.6039 13.476C37.6039 13.252 37.6639 13.048 37.7839 12.864C37.9039 12.672 38.0679 12.504 38.2759 12.36C38.5079 12.208 38.7719 12.092 39.0679 12.012C39.3639 11.924 39.6719 11.88 39.9919 11.88C40.1599 11.88 40.3599 11.912 40.5919 11.976C40.8239 12.04 41.0039 12.108 41.1319 12.18V11.988C41.1319 11.556 41.0279 11.26 40.8199 11.1C40.6119 10.932 40.2759 10.848 39.8119 10.848C39.6759 10.848 39.5399 10.876 39.4039 10.932C39.2759 10.988 39.1279 11.064 38.9599 11.16C38.7359 11.28 38.5239 11.34 38.3239 11.34C38.2519 11.34 38.1839 11.292 38.1199 11.196C38.0559 11.092 38.0239 11 38.0239 10.92C38.0239 10.688 38.1319 10.488 38.3479 10.32C38.5719 10.152 38.8359 10.028 39.1399 9.948C39.4439 9.86 39.7159 9.816 39.9559 9.816C40.1959 9.816 40.4719 9.864 40.7839 9.96C41.0959 10.048 41.3519 10.172 41.5519 10.332C41.7919 10.54 41.9759 10.784 42.1039 11.064C42.2399 11.336 42.3079 11.636 42.3079 11.964C42.3079 12.068 42.2999 12.224 42.2839 12.432C42.2679 12.656 42.2599 12.848 42.2599 13.008C42.2599 13.08 42.2519 13.188 42.2359 13.332C42.2199 13.508 42.2119 13.648 42.2119 13.752C42.2119 13.848 42.2479 13.932 42.3199 14.004C42.3919 14.068 42.4759 14.1 42.5719 14.1L42.9079 14.088C42.9959 14.088 43.0639 14.12 43.1119 14.184C43.1599 14.248 43.1839 14.328 43.1839 14.424ZM39.3199 14.112C39.6639 14.112 39.9519 14.076 40.1839 14.004C40.4159 13.932 40.6959 13.8 41.0239 13.608C41.0559 13.472 41.0759 13.292 41.0839 13.068C40.6439 12.86 40.2799 12.756 39.9919 12.756C39.6639 12.756 39.3719 12.816 39.1159 12.936C38.8599 13.056 38.7319 13.268 38.7319 13.572C38.7319 13.724 38.7959 13.852 38.9239 13.956C39.0519 14.06 39.1839 14.112 39.3199 14.112ZM48.3137 14.976C48.5297 15.128 48.6737 15.296 48.7457 15.48C48.8257 15.664 48.8657 15.92 48.8657 16.248C48.8657 16.408 48.8177 16.568 48.7217 16.728C48.6337 16.888 48.5417 17.004 48.4457 17.076C47.6857 17.492 46.9257 17.7 46.1657 17.7C45.7897 17.7 45.4657 17.652 45.1937 17.556C44.9217 17.46 44.6657 17.332 44.4257 17.172C44.2657 17.052 44.1337 16.884 44.0297 16.668C43.9337 16.46 43.8857 16.252 43.8857 16.044C43.8857 15.756 43.9737 15.504 44.1497 15.288C44.3337 15.072 44.5777 14.916 44.8817 14.82C44.8257 14.7 44.7977 14.56 44.7977 14.4C44.7977 14.248 44.9097 14.02 45.1337 13.716C44.7497 13.588 44.4457 13.36 44.2217 13.032C44.0057 12.704 43.8977 12.32 43.8977 11.88C43.8977 11.608 43.9617 11.368 44.0897 11.16C44.2177 10.944 44.4097 10.696 44.6657 10.416C44.8417 10.224 45.0657 10.084 45.3377 9.996C45.6097 9.908 45.9497 9.864 46.3577 9.864C46.6457 9.864 47.0017 9.928 47.4257 10.056C47.9297 9.704 48.3737 9.528 48.7577 9.528C48.8537 9.528 48.9617 9.552 49.0817 9.6C49.2097 9.648 49.3057 9.696 49.3697 9.744C49.4177 9.832 49.4417 9.98 49.4417 10.188C49.4417 10.268 49.4057 10.348 49.3337 10.428C49.2697 10.5 49.1857 10.536 49.0817 10.536L48.7937 10.524C48.6497 10.508 48.5377 10.5 48.4577 10.5C48.3697 10.5 48.2377 10.508 48.0617 10.524C48.2297 10.724 48.3577 10.936 48.4457 11.16C48.5417 11.384 48.5897 11.676 48.5897 12.036C48.5897 12.308 48.4897 12.592 48.2897 12.888C48.0897 13.184 47.8537 13.416 47.5817 13.584C47.1657 13.808 46.6817 13.924 46.1297 13.932C46.0657 13.996 46.0097 14.056 45.9617 14.112C45.9217 14.16 45.9017 14.2 45.9017 14.232C45.9017 14.32 45.9777 14.388 46.1297 14.436C46.2817 14.484 46.5137 14.52 46.8257 14.544C47.0657 14.56 47.3297 14.612 47.6177 14.7C47.9137 14.78 48.1457 14.872 48.3137 14.976ZM46.2017 12.948C46.5697 12.948 46.8657 12.848 47.0897 12.648C47.3137 12.448 47.4257 12.164 47.4257 11.796C47.4257 11.516 47.3257 11.288 47.1257 11.112C46.9257 10.936 46.6697 10.848 46.3577 10.848C46.1577 10.848 45.9417 10.884 45.7097 10.956C45.4857 11.02 45.3257 11.124 45.2297 11.268C45.1817 11.332 45.1337 11.456 45.0857 11.64C45.0377 11.816 45.0137 11.952 45.0137 12.048C45.0137 12.184 45.0697 12.324 45.1817 12.468C45.3017 12.604 45.4537 12.72 45.6377 12.816C45.8297 12.904 46.0177 12.948 46.2017 12.948ZM46.9577 15.552C46.5177 15.512 46.2057 15.472 46.0217 15.432C45.8457 15.4 45.7017 15.36 45.5897 15.312C45.1817 15.528 44.9777 15.764 44.9777 16.02C44.9777 16.26 45.1017 16.44 45.3497 16.56C45.5977 16.688 45.8817 16.752 46.2017 16.752C46.3457 16.752 46.5417 16.736 46.7897 16.704C47.0377 16.672 47.2457 16.616 47.4137 16.536C47.5257 16.48 47.6097 16.424 47.6657 16.368C47.7217 16.32 47.7497 16.228 47.7497 16.092C47.7497 15.924 47.6617 15.796 47.4857 15.708C47.3097 15.62 47.1337 15.568 46.9577 15.552ZM50.182 10.788C49.974 10.644 49.87 10.492 49.87 10.332C49.87 10.22 49.918 10.116 50.014 10.02C50.11 9.924 50.254 9.876 50.446 9.876C50.67 9.876 50.87 9.936 51.046 10.056C51.23 10.168 51.358 10.332 51.43 10.548C51.614 10.332 51.822 10.16 52.054 10.032C52.294 9.904 52.538 9.84 52.786 9.84C53.082 9.84 53.35 9.92 53.59 10.08C53.83 10.24 53.95 10.456 53.95 10.728C53.95 10.88 53.882 11.036 53.746 11.196C53.618 11.356 53.486 11.436 53.35 11.436C53.278 11.436 53.214 11.42 53.158 11.388C53.11 11.348 53.05 11.292 52.978 11.22C52.898 11.14 52.83 11.084 52.774 11.052C52.718 11.012 52.654 10.992 52.582 10.992C52.454 10.992 52.334 11.012 52.222 11.052C52.11 11.092 52.034 11.14 51.994 11.196C51.866 11.396 51.77 11.576 51.706 11.736C51.65 11.896 51.622 12.068 51.622 12.252C51.622 12.388 51.618 12.496 51.61 12.576L51.598 13.26C51.598 13.364 51.602 13.48 51.61 13.608C51.618 13.736 51.626 13.832 51.634 13.896C51.658 14.112 51.67 14.32 51.67 14.52C51.67 14.656 51.618 14.776 51.514 14.88C51.41 14.984 51.282 15.036 51.13 15.036C50.89 15.036 50.714 14.992 50.602 14.904C50.49 14.808 50.434 14.636 50.434 14.388L50.422 13.62C50.414 13.468 50.41 13.252 50.41 12.972L50.422 12.18C50.438 11.796 50.446 11.484 50.446 11.244C50.446 11.156 50.426 11.076 50.386 11.004C50.354 10.932 50.286 10.86 50.182 10.788ZM59.2175 15.048C58.9455 15.048 58.7375 15.008 58.5935 14.928C58.4495 14.84 58.2935 14.68 58.1255 14.448C57.9175 14.632 57.6055 14.78 57.1895 14.892C56.7815 15.004 56.4295 15.06 56.1335 15.06C55.6455 15.06 55.2495 14.928 54.9455 14.664C54.6495 14.392 54.5015 13.996 54.5015 13.476C54.5015 13.252 54.5615 13.048 54.6815 12.864C54.8095 12.672 54.9735 12.504 55.1735 12.36C55.3975 12.208 55.6615 12.088 55.9655 12C56.2775 11.912 56.5615 11.868 56.8175 11.868C57.2495 11.868 57.6335 11.908 57.9695 11.988V11.976C57.9695 11.544 57.8615 11.248 57.6455 11.088C57.4375 10.92 57.1015 10.836 56.6375 10.836C56.3415 10.836 56.0855 10.968 55.8695 11.232C55.7895 11.336 55.6215 11.388 55.3655 11.388C55.2375 11.388 55.1415 11.336 55.0775 11.232C55.0215 11.12 54.9935 11.008 54.9935 10.896C54.9935 10.664 55.0895 10.464 55.2815 10.296C55.4815 10.128 55.7215 10.004 56.0015 9.924C56.2815 9.836 56.5415 9.792 56.7815 9.792C57.0135 9.792 57.2895 9.84 57.6095 9.936C57.9295 10.032 58.1895 10.16 58.3895 10.32C58.6295 10.528 58.8135 10.772 58.9415 11.052C59.0775 11.324 59.1455 11.624 59.1455 11.952C59.1455 12.056 59.1375 12.212 59.1215 12.42C59.1055 12.66 59.0975 12.856 59.0975 13.008C59.0975 13.08 59.0895 13.172 59.0735 13.284C59.0575 13.428 59.0495 13.548 59.0495 13.644C59.0495 13.748 59.0815 13.848 59.1455 13.944C59.2095 14.04 59.2975 14.12 59.4095 14.184C59.5135 14.24 59.5815 14.3 59.6135 14.364C59.6455 14.428 59.6615 14.5 59.6615 14.58C59.6615 14.66 59.6095 14.76 59.5055 14.88C59.4095 14.992 59.3135 15.048 59.2175 15.048ZM56.8175 12.756C56.5055 12.756 56.2295 12.816 55.9895 12.936C55.7495 13.056 55.6295 13.268 55.6295 13.572C55.6295 13.724 55.6815 13.852 55.7855 13.956C55.8975 14.06 56.0175 14.112 56.1455 14.112C56.4895 14.112 56.7775 14.076 57.0095 14.004C57.2415 13.932 57.5215 13.8 57.8495 13.608C57.8895 13.48 57.9135 13.3 57.9215 13.068C57.9215 12.98 57.9255 12.912 57.9335 12.864C57.5015 12.792 57.1295 12.756 56.8175 12.756ZM67.8237 12.888L67.8717 11.964C67.8717 11.628 67.8317 11.38 67.7517 11.22C67.6797 11.06 67.5117 10.98 67.2477 10.98C66.7437 10.98 66.3637 11.264 66.1077 11.832C65.8517 12.392 65.7237 13.212 65.7237 14.292C65.7237 14.34 65.7237 14.44 65.7237 14.592C65.7317 14.736 65.7077 14.848 65.6517 14.928C65.6037 15.008 65.5157 15.048 65.3877 15.048C65.0677 15.048 64.8517 14.96 64.7397 14.784C64.6277 14.608 64.5717 14.348 64.5717 14.004C64.5717 13.828 64.5957 13.468 64.6437 12.924C64.6837 12.54 64.7037 12.272 64.7037 12.12C64.7037 11.72 64.6437 11.428 64.5237 11.244C64.4037 11.06 64.1957 10.968 63.8997 10.968C63.5557 10.968 63.2717 11.14 63.0477 11.484C62.8237 11.828 62.6597 12.256 62.5557 12.768C62.4517 13.272 62.3997 13.772 62.3997 14.268C62.3997 14.5 62.3597 14.688 62.2797 14.832C62.2077 14.976 62.0677 15.048 61.8597 15.048C61.7077 15.048 61.5557 15.008 61.4037 14.928C61.2517 14.84 61.1757 14.724 61.1757 14.58C61.1757 14.428 61.1917 14.276 61.2237 14.124C61.2637 13.876 61.2957 13.512 61.3197 13.032C61.3437 12.552 61.3557 12.1 61.3557 11.676C61.3557 11.484 61.3077 11.3 61.2117 11.124C61.1237 10.94 61.0157 10.848 60.8877 10.848C60.8557 10.848 60.7957 10.864 60.7077 10.896C60.6277 10.928 60.5677 10.944 60.5277 10.944C60.4237 10.944 60.3277 10.896 60.2397 10.8C60.1597 10.704 60.1197 10.624 60.1197 10.56C60.1197 10.36 60.2157 10.192 60.4077 10.056C60.6077 9.912 60.8157 9.84 61.0317 9.84C61.3277 9.84 61.5837 9.94 61.7997 10.14C62.0237 10.34 62.1917 10.608 62.3037 10.944C62.4957 10.6 62.7197 10.332 62.9757 10.14C63.2397 9.94 63.5597 9.84 63.9357 9.84C64.6237 9.84 65.1237 10.148 65.4357 10.764C65.6197 10.468 65.9037 10.24 66.2877 10.08C66.6797 9.92 67.0637 9.84 67.4397 9.84C67.7117 9.84 67.9717 9.924 68.2197 10.092C68.4677 10.252 68.6637 10.468 68.8077 10.74C68.9597 11.004 69.0357 11.28 69.0357 11.568C69.0357 11.752 69.0157 12.156 68.9757 12.78C68.9677 12.884 68.9597 13 68.9517 13.128C68.9437 13.248 68.9397 13.376 68.9397 13.512C68.9397 13.68 68.9797 13.816 69.0597 13.92C69.1477 14.024 69.2597 14.088 69.3957 14.112C69.6677 14.176 69.8037 14.288 69.8037 14.448C69.8037 14.632 69.7197 14.78 69.5517 14.892C69.3837 14.996 69.1957 15.048 68.9877 15.048C68.5957 15.048 68.2957 14.936 68.0877 14.712C67.8877 14.48 67.7877 14.148 67.7877 13.716L67.8237 12.888Z" fill="#2D3047"/>
<path d="M35.6667 34H49.6667C55 34 59.3333 38.3333 59.3333 43.6667V57.6667C59.3333 60.2304 58.3149 62.6892 56.502 64.502C54.6892 66.3149 52.2304 67.3333 49.6667 67.3333H35.6667C30.3333 67.3333 26 63 26 57.6667V43.6667C26 41.1029 27.0184 38.6442 28.8313 36.8313C30.6442 35.0184 33.1029 34 35.6667 34ZM35.3333 37.3333C33.742 37.3333 32.2159 37.9655 31.0907 39.0907C29.9655 40.2159 29.3333 41.742 29.3333 43.3333V58C29.3333 61.3167 32.0167 64 35.3333 64H50C51.5913 64 53.1174 63.3679 54.2426 62.2426C55.3679 61.1174 56 59.5913 56 58V43.3333C56 40.0167 53.3167 37.3333 50 37.3333H35.3333ZM51.4167 39.8333C51.9692 39.8333 52.4991 40.0528 52.8898 40.4435C53.2805 40.8342 53.5 41.3641 53.5 41.9167C53.5 42.4692 53.2805 42.9991 52.8898 43.3898C52.4991 43.7805 51.9692 44 51.4167 44C50.8641 44 50.3342 43.7805 49.9435 43.3898C49.5528 42.9991 49.3333 42.4692 49.3333 41.9167C49.3333 41.3641 49.5528 40.8342 49.9435 40.4435C50.3342 40.0528 50.8641 39.8333 51.4167 39.8333ZM42.6667 42.3333C44.8768 42.3333 46.9964 43.2113 48.5592 44.7741C50.122 46.3369 51 48.4565 51 50.6667C51 52.8768 50.122 54.9964 48.5592 56.5592C46.9964 58.122 44.8768 59 42.6667 59C40.4565 59 38.3369 58.122 36.7741 56.5592C35.2113 54.9964 34.3333 52.8768 34.3333 50.6667C34.3333 48.4565 35.2113 46.3369 36.7741 44.7741C38.3369 43.2113 40.4565 42.3333 42.6667 42.3333ZM42.6667 45.6667C41.3406 45.6667 40.0688 46.1934 39.1311 47.1311C38.1934 48.0688 37.6667 49.3406 37.6667 50.6667C37.6667 51.9927 38.1934 53.2645 39.1311 54.2022C40.0688 55.1399 41.3406 55.6667 42.6667 55.6667C43.9927 55.6667 45.2645 55.1399 46.2022 54.2022C47.1399 53.2645 47.6667 51.9927 47.6667 50.6667C47.6667 49.3406 47.1399 48.0688 46.2022 47.1311C45.2645 46.1934 43.9927 45.6667 42.6667 45.6667Z" fill="#FDB623"/>
</svg>
