<svg width="86" height="92" viewBox="0 0 86 92" fill="none" xmlns="http://www.w3.org/2000/svg">
<rect x="1" y="11" width="84" height="80" rx="7" fill="#333333"/>
<rect x="1" y="11" width="84" height="80" rx="7" stroke="#FDB623" stroke-width="2"/>
<rect x="8.5" width="69" height="22" rx="4" fill="#FDB623"/>
<path d="M25.2798 8.064C25.3278 7.896 25.3998 7.76 25.4958 7.656C25.5918 7.544 25.6958 7.488 25.8078 7.488C26.0798 7.488 26.2758 7.54 26.3958 7.644C26.5158 7.748 26.5758 7.928 26.5758 8.184C26.5758 8.256 26.5198 8.46 26.4078 8.796C26.1598 9.556 25.8878 10.496 25.5918 11.616C25.5198 11.872 25.4598 12.096 25.4118 12.288C25.3718 12.48 25.3358 12.64 25.3038 12.768C25.1118 13.592 24.9438 14.212 24.7998 14.628C24.7518 14.748 24.6678 14.844 24.5478 14.916C24.4278 14.98 24.2998 15.012 24.1638 15.012C24.0278 15.012 23.8918 14.984 23.7558 14.928C23.6278 14.864 23.5358 14.792 23.4798 14.712C23.2318 14.224 22.9238 13.56 22.5558 12.72C22.1958 11.872 21.9158 11.132 21.7158 10.5C21.2198 11.756 20.7758 12.968 20.3838 14.136C20.3598 14.208 20.3318 14.288 20.2998 14.376C20.2758 14.456 20.2478 14.54 20.2158 14.628C20.1598 14.748 20.0798 14.844 19.9758 14.916C19.8718 14.98 19.7558 15.012 19.6278 15.012C19.4838 15.012 19.3438 14.984 19.2078 14.928C19.0718 14.864 18.9798 14.792 18.9318 14.712C18.8278 14.536 18.7158 14.264 18.5958 13.896C18.4838 13.528 18.3318 13.012 18.1398 12.348L17.8398 11.328C17.6318 10.664 17.4518 9.984 17.2998 9.288C17.1478 8.592 17.0718 8.176 17.0718 8.04C17.0718 7.872 17.1558 7.74 17.3238 7.644C17.4918 7.54 17.6598 7.488 17.8278 7.488C17.9238 7.488 18.0238 7.52 18.1278 7.584C18.2318 7.64 18.2998 7.74 18.3318 7.884C18.6118 9.38 19.0238 11.116 19.5678 13.092C19.7758 12.596 20.0038 11.992 20.2518 11.28C20.5078 10.568 20.7518 9.876 20.9838 9.204L21.1038 8.844C21.1358 8.724 21.2158 8.632 21.3438 8.568C21.4798 8.496 21.6158 8.46 21.7518 8.46C21.9278 8.46 22.0718 8.504 22.1838 8.592C22.2958 8.68 22.3678 8.776 22.3998 8.88C22.4078 8.912 22.5678 9.388 22.8798 10.308C23.1918 11.228 23.5638 12.156 23.9958 13.092C24.1558 12.62 24.3478 11.864 24.5718 10.824L24.7518 10.032C24.9678 9.184 25.1438 8.528 25.2798 8.064ZM28.9454 7.392C28.9454 7.6 28.9414 7.844 28.9334 8.124C28.9254 8.396 28.9174 8.604 28.9094 8.748C28.8854 9.156 28.8734 9.564 28.8734 9.972C28.8734 10.276 28.8854 10.592 28.9094 10.92C29.1574 10.56 29.4254 10.296 29.7134 10.128C30.0014 9.96 30.3494 9.876 30.7574 9.876C31.0534 9.876 31.3294 10.008 31.5854 10.272C31.8414 10.536 32.0054 10.844 32.0774 11.196C32.1014 11.508 32.1134 11.888 32.1134 12.336C32.1134 12.624 32.1294 13 32.1614 13.464C32.1774 13.64 32.2214 13.804 32.2934 13.956C32.3734 14.108 32.4854 14.184 32.6294 14.184C32.7014 14.184 32.7574 14.18 32.7974 14.172C32.8454 14.164 32.8894 14.16 32.9294 14.16C33.0414 14.16 33.1174 14.188 33.1574 14.244C33.2054 14.3 33.2294 14.38 33.2294 14.484C33.2294 14.676 33.1334 14.82 32.9414 14.916C32.7494 15.012 32.5734 15.06 32.4134 15.06C31.8374 15.06 31.4414 14.82 31.2254 14.34C31.1054 14.068 31.0294 13.716 30.9974 13.284C30.9654 12.844 30.9494 12.332 30.9494 11.748C30.9494 11.172 30.7534 10.884 30.3614 10.884C30.1454 10.884 29.9254 11 29.7014 11.232C29.4854 11.456 29.3054 11.756 29.1614 12.132C29.0174 12.5 28.9454 12.884 28.9454 13.284L28.9574 14.532C28.9574 14.708 28.8894 14.84 28.7534 14.928C28.6174 15.008 28.4894 15.048 28.3694 15.048C28.1934 15.048 28.0334 14.996 27.8894 14.892C27.7454 14.78 27.6734 14.656 27.6734 14.52C27.7294 13.92 27.7574 12.916 27.7574 11.508C27.7574 11.252 27.7374 10.304 27.6974 8.664L27.6614 7.56C27.6614 7.384 27.7414 7.232 27.9014 7.104C28.0614 6.968 28.2414 6.9 28.4414 6.9C28.6174 6.9 28.7454 6.94 28.8254 7.02C28.9054 7.1 28.9454 7.224 28.9454 7.392ZM39.4105 14.424C39.4105 14.6 39.3145 14.748 39.1225 14.868C38.9385 14.988 38.7665 15.048 38.6065 15.048C38.3025 15.048 38.0585 15.012 37.8745 14.94C37.6985 14.86 37.5345 14.716 37.3825 14.508C37.1745 14.692 36.8905 14.832 36.5305 14.928C36.1705 15.016 35.8385 15.06 35.5345 15.06C35.0385 15.06 34.6305 14.928 34.3105 14.664C33.9905 14.392 33.8305 13.996 33.8305 13.476C33.8305 13.252 33.8905 13.048 34.0105 12.864C34.1305 12.672 34.2945 12.504 34.5025 12.36C34.7345 12.208 34.9985 12.092 35.2945 12.012C35.5905 11.924 35.8985 11.88 36.2185 11.88C36.3865 11.88 36.5865 11.912 36.8185 11.976C37.0505 12.04 37.2305 12.108 37.3585 12.18V11.988C37.3585 11.556 37.2545 11.26 37.0465 11.1C36.8385 10.932 36.5025 10.848 36.0385 10.848C35.9025 10.848 35.7665 10.876 35.6305 10.932C35.5025 10.988 35.3545 11.064 35.1865 11.16C34.9625 11.28 34.7505 11.34 34.5505 11.34C34.4785 11.34 34.4105 11.292 34.3465 11.196C34.2825 11.092 34.2505 11 34.2505 10.92C34.2505 10.688 34.3585 10.488 34.5745 10.32C34.7985 10.152 35.0625 10.028 35.3665 9.948C35.6705 9.86 35.9425 9.816 36.1825 9.816C36.4225 9.816 36.6985 9.864 37.0105 9.96C37.3225 10.048 37.5785 10.172 37.7785 10.332C38.0185 10.54 38.2025 10.784 38.3305 11.064C38.4665 11.336 38.5345 11.636 38.5345 11.964C38.5345 12.068 38.5265 12.224 38.5105 12.432C38.4945 12.656 38.4865 12.848 38.4865 13.008C38.4865 13.08 38.4785 13.188 38.4625 13.332C38.4465 13.508 38.4385 13.648 38.4385 13.752C38.4385 13.848 38.4745 13.932 38.5465 14.004C38.6185 14.068 38.7025 14.1 38.7985 14.1L39.1345 14.088C39.2225 14.088 39.2905 14.12 39.3385 14.184C39.3865 14.248 39.4105 14.328 39.4105 14.424ZM35.5465 14.112C35.8905 14.112 36.1785 14.076 36.4105 14.004C36.6425 13.932 36.9225 13.8 37.2505 13.608C37.2825 13.472 37.3025 13.292 37.3105 13.068C36.8705 12.86 36.5065 12.756 36.2185 12.756C35.8905 12.756 35.5985 12.816 35.3425 12.936C35.0865 13.056 34.9585 13.268 34.9585 13.572C34.9585 13.724 35.0225 13.852 35.1505 13.956C35.2785 14.06 35.4105 14.112 35.5465 14.112ZM40.2083 10.824C40.0963 10.808 40.0043 10.764 39.9323 10.692C39.8683 10.612 39.8363 10.516 39.8363 10.404C39.8363 10.26 39.8923 10.14 40.0043 10.044C40.0283 10.02 40.0683 10 40.1243 9.984C40.1803 9.96 40.2243 9.94 40.2563 9.924C40.4323 9.868 40.5443 9.824 40.5923 9.792C40.7763 9.68 40.9003 9.496 40.9643 9.24C41.0283 8.936 41.0683 8.728 41.0843 8.616C41.1003 8.44 41.1563 8.308 41.2523 8.22C41.3563 8.124 41.4843 8.076 41.6363 8.076C41.8363 8.076 41.9763 8.128 42.0563 8.232C42.1363 8.336 42.1763 8.528 42.1763 8.808C42.1763 9.176 42.0883 9.524 41.9123 9.852C42.0243 9.852 42.2083 9.844 42.4643 9.828C42.8483 9.812 43.1163 9.804 43.2683 9.804C43.4043 9.804 43.5203 9.84 43.6163 9.912C43.7203 9.976 43.7723 10.072 43.7723 10.2C43.7723 10.504 43.6323 10.684 43.3523 10.74C43.0963 10.812 42.6323 10.856 41.9603 10.872C41.9043 11.656 41.8763 12.276 41.8763 12.732C41.8763 13.012 41.8883 13.212 41.9123 13.332C41.9603 13.58 42.0403 13.764 42.1523 13.884C42.2723 13.996 42.4483 14.052 42.6803 14.052C42.7923 14.052 42.9603 14.024 43.1843 13.968C43.3203 13.928 43.4283 13.908 43.5083 13.908C43.6123 13.908 43.6923 13.944 43.7483 14.016C43.8043 14.088 43.8323 14.184 43.8323 14.304C43.8323 14.52 43.6923 14.7 43.4123 14.844C43.1323 14.98 42.8003 15.048 42.4163 15.048C42.1763 15.048 41.9403 14.992 41.7083 14.88C41.4763 14.76 41.2803 14.616 41.1203 14.448C41.0883 14.432 41.0403 14.344 40.9763 14.184C40.9203 14.024 40.8643 13.848 40.8083 13.656C40.7843 13.56 40.7723 13.328 40.7723 12.96C40.7723 12.608 40.7963 12 40.8443 11.136L40.8563 10.872C40.8003 10.872 40.6963 10.868 40.5443 10.86C40.3923 10.844 40.2803 10.832 40.2083 10.824ZM48.1045 12.252C48.4245 12.436 48.6485 12.62 48.7765 12.804C48.9045 12.98 48.9685 13.212 48.9685 13.5C48.9685 13.788 48.8845 14.044 48.7165 14.268C48.5485 14.484 48.3325 14.652 48.0685 14.772C47.8765 14.86 47.6365 14.928 47.3485 14.976C47.0685 15.024 46.8485 15.048 46.6885 15.048C46.4085 15.048 46.1045 14.996 45.7765 14.892C45.4485 14.788 45.1685 14.64 44.9365 14.448C44.7125 14.256 44.6005 14.032 44.6005 13.776C44.6005 13.616 44.6525 13.492 44.7565 13.404C44.8605 13.308 44.9965 13.26 45.1645 13.26C45.3005 13.26 45.4445 13.356 45.5965 13.548C45.7485 13.716 45.9245 13.844 46.1245 13.932C46.3325 14.02 46.5365 14.064 46.7365 14.064C47.4965 14.064 47.8765 13.892 47.8765 13.548C47.8765 13.476 47.8525 13.408 47.8045 13.344C47.7565 13.272 47.7125 13.224 47.6725 13.2C47.6005 13.144 47.5005 13.096 47.3725 13.056C47.2445 13.016 47.1165 12.984 46.9885 12.96C46.8605 12.928 46.7645 12.904 46.7005 12.888C46.6365 12.872 46.5005 12.844 46.2925 12.804C46.0925 12.764 45.9005 12.696 45.7165 12.6C45.4125 12.456 45.1645 12.28 44.9725 12.072C44.7885 11.864 44.6965 11.596 44.6965 11.268C44.6965 11.084 44.7405 10.9 44.8285 10.716C44.9245 10.524 45.0525 10.38 45.2125 10.284C45.4525 10.132 45.7165 10.016 46.0045 9.936C46.2925 9.856 46.5605 9.816 46.8085 9.816C47.0085 9.816 47.2325 9.836 47.4805 9.876C47.7365 9.916 47.9205 9.972 48.0325 10.044C48.2405 10.156 48.3925 10.272 48.4885 10.392C48.5845 10.512 48.6325 10.664 48.6325 10.848C48.6325 10.936 48.6125 11.024 48.5725 11.112C48.5325 11.192 48.4845 11.248 48.4285 11.28C48.3005 11.328 48.1885 11.352 48.0925 11.352C48.0205 11.352 47.9605 11.34 47.9125 11.316C47.8645 11.284 47.8205 11.252 47.7805 11.22C47.7485 11.188 47.7285 11.168 47.7205 11.16C47.6165 11.048 47.5005 10.96 47.3725 10.896C47.2445 10.832 47.0565 10.8 46.8085 10.8C46.6485 10.8 46.4925 10.824 46.3405 10.872C46.1965 10.912 46.0845 10.964 46.0045 11.028C45.9405 11.076 45.8965 11.12 45.8725 11.16C45.8485 11.192 45.8365 11.236 45.8365 11.292C45.8365 11.516 46.0605 11.68 46.5085 11.784C46.9645 11.888 47.2045 11.944 47.2285 11.952C47.2765 11.968 47.4085 12.008 47.6245 12.072C47.8485 12.136 48.0085 12.196 48.1045 12.252ZM55.7989 14.82C55.6949 14.684 55.6069 14.536 55.5349 14.376C55.4629 14.208 55.3869 14.008 55.3069 13.776C55.2909 13.736 55.2429 13.616 55.1629 13.416C55.0909 13.216 55.0069 13.044 54.9109 12.9C54.4069 12.972 53.9949 13.008 53.6749 13.008C53.4989 13.008 53.3029 13.004 53.0869 12.996C52.8789 12.98 52.7229 12.972 52.6189 12.972C52.2189 12.94 51.8989 12.924 51.6589 12.924C51.5629 13.052 51.4789 13.188 51.4069 13.332C51.3429 13.476 51.2589 13.692 51.1549 13.98C51.0109 14.396 50.8869 14.692 50.7829 14.868C50.7109 14.988 50.5709 15.048 50.3629 15.048C50.1869 15.048 50.0229 15.012 49.8709 14.94C49.7269 14.86 49.6549 14.752 49.6549 14.616C49.7189 14.312 49.8189 13.992 49.9549 13.656C50.0989 13.312 50.3029 12.856 50.5669 12.288L51.0469 11.112C51.3109 10.44 51.5509 9.864 51.7669 9.384C51.9909 8.904 52.2829 8.336 52.6429 7.68C52.6909 7.584 52.7709 7.504 52.8829 7.44C52.9949 7.368 53.1189 7.332 53.2549 7.332C53.4069 7.332 53.5149 7.344 53.5789 7.368C53.6509 7.384 53.7069 7.416 53.7469 7.464C53.7869 7.504 53.8469 7.592 53.9269 7.728C54.1989 8.152 54.4309 8.588 54.6229 9.036C54.8229 9.484 55.0749 10.104 55.3789 10.896L55.6309 11.532C55.8549 12.108 56.0469 12.592 56.2069 12.984C56.3749 13.368 56.5589 13.72 56.7589 14.04C56.8869 14.248 56.9509 14.392 56.9509 14.472C56.9509 14.664 56.8909 14.812 56.7709 14.916C56.6589 15.012 56.5109 15.06 56.3269 15.06C56.0949 15.06 55.9189 14.98 55.7989 14.82ZM54.5629 11.916C54.4349 11.644 54.2509 11.172 54.0109 10.5C53.7629 9.78 53.5149 9.208 53.2669 8.784C53.1149 9.168 52.8909 9.664 52.5949 10.272C52.3949 10.648 52.1669 11.192 51.9109 11.904C52.4229 11.968 52.9749 12 53.5669 12C53.9909 12 54.3229 11.972 54.5629 11.916ZM58.0507 10.824C57.9787 10.824 57.9107 10.832 57.8467 10.848C57.7827 10.856 57.7187 10.86 57.6547 10.86C57.5667 10.86 57.4827 10.82 57.4027 10.74C57.3307 10.66 57.2947 10.588 57.2947 10.524C57.2947 10.316 57.3987 10.156 57.6067 10.044C57.8147 9.924 58.0267 9.864 58.2427 9.864C58.4267 9.864 58.6147 9.928 58.8067 10.056C59.0067 10.176 59.1547 10.332 59.2507 10.524C59.4587 10.276 59.7147 10.096 60.0187 9.984C60.3227 9.872 60.6387 9.816 60.9667 9.816C61.3347 9.816 61.6747 9.932 61.9867 10.164C62.3067 10.396 62.5587 10.692 62.7427 11.052C62.9267 11.404 63.0187 11.756 63.0187 12.108C63.0187 12.452 62.9827 12.76 62.9107 13.032C62.8387 13.296 62.7107 13.564 62.5267 13.836C62.3187 14.124 62.0387 14.36 61.6867 14.544C61.3427 14.728 60.9307 14.82 60.4507 14.82C60.3227 14.82 60.1667 14.788 59.9827 14.724C59.7987 14.652 59.6467 14.576 59.5267 14.496C59.4707 15.04 59.4427 15.512 59.4427 15.912C59.4427 16.152 59.4547 16.38 59.4787 16.596C59.4947 16.852 59.5027 17.036 59.5027 17.148C59.5027 17.324 59.4427 17.452 59.3227 17.532C59.2027 17.62 59.0707 17.664 58.9267 17.664C58.6387 17.664 58.4467 17.584 58.3507 17.424C58.2627 17.272 58.2187 17.052 58.2187 16.764C58.2507 16.076 58.2907 15.44 58.3387 14.856C58.3867 14.136 58.4107 13.024 58.4107 11.52C58.4107 11.376 58.3827 11.224 58.3267 11.064C58.2707 10.904 58.1787 10.824 58.0507 10.824ZM59.5747 13.308C59.6147 13.46 59.7267 13.588 59.9107 13.692C60.1027 13.788 60.2747 13.836 60.4267 13.836C60.8827 13.836 61.2227 13.712 61.4467 13.464C61.6147 13.288 61.7227 13.116 61.7707 12.948C61.8267 12.78 61.8547 12.512 61.8547 12.144C61.8547 11.856 61.7987 11.616 61.6867 11.424C61.5747 11.224 61.4387 11.08 61.2787 10.992C61.1187 10.896 60.9667 10.848 60.8227 10.848C60.4947 10.848 60.2267 10.948 60.0187 11.148C59.8187 11.34 59.6907 11.604 59.6347 11.94C59.5947 12.204 59.5747 12.66 59.5747 13.308ZM63.9942 10.908C63.9142 10.796 63.8582 10.7 63.8262 10.62C63.7942 10.54 63.7782 10.44 63.7782 10.32C63.7782 10.192 63.8302 10.084 63.9342 9.996C64.0462 9.908 64.1862 9.864 64.3542 9.864C64.5222 9.864 64.6902 9.928 64.8582 10.056C65.0262 10.176 65.1622 10.332 65.2662 10.524C65.4342 10.284 65.6622 10.112 65.9502 10.008C66.2382 9.904 66.5502 9.852 66.8862 9.852C67.2542 9.852 67.5942 9.964 67.9062 10.188C68.2262 10.412 68.4782 10.7 68.6622 11.052C68.8462 11.404 68.9382 11.756 68.9382 12.108C68.9382 12.452 68.9022 12.76 68.8302 13.032C68.7582 13.296 68.6302 13.564 68.4462 13.836C68.2382 14.124 67.9582 14.36 67.6062 14.544C67.2622 14.728 66.8502 14.82 66.3702 14.82C66.2422 14.82 66.0862 14.788 65.9022 14.724C65.7182 14.652 65.5662 14.576 65.4462 14.496C65.3902 15.04 65.3622 15.512 65.3622 15.912C65.3622 16.152 65.3742 16.38 65.3982 16.596C65.4142 16.852 65.4222 17.036 65.4222 17.148C65.4222 17.324 65.3622 17.452 65.2422 17.532C65.1222 17.62 64.9902 17.664 64.8462 17.664C64.5582 17.664 64.3662 17.584 64.2702 17.424C64.1822 17.272 64.1382 17.052 64.1382 16.764C64.1702 16.076 64.2102 15.44 64.2582 14.856C64.3142 14.016 64.3422 12.984 64.3422 11.76C64.3422 11.664 64.3022 11.524 64.2222 11.34C64.1502 11.156 64.0742 11.012 63.9942 10.908ZM65.4942 13.308C65.5342 13.46 65.6462 13.588 65.8302 13.692C66.0222 13.788 66.1942 13.836 66.3462 13.836C66.8022 13.836 67.1422 13.712 67.3662 13.464C67.5342 13.288 67.6422 13.116 67.6902 12.948C67.7462 12.78 67.7742 12.512 67.7742 12.144C67.7742 11.856 67.7182 11.616 67.6062 11.424C67.4942 11.224 67.3582 11.08 67.1982 10.992C67.0382 10.896 66.8862 10.848 66.7422 10.848C66.4142 10.848 66.1462 10.948 65.9382 11.148C65.7382 11.34 65.6102 11.604 65.5542 11.94C65.5142 12.204 65.4942 12.66 65.4942 13.308Z" fill="#2D3047"/>
<path d="M26.0067 67.3333L28.26 59.0533C26.7753 56.5081 25.9952 53.6133 26 50.6667C26 41.4617 33.4617 34 42.6667 34C51.8717 34 59.3334 41.4617 59.3334 50.6667C59.3334 59.8717 51.8717 67.3333 42.6667 67.3333C39.7213 67.3381 36.8278 66.5586 34.2834 65.075L26.0067 67.3333ZM36.6517 42.8467C36.4365 42.86 36.2261 42.9167 36.0334 43.0133C35.8526 43.1157 35.6875 43.2437 35.5434 43.3933C35.3434 43.5817 35.23 43.745 35.1084 43.9033C34.4924 44.705 34.161 45.689 34.1667 46.7C34.17 47.5167 34.3834 48.3117 34.7167 49.055C35.3984 50.5583 36.52 52.15 38.0017 53.625C38.3584 53.98 38.7067 54.3367 39.0817 54.6683C40.9207 56.2874 43.1121 57.4551 45.4817 58.0783L46.43 58.2233C46.7384 58.24 47.0467 58.2167 47.3567 58.2017C47.8421 58.1766 48.316 58.0452 48.745 57.8167C48.9633 57.7042 49.1763 57.5819 49.3834 57.45C49.3834 57.45 49.455 57.4033 49.5917 57.3C49.8167 57.1333 49.955 57.015 50.1417 56.82C50.28 56.6767 50.4 56.5083 50.4917 56.3167C50.6217 56.045 50.7517 55.5267 50.805 55.095C50.845 54.765 50.8334 54.585 50.8284 54.4733C50.8217 54.295 50.6734 54.11 50.5117 54.0317L49.5417 53.5967C49.5417 53.5967 48.0917 52.965 47.2067 52.5617C47.1134 52.521 47.0134 52.4978 46.9117 52.4933C46.7977 52.4816 46.6824 52.4945 46.5738 52.531C46.4651 52.5675 46.3655 52.6268 46.2817 52.705V52.7017C46.2734 52.7017 46.1617 52.7967 44.9567 54.2567C44.8875 54.3496 44.7923 54.4198 44.683 54.4584C44.5738 54.497 44.4555 54.5022 44.3434 54.4733C44.2348 54.4443 44.1284 54.4075 44.025 54.3633C43.8184 54.2767 43.7467 54.2433 43.605 54.1817L43.5967 54.1783C42.6432 53.762 41.7604 53.1997 40.98 52.5117C40.77 52.3283 40.575 52.1283 40.375 51.935C39.7193 51.3071 39.1479 50.5967 38.675 49.8217L38.5767 49.6633C38.5061 49.5569 38.449 49.4422 38.4067 49.3217C38.3434 49.0767 38.5084 48.88 38.5084 48.88C38.5084 48.88 38.9134 48.4367 39.1017 48.1967C39.2585 47.9972 39.4048 47.7897 39.54 47.575C39.7367 47.2583 39.7984 46.9333 39.695 46.6817C39.2284 45.5417 38.745 44.4067 38.2484 43.28C38.15 43.0567 37.8584 42.8967 37.5934 42.865C37.5034 42.855 37.4134 42.845 37.3234 42.8383C37.0995 42.8272 36.8752 42.8294 36.6517 42.845V42.8467Z" fill="#FDB623"/>
</svg>
