<svg width="86" height="92" viewBox="0 0 86 92" fill="none" xmlns="http://www.w3.org/2000/svg">
<rect x="1" y="11" width="84" height="80" rx="7" fill="#333333"/>
<rect x="1" y="11" width="84" height="80" rx="7" stroke="#FDB623" stroke-width="2"/>
<rect x="20" width="46" height="22" rx="4" fill="#FDB623"/>
<path d="M34.0653 13.368C34.2173 13.368 34.3293 13.428 34.4013 13.548C34.4813 13.66 34.5213 13.784 34.5213 13.92C34.5213 14.088 34.4933 14.208 34.4373 14.28C34.3893 14.344 34.2933 14.412 34.1493 14.484C33.8133 14.644 33.3973 14.772 32.9013 14.868C32.4053 14.964 31.8733 15.012 31.3053 15.012C30.5933 15.012 30.0693 14.892 29.7333 14.652C29.4053 14.412 29.2013 14.124 29.1213 13.788C29.0493 13.444 29.0133 12.996 29.0133 12.444C29.0133 11.852 29.0373 11.272 29.0853 10.704C29.1333 10.128 29.2173 9.396 29.3373 8.508C29.3933 8.124 29.5453 7.848 29.7933 7.68C30.0413 7.504 30.3133 7.416 30.6093 7.416C30.8573 7.416 31.2613 7.408 31.8213 7.392L32.8653 7.38C33.2973 7.38 33.6093 7.392 33.8013 7.416C34.0413 7.464 34.2173 7.52 34.3293 7.584C34.4493 7.64 34.5093 7.74 34.5093 7.884C34.5093 8.044 34.4533 8.2 34.3412 8.352C34.2373 8.504 34.0773 8.58 33.8613 8.58C33.6133 8.58 33.2573 8.564 32.7933 8.532C32.3293 8.5 31.9813 8.484 31.7493 8.484C31.5493 8.484 31.3533 8.496 31.1613 8.52C30.9373 8.536 30.7773 8.564 30.6813 8.604C30.5853 8.644 30.5293 8.712 30.5133 8.808C30.4013 9.632 30.3453 10.24 30.3453 10.632C30.5293 10.656 30.7093 10.668 30.8853 10.668C31.1093 10.668 31.3493 10.656 31.6053 10.632C31.8613 10.608 32.0253 10.592 32.0973 10.584C32.5213 10.544 32.8853 10.524 33.1893 10.524C33.3653 10.524 33.4973 10.556 33.5853 10.62C33.6813 10.684 33.7293 10.772 33.7293 10.884C33.7293 11.06 33.6813 11.196 33.5853 11.292C33.4973 11.388 33.3373 11.46 33.1053 11.508C32.8253 11.564 32.4773 11.608 32.0613 11.64C31.6533 11.672 31.2533 11.688 30.8613 11.688C30.7253 11.688 30.5373 11.68 30.2973 11.664C30.2733 12.152 30.2613 12.604 30.2613 13.02C30.2613 13.588 30.6373 13.872 31.3893 13.872C31.7893 13.872 32.1213 13.844 32.3853 13.788C32.6493 13.732 32.9533 13.652 33.2973 13.548C33.6173 13.428 33.8733 13.368 34.0653 13.368ZM43.1103 14.58C42.9903 14.356 42.9143 14.108 42.8823 13.836C42.8503 13.556 42.8343 13.172 42.8343 12.684C42.8343 12.22 42.7703 11.816 42.6423 11.472C42.5143 11.128 42.2503 10.956 41.8503 10.956C41.6983 10.956 41.5463 11.004 41.3943 11.1C41.2503 11.188 41.1423 11.3 41.0703 11.436C40.9583 11.652 40.8823 11.888 40.8423 12.144C40.8023 12.392 40.7823 12.68 40.7823 13.008C40.7823 13.216 40.7943 13.428 40.8183 13.644C40.8183 13.708 40.8223 13.812 40.8303 13.956C40.8463 14.092 40.8543 14.216 40.8543 14.328C40.8543 14.808 40.6863 15.048 40.3503 15.048C39.9103 15.048 39.6783 14.816 39.6543 14.352C39.6543 14.024 39.6583 13.848 39.6663 13.824V13.308C39.6663 13.02 39.6543 12.74 39.6303 12.468C39.6063 12.196 39.5783 11.992 39.5463 11.856C39.4743 11.592 39.3783 11.388 39.2583 11.244C39.1463 11.1 38.9663 11.028 38.7183 11.028C38.3663 11.028 38.0823 11.18 37.8663 11.484C37.7143 11.724 37.6143 12.016 37.5663 12.36C37.5183 12.8 37.4823 13.148 37.4583 13.404C37.4423 13.652 37.4343 13.94 37.4343 14.268C37.4343 14.5 37.3943 14.688 37.3143 14.832C37.2423 14.976 37.1023 15.048 36.8943 15.048C36.7423 15.048 36.5823 15.008 36.4143 14.928C36.2543 14.84 36.1743 14.724 36.1743 14.58C36.1743 14.428 36.1903 14.276 36.2223 14.124C36.2943 13.668 36.3303 12.852 36.3303 11.676C36.3303 11.484 36.2823 11.3 36.1863 11.124C36.0983 10.94 35.9903 10.848 35.8623 10.848C35.8303 10.848 35.7703 10.864 35.6823 10.896C35.6023 10.928 35.5423 10.944 35.5023 10.944C35.3983 10.944 35.3023 10.896 35.2143 10.8C35.1343 10.704 35.0943 10.624 35.0943 10.56C35.0943 10.36 35.1903 10.192 35.3823 10.056C35.5823 9.912 35.7903 9.84 36.0063 9.84C36.3023 9.84 36.5543 9.932 36.7623 10.116C36.9703 10.3 37.1303 10.556 37.2423 10.884C37.4263 10.564 37.6743 10.308 37.9863 10.116C38.2983 9.916 38.6463 9.816 39.0303 9.816C39.2703 9.816 39.4623 9.848 39.6063 9.912C39.7583 9.968 39.8823 10.052 39.9783 10.164C40.0743 10.268 40.1983 10.428 40.3503 10.644C40.5503 10.388 40.8063 10.188 41.1183 10.044C41.4383 9.9 41.7663 9.828 42.1023 9.828C42.5023 9.828 42.8623 9.992 43.1823 10.32C43.5023 10.64 43.7183 11.012 43.8303 11.436C43.8863 11.652 43.9143 12.068 43.9143 12.684L43.9623 13.38C44.0023 13.796 44.1383 14.048 44.3703 14.136C44.6423 14.216 44.7783 14.3 44.7783 14.388C44.7783 14.58 44.7303 14.72 44.6343 14.808C44.5623 14.856 44.4623 14.908 44.3343 14.964C44.2063 15.02 44.1063 15.048 44.0343 15.048C43.6023 15.048 43.2943 14.892 43.1103 14.58ZM51.0882 14.424C51.0882 14.6 50.9922 14.748 50.8002 14.868C50.6162 14.988 50.4442 15.048 50.2842 15.048C49.9802 15.048 49.7362 15.012 49.5522 14.94C49.3762 14.86 49.2122 14.716 49.0602 14.508C48.8522 14.692 48.5682 14.832 48.2082 14.928C47.8482 15.016 47.5162 15.06 47.2122 15.06C46.7162 15.06 46.3082 14.928 45.9882 14.664C45.6682 14.392 45.5082 13.996 45.5082 13.476C45.5082 13.252 45.5682 13.048 45.6882 12.864C45.8082 12.672 45.9722 12.504 46.1802 12.36C46.4122 12.208 46.6762 12.092 46.9722 12.012C47.2682 11.924 47.5762 11.88 47.8962 11.88C48.0642 11.88 48.2642 11.912 48.4962 11.976C48.7282 12.04 48.9082 12.108 49.0362 12.18V11.988C49.0362 11.556 48.9322 11.26 48.7242 11.1C48.5162 10.932 48.1802 10.848 47.7162 10.848C47.5802 10.848 47.4442 10.876 47.3082 10.932C47.1802 10.988 47.0322 11.064 46.8642 11.16C46.6402 11.28 46.4282 11.34 46.2282 11.34C46.1562 11.34 46.0882 11.292 46.0242 11.196C45.9602 11.092 45.9282 11 45.9282 10.92C45.9282 10.688 46.0362 10.488 46.2522 10.32C46.4762 10.152 46.7402 10.028 47.0442 9.948C47.3482 9.86 47.6202 9.816 47.8602 9.816C48.1002 9.816 48.3762 9.864 48.6882 9.96C49.0002 10.048 49.2562 10.172 49.4562 10.332C49.6962 10.54 49.8802 10.784 50.0082 11.064C50.1442 11.336 50.2122 11.636 50.2122 11.964C50.2122 12.068 50.2042 12.224 50.1882 12.432C50.1722 12.656 50.1642 12.848 50.1642 13.008C50.1642 13.08 50.1562 13.188 50.1402 13.332C50.1242 13.508 50.1162 13.648 50.1162 13.752C50.1162 13.848 50.1522 13.932 50.2242 14.004C50.2962 14.068 50.3802 14.1 50.4762 14.1L50.8122 14.088C50.9002 14.088 50.9682 14.12 51.0162 14.184C51.0642 14.248 51.0882 14.328 51.0882 14.424ZM47.2242 14.112C47.5682 14.112 47.8562 14.076 48.0882 14.004C48.3202 13.932 48.6002 13.8 48.9282 13.608C48.9602 13.472 48.9802 13.292 48.9882 13.068C48.5482 12.86 48.1842 12.756 47.8962 12.756C47.5682 12.756 47.2762 12.816 47.0202 12.936C46.7642 13.056 46.6362 13.268 46.6362 13.572C46.6362 13.724 46.7002 13.852 46.8282 13.956C46.9562 14.06 47.0882 14.112 47.2242 14.112ZM52.498 7.296C52.778 7.32 53.022 7.396 53.23 7.524C53.438 7.644 53.542 7.828 53.542 8.076C53.542 8.26 53.454 8.408 53.278 8.52C53.11 8.624 52.906 8.676 52.666 8.676C52.434 8.676 52.274 8.616 52.186 8.496C52.098 8.376 52.054 8.252 52.054 8.124C52.054 7.884 52.078 7.684 52.126 7.524C52.182 7.364 52.306 7.288 52.498 7.296ZM53.458 12.612V12.96C53.458 13.272 53.466 13.568 53.482 13.848C53.506 14.12 53.534 14.396 53.566 14.676C53.566 14.772 53.51 14.86 53.398 14.94C53.286 15.012 53.182 15.048 53.086 15.048C52.934 15.048 52.778 15.02 52.618 14.964C52.466 14.9 52.374 14.824 52.342 14.736C52.294 14.48 52.27 14.252 52.27 14.052C52.27 13.396 52.25 12.66 52.21 11.844C52.178 11.124 52.162 10.62 52.162 10.332C52.162 10.188 52.234 10.064 52.378 9.96C52.522 9.856 52.674 9.804 52.834 9.804C53.066 9.804 53.226 9.856 53.314 9.96C53.41 10.064 53.458 10.228 53.458 10.452V12.612ZM56.3003 13.14C56.3003 13.444 56.3443 13.68 56.4323 13.848C56.5283 14.008 56.6483 14.088 56.7923 14.088C56.8723 14.088 56.9483 14.084 57.0203 14.076C57.0923 14.06 57.1643 14.052 57.2363 14.052C57.3163 14.052 57.3843 14.092 57.4403 14.172C57.5043 14.252 57.5363 14.34 57.5363 14.436C57.5363 14.628 57.4443 14.78 57.2603 14.892C57.0843 14.996 56.8443 15.048 56.5403 15.048C56.3243 15.048 56.1043 14.984 55.8803 14.856C55.6643 14.72 55.4843 14.512 55.3403 14.232C55.1963 13.944 55.1243 13.588 55.1243 13.164C55.1243 12.252 55.1403 11.48 55.1723 10.848C55.2123 10.096 55.2323 9.148 55.2323 8.004C55.2323 7.644 55.2523 7.392 55.2923 7.248C55.3403 7.136 55.4163 7.052 55.5203 6.996C55.6323 6.932 55.7483 6.9 55.8683 6.9C55.9883 6.9 56.0923 6.92 56.1803 6.96C56.2763 7 56.3403 7.064 56.3723 7.152C56.4043 7.248 56.4243 7.344 56.4323 7.44C56.4483 7.528 56.4563 7.656 56.4563 7.824C56.4563 8.152 56.4443 8.468 56.4203 8.772C56.4043 9.14 56.3963 9.408 56.3963 9.576C56.3323 10.984 56.3003 12.172 56.3003 13.14Z" fill="#2D3047"/>
<path d="M54.3333 46C52.9444 46 51.7639 45.5139 50.7917 44.5417C49.8194 43.5694 49.3333 42.3889 49.3333 41C49.3333 39.6111 49.8194 38.4306 50.7917 37.4583C51.7639 36.4861 52.9444 36 54.3333 36C55.7222 36 56.9028 36.4861 57.875 37.4583C58.8472 38.4306 59.3333 39.6111 59.3333 41C59.3333 42.3889 58.8472 43.5694 57.875 44.5417C56.9028 45.5139 55.7222 46 54.3333 46ZM29.3333 66C28.4167 66 27.6322 65.6739 26.98 65.0217C26.3267 64.3683 26 63.5833 26 62.6667V42.6667C26 41.75 26.3267 40.9656 26.98 40.3133C27.6322 39.66 28.4167 39.3333 29.3333 39.3333H46.1667C46.0556 39.8889 46 40.4444 46 41C46 41.5556 46.0556 42.1111 46.1667 42.6667C46.3611 43.5556 46.6806 44.3817 47.125 45.145C47.5694 45.9094 48.1111 46.5833 48.75 47.1667L42.6667 51L29.3333 42.6667V46L42.6667 54.3333L51.4583 48.8333C51.9306 49 52.4028 49.125 52.875 49.2083C53.3472 49.2917 53.8333 49.3333 54.3333 49.3333C55.2222 49.3333 56.0972 49.1944 56.9583 48.9167C57.8194 48.6389 58.6111 48.2222 59.3333 47.6667V62.6667C59.3333 63.5833 59.0072 64.3683 58.355 65.0217C57.7017 65.6739 56.9167 66 56 66H29.3333Z" fill="#FDB623"/>
</svg>
