<svg width="86" height="92" viewBox="0 0 86 92" fill="none" xmlns="http://www.w3.org/2000/svg">
<rect x="1" y="11" width="84" height="80" rx="7" fill="#333333"/>
<rect x="1" y="11" width="84" height="80" rx="7" stroke="#FDB623" stroke-width="2"/>
<rect x="20.5" width="45" height="22" rx="4" fill="#FDB623"/>
<path d="M34.4461 13.368C34.5981 13.368 34.7101 13.428 34.7821 13.548C34.8621 13.66 34.9021 13.784 34.9021 13.92C34.9021 14.088 34.8741 14.208 34.8181 14.28C34.7701 14.344 34.6741 14.412 34.5301 14.484C34.1941 14.644 33.7781 14.772 33.2821 14.868C32.7861 14.964 32.2541 15.012 31.6861 15.012C30.9741 15.012 30.4501 14.892 30.1141 14.652C29.7861 14.412 29.5821 14.124 29.5021 13.788C29.4301 13.444 29.3941 12.996 29.3941 12.444C29.3941 11.852 29.4181 11.272 29.4661 10.704C29.5141 10.128 29.5981 9.396 29.7181 8.508C29.7741 8.124 29.9261 7.848 30.1741 7.68C30.4221 7.504 30.6941 7.416 30.9901 7.416C31.2381 7.416 31.6421 7.408 32.2021 7.392L33.2461 7.38C33.6781 7.38 33.9901 7.392 34.1821 7.416C34.4221 7.464 34.5981 7.52 34.7101 7.584C34.8301 7.64 34.8901 7.74 34.8901 7.884C34.8901 8.044 34.8341 8.2 34.7221 8.352C34.6181 8.504 34.4581 8.58 34.2421 8.58C33.9941 8.58 33.6381 8.564 33.1741 8.532C32.7101 8.5 32.3621 8.484 32.1301 8.484C31.9301 8.484 31.7341 8.496 31.5421 8.52C31.3181 8.536 31.1581 8.564 31.0621 8.604C30.9661 8.644 30.9101 8.712 30.8941 8.808C30.7821 9.632 30.7261 10.24 30.7261 10.632C30.9101 10.656 31.0901 10.668 31.2661 10.668C31.4901 10.668 31.7301 10.656 31.9861 10.632C32.2421 10.608 32.4061 10.592 32.4781 10.584C32.9021 10.544 33.2661 10.524 33.5701 10.524C33.7461 10.524 33.8781 10.556 33.9661 10.62C34.0621 10.684 34.1101 10.772 34.1101 10.884C34.1101 11.06 34.0621 11.196 33.9661 11.292C33.8781 11.388 33.7181 11.46 33.4861 11.508C33.2061 11.564 32.8581 11.608 32.4421 11.64C32.0341 11.672 31.6341 11.688 31.2421 11.688C31.1061 11.688 30.9181 11.68 30.6781 11.664C30.6541 12.152 30.6421 12.604 30.6421 13.02C30.6421 13.588 31.0181 13.872 31.7701 13.872C32.1701 13.872 32.5021 13.844 32.7661 13.788C33.0301 13.732 33.3341 13.652 33.6781 13.548C33.9981 13.428 34.2541 13.368 34.4461 13.368ZM38.5743 11.916C38.5983 11.852 38.6823 11.62 38.8263 11.22C38.9783 10.82 39.1183 10.516 39.2463 10.308C39.4543 9.98 39.6383 9.816 39.7983 9.816C40.0223 9.816 40.1943 9.86 40.3143 9.948C40.4343 10.028 40.4943 10.144 40.4943 10.296C40.4943 10.368 40.4623 10.468 40.3983 10.596C40.3423 10.724 40.3103 10.8 40.3023 10.824C39.9823 11.528 39.6943 12.284 39.4383 13.092L39.1863 14.028C39.0903 14.332 38.9263 14.58 38.6943 14.772C38.4623 14.956 38.1903 15.048 37.8783 15.048C37.5983 15.048 37.3383 14.92 37.0983 14.664C36.9543 14.44 36.8023 14.156 36.6423 13.812C36.4903 13.468 36.3583 13.132 36.2463 12.804L35.8263 11.544C35.7383 11.296 35.6663 11.084 35.6103 10.908C35.5623 10.732 35.5383 10.572 35.5383 10.428C35.5303 10.26 35.5783 10.124 35.6823 10.02C35.7863 9.916 35.9303 9.864 36.1143 9.864C36.3223 9.864 36.4703 9.908 36.5583 9.996C36.6463 10.076 36.7263 10.204 36.7983 10.38C36.8303 10.564 36.9183 10.94 37.0623 11.508L37.1463 11.844C37.2183 12.116 37.3103 12.392 37.4223 12.672C37.5343 12.952 37.6463 13.22 37.7583 13.476C37.7423 13.436 37.7983 13.568 37.9263 13.872C38.0063 13.64 38.0983 13.356 38.2023 13.02L38.5743 11.916ZM41.249 12.456C41.249 12.152 41.305 11.848 41.417 11.544C41.529 11.232 41.677 10.948 41.861 10.692C42.045 10.436 42.337 10.228 42.737 10.068C43.137 9.9 43.493 9.816 43.805 9.816C44.125 9.816 44.449 9.86 44.777 9.948C45.113 10.036 45.345 10.172 45.473 10.356C45.769 10.772 45.917 11.18 45.917 11.58C45.917 11.796 45.869 11.98 45.773 12.132C45.685 12.284 45.557 12.448 45.389 12.624C45.253 12.768 45.037 12.864 44.741 12.912C44.453 12.96 44.165 12.984 43.877 12.984C43.693 12.984 43.469 12.968 43.205 12.936C42.941 12.896 42.685 12.848 42.437 12.792C42.453 12.952 42.493 13.108 42.557 13.26C42.621 13.412 42.697 13.528 42.785 13.608C42.945 13.76 43.109 13.856 43.277 13.896C43.453 13.936 43.677 13.956 43.949 13.956C44.237 13.956 44.505 13.908 44.753 13.812C44.953 13.74 45.117 13.704 45.245 13.704C45.397 13.704 45.513 13.752 45.593 13.848C45.673 13.936 45.713 14.052 45.713 14.196C45.713 14.396 45.597 14.56 45.365 14.688C45.133 14.816 44.865 14.912 44.561 14.976C44.265 15.032 44.025 15.06 43.841 15.06C43.465 15.06 43.101 14.992 42.749 14.856C42.397 14.72 42.105 14.528 41.873 14.28C41.681 14.056 41.529 13.788 41.417 13.476C41.305 13.156 41.249 12.816 41.249 12.456ZM43.865 10.836C43.689 10.836 43.513 10.872 43.337 10.944C43.161 11.008 43.017 11.1 42.905 11.22C42.761 11.372 42.661 11.496 42.605 11.592C42.557 11.68 42.525 11.804 42.509 11.964C42.709 12.028 43.125 12.06 43.757 12.06C44.101 12.06 44.365 12.008 44.549 11.904C44.741 11.8 44.837 11.664 44.837 11.496C44.837 11.328 44.733 11.176 44.525 11.04C44.317 10.904 44.097 10.836 43.865 10.836ZM46.9677 10.776C46.9037 10.728 46.8517 10.68 46.8117 10.632C46.7717 10.576 46.7517 10.48 46.7517 10.344C46.7517 10.192 46.8037 10.076 46.9077 9.996C47.0197 9.908 47.1477 9.864 47.2917 9.864C47.5717 9.864 47.8117 9.936 48.0117 10.08C48.2197 10.224 48.3717 10.424 48.4677 10.68C48.6437 10.352 48.8677 10.128 49.1397 10.008C49.4117 9.88 49.7877 9.816 50.2677 9.816C50.4597 9.816 50.6557 9.876 50.8557 9.996C51.0637 10.108 51.2517 10.248 51.4197 10.416C51.5557 10.592 51.6717 10.812 51.7677 11.076C51.8637 11.332 51.9117 11.564 51.9117 11.772C51.9117 11.892 51.9037 12.088 51.8877 12.36C51.8717 12.648 51.8637 12.876 51.8637 13.044C51.8637 13.604 51.9717 13.948 52.1877 14.076C52.2197 14.092 52.2797 14.112 52.3677 14.136C52.4557 14.16 52.5197 14.184 52.5597 14.208C52.6077 14.232 52.6317 14.268 52.6317 14.316C52.6397 14.508 52.5677 14.668 52.4157 14.796C52.2717 14.916 52.0957 14.976 51.8877 14.976C51.5757 14.976 51.3317 14.892 51.1557 14.724C50.9797 14.556 50.8557 14.3 50.7837 13.956C50.7437 13.828 50.7237 13.64 50.7237 13.392C50.7237 13.256 50.7317 13.036 50.7477 12.732C50.7717 12.492 50.7837 12.236 50.7837 11.964C50.7837 11.684 50.7037 11.44 50.5437 11.232C50.3837 11.016 50.1637 10.908 49.8837 10.908C49.7157 10.908 49.5397 10.96 49.3557 11.064C49.1717 11.16 49.0437 11.28 48.9717 11.424C48.8517 11.672 48.7717 11.924 48.7317 12.18C48.6357 12.676 48.5877 13.152 48.5877 13.608C48.5877 13.72 48.5957 13.936 48.6117 14.256C48.6117 14.28 48.6117 14.34 48.6117 14.436C48.6117 14.524 48.5997 14.608 48.5757 14.688C48.5597 14.768 48.5277 14.84 48.4797 14.904C48.4477 14.936 48.3877 14.968 48.2997 15C48.2117 15.032 48.1357 15.048 48.0717 15.048C47.9597 15.048 47.8197 15 47.6517 14.904C47.4837 14.808 47.3837 14.7 47.3517 14.58L47.3397 14.412C47.3397 14.348 47.3477 14.252 47.3637 14.124C47.4597 13.564 47.5077 13.076 47.5077 12.66C47.5077 12.476 47.5037 12.336 47.4957 12.24L47.4837 11.688C47.4837 11.52 47.4357 11.36 47.3397 11.208C47.2437 11.048 47.1197 10.904 46.9677 10.776ZM53.4862 10.848C53.3742 10.832 53.2822 10.784 53.2102 10.704C53.1462 10.624 53.1142 10.528 53.1142 10.416C53.1142 10.36 53.1262 10.3 53.1502 10.236C53.1822 10.172 53.2262 10.116 53.2822 10.068C53.3862 9.98 53.5262 9.896 53.7022 9.816C53.8862 9.744 54.0182 9.656 54.0982 9.552C54.1782 9.448 54.2182 9.252 54.2182 8.964C54.2182 8.844 54.2102 8.74 54.1942 8.652C54.1862 8.564 54.1822 8.496 54.1822 8.448C54.1822 8.272 54.2462 8.14 54.3742 8.052C54.5022 7.964 54.6502 7.92 54.8182 7.92C55.0262 7.92 55.1662 7.972 55.2382 8.076C55.3182 8.18 55.3582 8.372 55.3582 8.652C55.3582 8.924 55.3462 9.16 55.3222 9.36C55.2982 9.552 55.2462 9.724 55.1662 9.876C55.2782 9.876 55.4622 9.868 55.7182 9.852C56.0702 9.836 56.3142 9.828 56.4502 9.828C56.5862 9.828 56.7062 9.864 56.8102 9.936C56.9142 10 56.9662 10.092 56.9662 10.212C56.9662 10.38 56.9302 10.504 56.8582 10.584C56.7862 10.664 56.6822 10.716 56.5462 10.74C56.2182 10.828 55.7542 10.88 55.1542 10.896C55.1382 11.208 55.1302 11.548 55.1302 11.916C55.1302 12.532 55.1662 13.004 55.2382 13.332C55.2862 13.588 55.3662 13.776 55.4782 13.896C55.5982 14.008 55.7742 14.064 56.0062 14.064C56.1262 14.064 56.2222 14.048 56.2942 14.016C56.3742 13.984 56.4182 13.964 56.4262 13.956C56.5222 13.9 56.6102 13.872 56.6902 13.872C56.8022 13.872 56.8822 13.908 56.9302 13.98C56.9862 14.052 57.0142 14.148 57.0142 14.268C57.0142 14.492 56.8942 14.68 56.6542 14.832C56.4142 14.976 56.1062 15.048 55.7302 15.048C55.3062 15.048 54.9462 14.924 54.6502 14.676C54.3622 14.42 54.1902 14.084 54.1342 13.668C54.0542 13.292 54.0142 12.764 54.0142 12.084C54.0142 11.788 54.0302 11.392 54.0622 10.896L53.4862 10.848Z" fill="#2D3047"/>
<path d="M40.0833 60.0833L36.5417 56.5417C36.2083 56.2083 36.0417 55.8056 36.0417 55.3333C36.0417 54.8611 36.2083 54.4583 36.5417 54.125C36.875 53.7917 37.2778 53.625 37.75 53.625C38.2222 53.625 38.625 53.7917 38.9583 54.125L41.25 56.4167L47.0417 50.625C47.375 50.2917 47.7778 50.125 48.25 50.125C48.7222 50.125 49.125 50.2917 49.4583 50.625C49.7917 50.9583 49.9583 51.3611 49.9583 51.8333C49.9583 52.3056 49.7917 52.7083 49.4583 53.0417L42.4167 60.0833C42.1111 60.3889 41.7222 60.5417 41.25 60.5417C40.7778 60.5417 40.3889 60.3889 40.0833 60.0833ZM31.3333 67.3333C30.4167 67.3333 29.6317 67.0072 28.9783 66.355C28.3261 65.7017 28 64.9167 28 64V40.6667C28 39.75 28.3261 38.9656 28.9783 38.3133C29.6317 37.66 30.4167 37.3333 31.3333 37.3333H33V35.6667C33 35.1944 33.1594 34.7983 33.4783 34.4783C33.7983 34.1594 34.1944 34 34.6667 34C35.1389 34 35.535 34.1594 35.855 34.4783C36.1739 34.7983 36.3333 35.1944 36.3333 35.6667V37.3333H49.6667V35.6667C49.6667 35.1944 49.8267 34.7983 50.1467 34.4783C50.4656 34.1594 50.8611 34 51.3333 34C51.8056 34 52.2011 34.1594 52.52 34.4783C52.84 34.7983 53 35.1944 53 35.6667V37.3333H54.6667C55.5833 37.3333 56.3683 37.66 57.0217 38.3133C57.6739 38.9656 58 39.75 58 40.6667V64C58 64.9167 57.6739 65.7017 57.0217 66.355C56.3683 67.0072 55.5833 67.3333 54.6667 67.3333H31.3333ZM31.3333 64H54.6667V47.3333H31.3333V64Z" fill="#FDB623"/>
</svg>
